<?xml version="1.0" encoding="utf-8"?>
<svg version="1.1" xmlns:xlink="http://www.w3.org/1999/xlink" width="5px" height="7px" xmlns="http://www.w3.org/2000/svg">
  <g transform="matrix(1 0 0 1 -16 -373 )">
    <path d="M 2.08031234260138 3.553691528718  C 2.0546180913577 3.36899330256808  2.07591853012107 3.17875940170479  2.07591853012107 2.91937350085102  C 1.54273893739944 2.91937350085102  1.08339449787987 2.92042791508217  0.623954540697669 2.91902202944072  C 0.319348714615755 2.91796761520958  0.00824768747594362 2.87658185663834  0.000892827454524025 2.52660419976148  C -0.0066530678921336 2.16722468265722  0.305594171199073 2.13348342726165  0.611250691569748 2.1340985022297  C 0.972211938595022 2.13488931290309  1.3332687032829 2.13427423793491  1.83215745512543 2.13427423793491  C 1.39010171253934 1.61005462936668  1.01548143975998 1.18565290134373  0.668943359789709 0.742623188571194  C 0.567599119754309 0.613018105996917  0.474087328053407 0.418390812503954  0.502551591512928 0.274639005662301  C 0.567790155079547 -0.0539867630346154  1.01576799274786 -0.0980964250361997  1.28168916547036 0.198809048874766  C 1.68448714872136 0.648428850591692  2.06464744593239 1.11518288356435  2.49753349290742 1.62543150357042  C 2.9101697954078 1.13952227873253  3.27160863074615 0.68120355960879  3.67593489659903 0.257592642259236  C 3.79934371669869 0.128251163242714  4.05160586366711 0.0141108227248441  4.22573456261582 0.0340568252633406  C 4.54313975548822 0.0702583805315087  4.61019315464459 0.402838202595004  4.37627039889836 0.691835569772554  C 4.00852739782738 1.14620023552958  3.62531053541261 1.5898450232703  3.16711230784444 2.1350650486083  C 3.6721141900944 2.1350650486083  4.06153970057916 2.13647093424975  4.45096521106399 2.13453784149267  C 4.73264679811809 2.13313195585122  4.98729688665194 2.20377770933581  4.99952314746671 2.4979592798163  C 5.01260906724508 2.81463502056055  4.75452034285708 2.91436503325329  4.4525890113284 2.91744040809407  C 3.96392064938575 2.92244887569179  3.47506125211791 2.91875842588297  2.95926587399238 2.91875842588297  C 2.95926587399238 3.28604604972052  2.95926587399238 3.60157950838108  2.95926587399238 3.9877587205261  C 3.4393376462996 3.9877587205261  3.91157697027229 3.9902190203987  4.38362525891978 3.98688004200017  C 4.69176523851852 3.98468334568546  5.00401247760966 4.02149997592181  4.99914107681624 4.37464087549198  C 4.99446071134808 4.71486520073101  4.69367559177083 4.77426386908379  4.38009110540299 4.77189143706374  C 3.92065114822082 4.76828885510745  3.46121119103859 4.77092489068526  2.93080161053286 4.77092489068526  C 2.93080161053286 5.368162684758  2.92822263364222 5.93341658048717  2.93194782248422 6.49875834406875  C 2.93395369339917 6.78257150794336  2.84540882015429 7.00355915721412  2.48836379729625 6.99995657525784  C 2.15605784905574 6.99661759685931  2.07372162388092 6.78599835419443  2.07544094180796 6.52011023224882  C 2.07897509532475 5.95362618658342  2.07649163609675 5.38705427306548  2.07649163609675 4.7706612871275  C 1.54187927843588 4.7706612871275  1.06868477783703 4.77074915498005  0.595585794900751 4.7706612871275  C 0.28190579087034 4.77057341927483  -0.0092320447827329 4.70599054761924  0.000224203816207229 4.35530994792153  C 0.00901182877686314 4.02475108646766  0.298525864165495 3.98661643844241  0.58842197020457 3.98767085267356  C 0.9226382716974 3.98898887046246  1.25828733812947 3.96957007503948  1.59068880403259 3.99197637745057  C 1.95442006327373 4.01640364047141  2.1309367037878 3.91544347784231  2.08031234260138 3.553691528718  Z " fill-rule="nonzero" fill="#cccccc" stroke="none" transform="matrix(1 0 0 1 16 373 )" />
  </g>
</svg>