<?xml version="1.0" encoding="utf-8"?>
<svg version="1.1" xmlns:xlink="http://www.w3.org/1999/xlink" width="15px" height="16px" xmlns="http://www.w3.org/2000/svg">
  <g transform="matrix(1 0 0 1 -12 -293 )">
    <path d="M 6.12769485903811 1.32013201320132  C 6.12769485903811 1.01210121012105  5.89552238805971 0.774477447744744  5.61359867330014 0.774477447744744  L 0.514096185737966 0.774477447744744  C 0.232172470978433 0.774477447744744  0 1.02090209020901  0 1.32013201320132  L 0 7.04070407040706  C 0 7.33993399339931  0.232172470978433 7.58635863586358  0.514096185737966 7.58635863586358  L 5.61359867330014 7.58635863586358  C 5.89552238805971 7.58635863586358  6.12769485903811 7.34873487348733  6.12769485903811 7.04070407040706  L 6.12769485903811 1.32013201320132  Z M 6.12769485903811 10.050605060506  C 6.12769485903811 9.76017601760174  5.89552238805971 9.51375137513753  5.61359867330014 9.51375137513753  L 0.514096185737966 9.51375137513753  C 0.232172470978433 9.51375137513753  0 9.76017601760174  0 10.050605060506  L 0 15.4631463146315  C 0 15.7623762376238  0.232172470978433 16  0.514096185737966 16  L 5.61359867330014 16  C 5.89552238805971 16  6.12769485903811 15.7535753575358  6.12769485903811 15.4631463146315  L 6.12769485903811 10.050605060506  Z M 14.2703150912106 10.050605060506  C 14.2786069651741 9.76017601760174  14.0464344941957 9.51375137513753  13.7645107794361 9.51375137513753  L 8.66500829187394 9.51375137513753  C 8.38308457711444 9.51375137513753  8.15920398009946 9.76017601760174  8.15920398009946 10.050605060506  L 8.15920398009946 15.4631463146315  C 8.15920398009946 15.7623762376238  8.39137645107792 16  8.66500829187394 16  L 13.7645107794361 16  C 14.0464344941957 16  14.2703150912106 15.7623762376238  14.2703150912106 15.4631463146315  L 14.2703150912106 10.050605060506  Z M 11.1774461028192 8.11441144114417  L 7.36318407960199 4.05720572057203  L 11.1857379767827 0  L 15 4.05720572057203  L 11.1774461028192 8.11441144114417  Z " fill-rule="nonzero" fill="#cccccc" stroke="none" transform="matrix(1 0 0 1 12 293 )" />
  </g>
</svg>