<?xml version="1.0" encoding="utf-8"?>
<svg version="1.1" xmlns:xlink="http://www.w3.org/1999/xlink" width="15px" height="16px" xmlns="http://www.w3.org/2000/svg">
  <g transform="matrix(1 0 0 1 -12 -451 )">
    <path d="M 7.49993967285156 1.59986582764749  C 9.5709013787204 1.59986582764749  11.249989942627 3.03240057721987  11.249989942627 4.7996892954424  L 13.1249447442627 4.7996892954424  C 13.1249447442627 2.14901359310854  10.6066134316059 0  7.49993967285156 0  C 4.39326591409725 0  1.87503519226071 2.14901359310854  1.87503519226071 4.7996892954424  L 3.74994971313478 4.7996892954424  C 3.74994973022463 3.03240057721987  5.42905840887724 1.59986582764749  7.49993967285156 1.59986582764749  Z M 13.7499631229655 5.86664031074899  L 13.7499631229655 6  L 1.25001674519854 6  C 0.559649264954518 5.86664031074899  0 6.34429287310631  0 6.93303981043066  L 0 14.9330306049178  C 0 15.5223474328669  0.559649264954518 15.9999999952242  1.25001674519854 16  L 13.7499631229655 16  C 14.4402502467642 16.0000551514744  15 15.5223474328669  15 14.9330306049178  L 15 6.93303977918065  C 14.9999798681641 6.34429284185642  14.4402502467642 5.86664031074899  13.7499631229655 5.86664031074899  Z M 13.9545759939927 14.9578489642853  C 13.9545759939927 15.0791832142491  13.8459961160983 15.1784566985946  13.7132872416298 15  L 1.34596926225715 15  C 1.21326042196832 15.1784567142195  1.10468045862477 15.0791832454992  1.10468045862477 14.9578489799104  L 1.10468045862477 7.07029457601464  C 1.10468045862477 6.94896031042588  1.21326042196832 6.84968682608058  1.34596926225715 7  L 13.7132872416298 7  C 13.8459961160983 6.84968682608058  13.9545759939927 6.94896031042588  13.9545759939927 7.07029457601464  L 13.9545759939927 14.9578489642853  Z M 7.49993967285156 8.53345709120294  C 6.46414716098175 8.53345709120294  5.62498492248534 9.24945793473916  5.62498492248534 10.1333412782255  C 5.62498492248534 10.7237979030492  6.00465285693207 11.2344129341468  6.56251257598879 11.5111837465642  L 6.56251257598879 13.0335059179848  C 6.56251257598879 13.4932708553475  6.98235509294196 13.8666310739861  7.50004022949217 13.8666310739861  C 8.01754438459713 13.8666310739861  8.43756788299562 13.4932708397225  8.43756788299562 13.0335059179848  L 8.43756788299562 11.5111837465642  C 8.99538738964992 11.2344129341468  9.37499497985839 10.7237979342992  9.37499497985839 10.1333412782255  C 9.3749748651123 9.24954987223914  8.53583274136205 8.53354902870291  7.50004022949217 8.53354902870291  Z " fill-rule="nonzero" fill="#cccccc" stroke="none" transform="matrix(1 0 0 1 12 451 )" />
  </g>
</svg>