<?xml version="1.0" encoding="utf-8"?>
<svg version="1.1" xmlns:xlink="http://www.w3.org/1999/xlink" width="30px" height="33px" xmlns="http://www.w3.org/2000/svg">
  <g transform="matrix(1 0 0 1 -15 -8 )">
    <path d="M 30 4.59619060764578  C 30 2.0703262176533  28.1707903776514 0  25.8715120100031 0  L 4.18821307005071 0  C 1.888934735984 0  0 2.0703262176533  0 4.59619060764578  L 0 23.3825076811718  C 0 25.9083720711643  1.8889690563809 27.9355869294365  4.18821307005071 27.9355869294365  L 9.99958765151312 27.9355869294365  L 14.2961855760143 32.6586200370669  C 14.499690720165 32.8816136814374  14.7660824842583 33  15.0324742483517 33  C 15.2996220014618 33  15.5668384961106 32.8913155966022  15.7704811233384 32.6671516973813  C 16.1771134171313 32.2193523987499  16.1763574281146 31.4960104311074  15.7687629206891 31.0492681320968  L 11.1669759375466 25.9864406347466  C 10.97154639622 25.7722429374867  10.7067697392587 25.6327916995979  10.4306872652092 25.6327916995979  L 4.18821307005071 25.6327916627069  C 3.0385910632158 25.6327916627069  2.09621995954464 24.6454209879994  2 23.3825076811718  L 2 4.59619060764578  C 2.09621992596304 3.33327726392715  3.0385910632158 2.26504453190929  4.18821303646911 2.26504453190929  L 25.8715119764215 2.26504453190929  C 27.0211339832564 2.26504453190929  27.9037800068737 3.33323952448097  28 4.59619060764578  L 28 23.3825076811718  C 27.9037800068737 24.6454210248904  27.0211339496748 25.6327916627069  25.8715119764215 25.6327916627069  L 17.3232989515045 25.6327916627069  C 16.7475601220146 25.6327916627069  16.2808247200779 26.1517133640377  16.2808247200779 26.7841892960717  C 16.2808247200779 27.4166652281058  16.7475601220146 27.9355869294365  17.3232989515045 27.9355869294365  L 25.8715120100031 27.9355869294365  C 28.1707903440698 27.9355869294365  29.9999999664184 25.9083720711643  30 23.3825076811718  L 30 4.59619060764578  Z " fill-rule="nonzero" fill="#ffffff" stroke="none" transform="matrix(1 0 0 1 15 8 )" />
  </g>
</svg>