<?xml version="1.0" encoding="utf-8"?>
<svg version="1.1" xmlns:xlink="http://www.w3.org/1999/xlink" width="21px" height="14px" xmlns="http://www.w3.org/2000/svg">
  <g transform="matrix(1 0 0 1 -20 -16 )">
    <path d="M 0.594097553629396 3.49815697363789  C 0.342327542478834 5.34533011059844  0.318888690068295 8.27872827543452  2.04000713001966 10.6141553898289  C 3.69562472776659 12.8608159105058  6.52341020932447 14  10.4447324970799 14  C 14.3443089549411 14  17.1765339283854 12.8595746494759  18.8626257843648 10.6104316802517  C 20.6089889330962 8.28094740168332  20.651201441559 5.34826389003661  20.4348718120399 3.46772806780593  C 20.784799076669 3.09945944654792  21 2.60191505116479  21 2.05381880251696  C 21 0.91948676820547  20.0802417030024 0  18.9456587058146 0  C 17.8110757086267 0  16.8913174116291 0.919524369923963  16.8913174116291 2.05381880251696  C 16.8913174116291 2.92087304343172  17.4290187745332 3.6618862504328  18.1890317626903 3.96320378057056  C 18.331696437995 5.45752959539713  18.2563384980299 7.62125347951435  17.0297307617663 9.2503465734011  C 15.7968024546781 10.8877521465056  13.5812861816577 11.7179456763966  10.4447701083642 11.7179456763966  C 7.29425844599574 11.7179456763966  5.08686867370096 10.8939958695922  3.88396314236992 9.26900261273659  C 2.6623968256055 7.6188462344041  2.65825833429112 5.41562874708561  2.83956137983823 3.95195748515832  C 3.58445007273222 3.64360633855125  4.10868258837088 2.91004051394824  4.10868258837088 2.05385640423545  C 4.10868258837088 0.919524369923966  3.18892429137328 3.76017184962052E-05  2.05434129418544 3.76017184962052E-05  C 0.9197582969976 3.76017184962052E-05  0 0.919561971642459  0 2.05385640423545  C 0 2.61703546302821  0.22690156227695 3.12710497981571  0.594097553629396 3.49815697363789  Z " fill-rule="nonzero" fill="#ffffff" stroke="none" transform="matrix(1 0 0 1 20 16 )" />
  </g>
</svg>