<?xml version="1.0" encoding="utf-8"?>
<svg version="1.1" xmlns:xlink="http://www.w3.org/1999/xlink" width="60px" height="66px" xmlns="http://www.w3.org/2000/svg">
  <g transform="matrix(1 0 0 1 -145 -32 )">
    <path d="M 60 9.19238121529156  C 60 4.14065243530659  56.3415807553029 0  51.7430240200063 0  L 8.37642614010144 0  C 3.77786947196802 0  0 4.14065243530659  0 9.19238121529156  L 0 46.7650153623435  C 0 51.8167441423285  3.77793811276177 55.8711738588731  8.37642614010144 55  L 19.9991753030262 55  L 28.5923711520286 65.3172400741338  C 28.99938144033 65.7632273628748  29.5321649685167 66  30.0649484967034 66  C 30.5992440029237 66  31.1336769922211 65.7826311932045  31.5409622466768 65.3343033947626  C 32.3542268342627 64.4387047974998  32.3527148562292 62.9920208622147  31.5375258413783 62.0985362641937  L 22.3339518750932 51.9728812694933  C 21.9430927924399 51.5444858749734  21.4135394785175 51.2655833991958  20.8613745304184 51  L 8.37642614010144 51  C 6.07718212643158 51.2655833254139  4.19243991908928 49.2908419759989  5 46.7650153623435  L 5 9.19238121529156  C 4.19243985192611 6.66655452785432  6.07718212643158 4.53008906381859  8.37642607293822 5  L 51.743023952843 5  C 54.0422679665128 4.53008906381859  55.8075600137475 6.66647904896195  55 9.19238121529156  L 55 46.7650153623435  C 55.8075600137475 49.2908420497808  54.0422678993497 51.2655833254139  51.743023952843 51  L 34.646597903009 51  C 33.4951202440292 51.2655833254139  32.5616494401557 52.3034267280754  32.5616494401557 53.5683785921435  C 32.5616494401557 54.8333304562116  33.4951202440292 55.8711738588731  34.646597903009 55  L 51.7430240200063 55  C 56.3415806881396 55.8711738588731  59.9999999328368 51.8167441423285  60 46.7650153623435  L 60 9.19238121529156  Z " fill-rule="nonzero" fill="#1abc9c" stroke="none" transform="matrix(1 0 0 1 145 32 )" />
  </g>
</svg>