<?xml version="1.0" encoding="utf-8"?>
<svg version="1.1" xmlns:xlink="http://www.w3.org/1999/xlink" width="42px" height="28px" xmlns="http://www.w3.org/2000/svg">
  <g transform="matrix(1 0 0 1 -155 -48 )">
    <path d="M 1.18819510725882 6.99631394727578  C 0.684655084957683 10.6906602211969  0.637777380136583 16.557456550869  4.08001426003932 21.2283107796579  C 7.39124945553317 25.7216318210117  13.046820418649 28  20.8894649941598 28  C 28.6886179098823 28  34.3530678567708 25.7191492989518  37.7252515687296 21.2208633605035  C 41.2179778661924 16.5618948033666  41.3024028831179 10.6965277800732  40.8697436240798 6.93545613561186  C 41.5695981533379 6.19891889309584  42 5.20383010232958  42 4.10763760503392  C 42 1.83897353641095  40.1604834060048 0  37.8913174116291 0  C 35.6221514172535 0  33.7826348232583 1.83904873984793  33.7826348232583 4.10763760503392  C 33.7826348232583 5.84174608686342  34.8580375490664 7.3237725008656  36.3780635253805 7.9264075611411  C 36.66339287599 10.9150591907943  36.5126769960598 15.2425069590287  34.0594615235326 18.5006931468022  C 31.5936049093561 21.7755042930112  27.1625723633155 23.4358913527933  20.8895402167285 23.4358913527933  C 14.5885168919915 23.4358913527933  10.1737373474019 21.7879917391844  7.76792628473981 18.5380052254732  C 5.324793651211 15.2376924688082  5.31651666858227 10.8312574941712  5.67912275967649 7.90391497031665  C 7.16890014546448 7.2872126771025  8.21736517674174 5.82008102789646  8.21736517674174 4.10771280847091  C 8.21736517674174 1.83904873984794  6.37784858274654 7.52034369924104E-05  4.10868258837087 7.52034369924104E-05  C 1.8395165939952 7.52034369924104E-05  0 1.83912394328492  0 4.10771280847091  C 0 5.23407092605643  0.453803124553929 6.25420995963141  1.18819510725882 6.99631394727578  Z " fill-rule="nonzero" fill="#1abc9c" stroke="none" transform="matrix(1 0 0 1 155 48 )" />
  </g>
</svg>