<?xml version="1.0" encoding="utf-8"?>
<svg version="1.1" xmlns:xlink="http://www.w3.org/1999/xlink" width="14px" height="11px" xmlns="http://www.w3.org/2000/svg">
  <g transform="matrix(1 0 0 1 -10 -7 )">
    <path d="M 13.7470967741936 1.51851851851852  C 13.9156989247312 1.69135802469135  14 1.90123456790123  14 2.14814814814815  C 14 2.39506172839506  13.9156989247312 2.60493827160494  13.7470967741936 2.77777777777778  L 7.20774193548387 9.48148148148148  L 5.97935483870967 10.7407407407407  C 5.81075268817204 10.9135802469136  5.60602150537634 11  5.36516129032259 11  C 5.12430107526882 11  4.91956989247311 10.9135802469136  4.75096774193548 10.7407407407407  L 3.52258064516129 9.48148148148148  L 0.252903225806449 6.12962962962963  C 0.0843010752688169 5.95679012345679  0 5.74691358024691  0 5.5  C 0 5.25308641975308  0.0843010752688169 5.04320987654321  0.252903225806449 4.87037037037037  L 1.48129032258064 3.61111111111112  C 1.64989247311827 3.43827160493827  1.85462365591398 3.35185185185185  2.09548387096775 3.35185185185185  C 2.3363440860215 3.35185185185185  2.5410752688172 3.43827160493827  2.70967741935484 3.61111111111112  L 5.36516129032259 6.3425925925926  L 11.2903225806452 0.259259259259258  C 11.4589247311828 0.0864197530864157  11.6636559139785 0  11.9045161290323 0  C 12.145376344086 0  12.3501075268817 0.0864197530864157  12.5187096774194 0.259259259259258  L 13.7470967741936 1.51851851851852  Z " fill-rule="nonzero" fill="#ffffff" stroke="none" transform="matrix(1 0 0 1 10 7 )" />
  </g>
</svg>