<?xml version="1.0" encoding="utf-8"?>
<svg version="1.1" xmlns:xlink="http://www.w3.org/1999/xlink" width="8px" height="8px" xmlns="http://www.w3.org/2000/svg">
  <g transform="matrix(1 0 0 1 -20 -3 )">
    <path d="M 7.81144781144782 5.97979797979798  C 7.93714927048261 6.10549943883277  8 6.25813692480359  8 6.43771043771044  C 8 6.61728395061729  7.93714927048261 6.76992143658811  7.81144781144782 6.89562289562289  L 6.89562289562289 7.81144781144781  C 6.76992143658811 7.93714927048261  6.61728395061729 8  6.43771043771044 8  C 6.25813692480359 8  6.10549943883277 7.93714927048261  5.97979797979798 7.81144781144781  L 4 5.83164983164983  L 2.02020202020202 7.81144781144781  C 1.89450056116723 7.93714927048261  1.74186307519641 8  1.56228956228956 8  C 1.38271604938272 8  1.23007856341189 7.93714927048261  1.10437710437711 7.81144781144781  L 0.188552188552194 6.89562289562289  C 0.0628507295173932 6.76992143658811  0 6.61728395061729  0 6.43771043771044  C 0 6.25813692480359  0.0628507295173932 6.10549943883277  0.188552188552194 5.97979797979798  L 2.16835016835017 4  L 0.188552188552194 2.02020202020202  C 0.0628507295173932 1.89450056116723  0 1.74186307519641  0 1.56228956228956  C 0 1.38271604938272  0.0628507295173932 1.23007856341189  0.188552188552194 1.10437710437711  L 1.10437710437711 0.188552188552194  C 1.23007856341189 0.0628507295173932  1.38271604938272 0  1.56228956228956 0  C 1.74186307519641 0  1.89450056116723 0.0628507295173932  2.02020202020202 0.188552188552194  L 4 2.16835016835017  L 5.97979797979798 0.188552188552194  C 6.10549943883277 0.0628507295173932  6.25813692480359 0  6.43771043771044 0  C 6.61728395061729 0  6.76992143658811 0.0628507295173932  6.89562289562289 0.188552188552194  L 7.81144781144782 1.10437710437711  C 7.93714927048261 1.23007856341189  8 1.38271604938272  8 1.56228956228956  C 8 1.74186307519641  7.93714927048261 1.89450056116723  7.81144781144782 2.02020202020202  L 5.83164983164983 4  L 7.81144781144782 5.97979797979798  Z " fill-rule="nonzero" fill="#ffffff" stroke="none" transform="matrix(1 0 0 1 20 3 )" />
  </g>
</svg>