<?xml version="1.0" encoding="utf-8"?>
<svg version="1.1" xmlns:xlink="http://www.w3.org/1999/xlink" width="11px" height="8px" xmlns="http://www.w3.org/2000/svg">
  <g transform="matrix(1 0 0 1 -6 -3 )">
    <path d="M 10.8012903225807 1.10437710437711  C 10.9337634408602 1.23007856341189  11 1.38271604938271  11 1.56228956228955  C 11 1.74186307519642  10.9337634408602 1.89450056116723  10.8012903225807 2.02020202020202  L 5.66322580645161 6.89562289562289  L 4.69806451612903 7.81144781144781  C 4.56559139784947 7.93714927048262  4.4047311827957 8  4.21548387096774 8  C 4.02623655913979 8  3.86537634408601 7.93714927048262  3.73290322580644 7.81144781144781  L 2.76774193548386 6.89562289562289  L 0.198709677419348 4.45791245791247  C 0.0662365591397775 4.33221099887766  0 4.17957351290684  0 4  C 0 3.82042648709316  0.0662365591397775 3.66778900112234  0.198709677419348 3.54208754208753  L 1.16387096774193 2.62626262626264  C 1.2963440860215 2.50056116722783  1.45720430107527 2.43771043771045  1.64645161290323 2.43771043771045  C 1.83569892473118 2.43771043771045  1.99655913978494 2.50056116722783  2.12903225806451 2.62626262626264  L 4.21548387096774 4.61279461279463  L 8.87096774193549 0.188552188552194  C 9.00344086021506 0.062850729517379  9.16430107526882 0  9.35354838709677 0  C 9.54279569892473 0  9.7036559139785 0.062850729517379  9.83612903225807 0.188552188552194  L 10.8012903225807 1.10437710437711  Z " fill-rule="nonzero" fill="#ffffff" stroke="none" transform="matrix(1 0 0 1 6 3 )" />
  </g>
</svg>