<?xml version="1.0" encoding="utf-8"?>
<svg version="1.1" xmlns:xlink="http://www.w3.org/1999/xlink" width="14px" height="11px" xmlns="http://www.w3.org/2000/svg">
  <g transform="matrix(1 0 0 1 -14 -423 )">
    <path d="M 13.9107137638035 6.34579135281789  C 13.952054749247 6.65967725388973  13.9707525393439 6.97683374611595  14 7.29253664227353  C 13.9778714227294 8.46686056622558  13.7104415625366 9.56914063502551  13.2075739325461 10.6102788191885  C 13.0817498129494 10.8708359144921  12.9247912997509 11.1064093273658  12.6132758243756 10.9495118017072  C 12.2978149437505 10.790615581454  12.3720057163826 10.5266061954874  12.5052060284029 10.2582360213149  C 14.4074917465606 6.42519403806742  12.271226343154 1.71118198747019  8.01996641681809 0.891717203774765  C 4.5150742401286 0.216158430874658  1.11919532588458 2.94464910146492  0.779633165363999 6.71963809172107  C 0.776888535624988 6.749709360391  0.774830063320738 6.78005317832393  0.774658523962071 6.81030614650255  C 0.772943130375187 7.09866326661885  0.695064261531386 7.33914256622425  0.373342194314203 7.32933079276101  C 0.0122518442784223 7.31833797249184  -0.0300326076378852 7.03388739181012  0.0143960862620052 6.74444007464221  C 0.0988792204152543 6.19398141339938  0.15874645659696 5.63089463631033  0.317420363382301 5.10305756388564  C 1.29210699944091 1.85990303524285  4.21024879974209 -0.229641313426215  7.39041697043741 0.0201955108711332  C 10.8919641296325 0.29528856686119  13.4477290347077 2.83553854656266  13.9107137638035 6.34579135281789  Z " fill-rule="nonzero" fill="#ffffff" stroke="none" transform="matrix(1 0 0 1 14 423 )" />
  </g>
</svg>