<?xml version="1.0" encoding="utf-8"?>
<svg version="1.1" xmlns:xlink="http://www.w3.org/1999/xlink" width="16px" height="9px" xmlns="http://www.w3.org/2000/svg">
  <g transform="matrix(1 0 0 1 -12 -430 )">
    <path d="M 8.14630585797816 4.71835345608329  C 8.56671357983203 4.76729176084254  8.9884183226295 4.80267485287837  9.504027381744 4.85360657127351  C 9.31708342973905 4.51542394795715  9.17977214584272 4.28807512279209  9.06122443159721 4.04836713308506  C 8.78357548160283 3.48692218255726  8.72719830458746 2.90693848521609  9.06961183369918 2.36183952650193  C 9.39014894289548 1.85152563573264  9.86944141558905 1.77099172484567  10.352106142736 1.93913616502682  C 10.7744161619738 2.08634976203196  11.1918839696888 2.29007663561255  11.5745051480524 2.54324016736122  C 12.779956413039 3.34050595100646  14.0356456225746 3.985474932875  15.3927618699001 4.34827621459377  C 15.8021016797019 4.45781429388202  16.0062527762254 4.72114423517346  15.9998541395702 5.22228842321792  C 15.9874027385116 6.20195155454028  16.000978224388 7.1821130392717  15.9943201835442 8.16197551195762  C 15.9905155887762 8.73079609293808  15.7739130911942 8.98266390582364  15.2786240268629 8.98346127127792  C 12.4832844892051 8.98784678127669  9.68690733479236 9.03279825876433  6.89321069032976 8.95286237196802  C 6.17241291793692 8.93223054083745  5.43276510783036 8.58856603002255  4.74923507055045 8.26134718170311  C 2.76418775039421 7.31158525491792  1.23889112071455 5.75443019329928  0.28540779103896 3.50187278482579  C -0.0319299998297673 2.75214991639492  -0.0704082878233941 1.96674494388289  0.0997608599776144 1.1718712566007  C 0.322675526151864 0.130910655976948  1.06993252579426 -0.299567018677751  1.88523989094443 0.221710647088516  C 2.39099159088756 0.54504233881801  2.81260986562214 1.04598718549898  3.26302200530474 1.47945498060734  C 3.38269380436805 1.59467428875764  3.48585020341611 1.74388129939861  3.56860013961812 1.89747382003823  C 4.62359697514655 3.85610238791051  6.28525374003055 4.5023670886425  8.14630585797816 4.71835345608329  Z M 7.87540141689048 8.10336915106455  C 8.88387843457495 8.08343501470642  9.89296072869975 8.09998034788372  10.9016971505729 8.09998034788372  C 12.1987180941781 8.09998034788372  13.4958255058461 8.09051163311357  14.7926735133254 8.10685762492721  C 15.0985975198905 8.11064511083532  15.2383299095482 8.03698847699189  15.2238032749798 7.64328928391796  C 15.1987275367368 6.96343556342252  15.204088556637 6.28099040520042  15.222679190162 5.60063833129605  C 15.2307207200124 5.30780586819444  15.1293801502854 5.19497865640725  14.8992021668269 5.12381378960848  C 13.5566990221327 4.70878507063131  12.2949570481936 4.07507887580496  11.1012654397623 3.25269608034861  C 10.8324362321844 3.06750795358115  10.5348131596585 2.9203940272579  10.2342501729937 2.82102235751247  C 10.0768782985029 2.76889459093583  9.76905199455398 2.79909480751845  9.7317842594411 2.89587503953733  C 9.65716232115235 3.08963484493883  9.66900844577058 3.37957685826839  9.74155515054957 3.58430043866681  C 9.84289572027658 3.87045496608843  10.0473926890516 4.10537876306952  10.180985846243 4.3795728086761  C 10.4888121501919 5.01078723645773  10.1482144504013 5.70260143876804  9.51907282468985 5.72712042648855  C 9.27514641922913 5.73668881194053  9.02957712057326 5.70997706922063  8.78530484286093 5.69103963968028  C 6.36662018722607 5.50345941654982  4.17335777158975 4.80028275651532  2.79427863628584 2.22170254790394  C 2.70530299955454 2.05525250931323  2.57447682037624 1.91122837412548  2.44339123700919 1.78355023075137  C 2.18026892158318 1.52729690786698  1.92129707317668 1.25549495862328  1.6281703399219 1.0522664384518  C 1.19781879083371 0.753952087851706  0.904778525641879 0.88232792599826  0.85998806905602 1.44576629016212  C 0.818137526609047 1.97272518479038  0.818051058546129 2.56576574144602  0.989084886976188 3.03860345586187  C 1.22868788929153 3.70081546568033  1.57966175663109 4.34468807004927  1.99540020308797 4.88041798467529  C 3.55640814274824 6.89256970866926  5.44945344397142 8.15131074900602  7.87540141689048 8.10336915106455  Z " fill-rule="nonzero" fill="#ffffff" stroke="none" transform="matrix(1 0 0 1 12 430 )" />
  </g>
</svg>