<?xml version="1.0" encoding="utf-8"?>
<svg version="1.1" xmlns:xlink="http://www.w3.org/1999/xlink" width="14px" height="16px" xmlns="http://www.w3.org/2000/svg">
  <g transform="matrix(1 0 0 1 -12 -301 )">
    <path d="M 2.5240780816625 10.1121270315014  L 1.68110184562043 10.5571542325236  L 0.100796525834026 6.41677027327464  C -0.0378653615566936 6.03465267658542  -0.0334633968776263 5.61525531436545  0.114002419871228 5.23080773233054  C 0.254865289601496 4.86267004771524  0.507978258648087 4.57142187950698  0.829321680220226 4.40599291996464  L 9.21286341151054 0.137459766704068  C 9.89296695442694 -0.209708049800212  10.6721147026225 0.12347985463009  10.949438477404 0.880725091971553  L 12.5451506735671 5.24944761509588  L 11.6955714905065 5.68282488938983  L 10.0998592943433 1.31643235161118  C 10.0250258947991 1.1160536118839  9.78952078446879 1.03683411013122  9.5804274622129 1.14168345068623  L 1.19688573092265 5.41021660394686  C 1.08683661394588 5.46613625224283  1.00319928504355 5.56166565141511  0.956978655913296 5.68049490404415  C 0.934968832517929 5.73874453768574  0.904155079764429 5.8552438049691  0.948174726555164 5.97640304294371  L 2.5240780816625 10.1121270315014  Z M 14 14.359690316651  C 14 15.2637246307695  13.3771219979114 16  12.6111801437532 16  L 3.02810303741609 16  C 2.26216118325778 16  1.63928318116925 15.2637246307695  1.63928318116925 14.3620203019967  L 1.63928318116925 6.73131829493966  C 1.63928318116925 5.82728398082109  2.26216118325778 5.09333859693622  3.02810303741609 5.09333859693622  L 12.6111801437532 5.09333859693622  C 13.3771219979114 5.09333859693622  14 5.82961396616671  14 6.73131829493966  L 14 14.359690316651  Z M 12.6111801437532 6.18610172405366  L 3.02810303741609 6.18610172405366  C 2.77278908602999 6.18610172405366  2.56589674611365 6.43075018534862  2.56589674611365 6.73131829493966  L 2.56589674611365 14.359690316651  C 2.56589674611365 14.6602584262419  2.77278908602999 14.9049068875369  3.02810303741609 14.9049068875369  L 12.6111801437532 14.9049068875369  C 12.8664940951392 14.9049068875369  13.0733864350556 14.6602584262419  13.0733864350556 14.359690316651  L 13.0733864350556 6.73131829493966  C 13.0733864350556 6.43075018534862  12.8642931127997 6.18610172405366  12.6111801437532 6.18610172405366  Z M 5.40516396411432 11.2328499827668  C 5.354541370305 11.2631397922605  5.30171779415613 11.2771197043345  5.2488942180073 11.2771197043345  C 5.12123724231423 11.2771197043345  5.00018321363981 11.1955702172362  4.93855570813281 11.0511111258048  C 4.85051641455137 10.8484024007319  4.92094784941651 10.6037539394369  5.09262447190028 10.5012345842276  L 9.06539759476165 8.13163948768502  C 9.23487323490584 8.0291201324757  9.44396655716173 8.11066961957405  9.53200585074313 8.31337834464696  C 9.61784416198502 8.51608706971999  9.54961370945946 8.76073553101488  9.37793708697569 8.86325488622427  L 5.40516396411432 11.2328499827668  Z M 6.87982213160302 13.3857564421624  C 6.82699855545415 13.4207062223475  6.76977301462625 13.4393461051128  6.70814550911925 13.4393461051128  C 6.58709148044483 13.4393461051128  6.46823843410993 13.3647865740514  6.40440994626334 13.2319774093485  C 6.30976770566332 13.0362586403126  6.36919422883081 12.7869502083262  6.53426790429596 12.6727809263886  L 10.5950803207388 9.95601801334171  C 10.7579530138643 9.84417871674977  10.9736492831388 9.91174829177404  11.0682915237389 10.1121270315014  C 11.1629337643389 10.3078458005374  11.1035072411714 10.5571542325236  10.9362325833667 10.6713235144612  L 6.87982213160302 13.3857564421624  Z " fill-rule="nonzero" fill="#ffffff" stroke="none" transform="matrix(1 0 0 1 12 301 )" />
  </g>
</svg>