<?xml version="1.0" encoding="utf-8"?>
<svg version="1.1" xmlns:xlink="http://www.w3.org/1999/xlink" width="16px" height="16px" xmlns="http://www.w3.org/2000/svg">
  <g transform="matrix(1 0 0 1 -12 -462 )">
    <path d="M 14.0000232869402 9.99996106058586  C 15.1030581395606 9.99996106058586  16 9.102527660411  16 7.99999132100197  C 16 6.89696031441974  15.1030563537523 5.99998407957463  14.0000232869402 5.99998407957463  L 13.653326178671 5.99998407957463  C 13.5830135486418 5.80027604839091  13.5024610938448 5.60497537671375  13.412636722376 5.41600180176721  L 13.6567638596403 5.17138263434902  C 14.0332318922789 4.7949337723918  14.240767817563 4.29247335903642  14.240767817563 3.7573345536195  C 14.240767817563 3.22168322300882  14.0332318922789 2.71973354904515  13.6567638596403 2.3432668290672  C 13.2803136850847 1.96628758389539  12.777851519755 1.75924704941633  12.2426912045298 1.75924704941633  C 11.7074773150558 1.75924704941633  11.205050865892 1.96628758389539  10.8286560513936 2.3432668290672  L 10.5845289141293 2.58741097313487  C 10.3950421532905 2.49753155499974  10.2001979675644 2.41697938107126  10.000014215034 2.34666699620664  L 10.000014215034 1.99998938340661  C 10.000014215034 0.896978020647282  9.10301699453752 0  7.99999999999998 0  C 6.89702050743673 0  6.00002328694016 0.896976234845113  6.00002328694016 1.99998938340661  L 6.00002328694016 2.34666699620664  C 5.79980203243554 2.41697938107126  5.6049578467095 2.49753155499974  5.4154889439537 2.58741097313487  L 5.17134394860643 2.3432668290672  C 4.79494913410797 1.96628758389539  4.29250482686123 1.75924704941633  3.7572909373872 1.75924704941633  C 3.22215026605329 1.75924704941633  2.71975953305542 1.96628758389539  2.34321828227672 2.3432668290672  C 1.96684132586122 2.71971569102442  1.75923396824533 3.22168322300882  1.75923396824533 3.7573345536195  C 1.75923396824533 4.29249300285915  1.96684311166952 4.79493555819391  2.34321828227672 5.17138263434902  L 2.58736327762396 5.41550892039606  C 2.49755676423824 5.60497716251575  2.4169864513582 5.79980281084261  2.346673821329 5.99998586537663  L 1.99997671305983 5.99998586537663  C 0.896997220496539 5.99998586537663  0 6.89696210022174  0 7.99999310680408  C 0 9.10252944621317  0.896997220496539 9.99996284638797  1.99997671305983 9.99996284638797  L 2.346673821329 9.99996284638797  C 2.4169864513582 10.2001834027654  2.49755676423824 10.3950090510923  2.58736327762396 10.5844397913685  L 2.34321828227672 10.8285839354363  C 1.96684132586122 11.2050506554141  1.75923396824533 11.7070360454192  1.75923396824533 12.2426695180093  C 1.75923396824533 12.7783387066407  1.96684311166952 13.2802705225836  2.34321828227672 13.6567175987389  C 2.71975953305542 14.0331289588526  3.22214848024499 14.2407373783897  3.7572909373872 14.2407373783897  C 4.29252447075249 14.2407373783897  4.79495091991627 14.0331289588526  5.17134394860643 13.6567175987389  L 5.4154889439537 13.4125913126917  C 5.6049578467095 13.5024332289834  5.79980203243554 13.5824550196975  6.00002328694016 13.6532977877765  L 6.00002328694016 14.0000302604161  C 6.00002328694016 15.102511239961  6.89702050743673 16  7.99999999999998 16  C 9.10301520872922 16  10.000014215034 15.102511239961  10.000014215034 14.0000302604161  L 10.000014215034 13.6532977877765  C 10.2001979675644 13.5824550196975  10.3950421532905 13.5024332289834  10.5845289141293 13.4121341473621  L 10.8286560513936 13.6566997407181  C 11.205050865892 14.0331111008319  11.7074951731387 14.2407195203689  12.2426912045298 14.2407195203689  C 12.777851519755 14.2407195203689  13.2803136850847 14.0331111008319  13.6567638596403 13.6566997407181  C 14.0332318922789 13.2802508787609  14.240767817563 12.77832084862  14.240767817563 12.2426516599886  C 14.240767817563 11.7070181873985  14.0332318922789 11.2050327973935  13.6567638596403 10.8285660774156  L 13.412636722376 10.5839469099974  C 13.5024610938448 10.3945161697212  13.5830135486418 10.1996530195509  13.653326178671 9.99994498836725  L 14.0000224297522 9.99994498836725  Z M 12.1801703418244 10.7656040538672  L 12.9496912087444 11.5355972609887  C 13.1376957486976 11.7231082640407  13.2407243867052 11.9741098880535  13.2407243867052 12.2426677322072  C 13.2407243867052 12.5107309091877  13.1376975345059 12.7617521770234  12.9496912087444 12.9496828435616  C 12.5737714192526 13.3251977310368  11.9116115612658 13.3251977310368  11.535673913691 12.9496828435616  L 10.7656583778732 12.179194969267  L 10.4355660008674 12.3642558518803  C 10.102566327956 12.5502864250172  9.74220807195351 12.6991937447425  9.36376493533984 12.8065900953729  L 9.00000650034221 12.9096719482046  L 9.00000650034221 14.0000295460953  C 9.00000650034221 14.5512619997584  8.5512703775906 14.9999590560232  7.99998064183805 14.9999590560232  C 7.44869090608557 14.9999590560232  6.99995478333396 14.5512602139564  6.99995478333396 14.0000295460953  L 6.99995478333396 12.9096719482046  L 6.63623206450224 12.8065900953729  C 6.25731390288187 12.6986990775694  5.8964449057068 12.5502667811943  5.56446850094893 12.3642558518803  L 5.23435826586012 12.1796699926174  L 4.46430701387635 12.9496649855409  C 4.08833365013573 13.3251798730161  3.42622736639777 13.3251798730161  3.05025400265712 12.9496649855409  C 2.86226732078681 12.7617343190026  2.75927618475344 12.5107130511671  2.75927618475344 12.2426498741864  C 2.75927618475344 11.9740920300328  2.86226732078681 11.7230904060199  3.05025400265712 11.5355794029679  L 3.82025168039202 10.7656040538672  L 3.63526337065028 10.4354949697996  C 3.44968931578753 10.1035018645493  3.30122078569421 9.74314486503619  3.19334724978019 9.36327797791881  L 3.09024717944079 8.99996011857525  L 1.99994063973224 8.99996011857525  C 1.44867054787098 8.99996011857525  0.99997014128528 8.55122556046717  0.99997014128528 7.99997524878336  C 0.99997014128528 7.44868922105809  1.44865268978802 6.9999528771479  1.99994063973224 6.9999528771479  L 3.09024717944079 6.9999528771479  L 3.19334724978019 6.63617785247465  C 3.30122078569421 6.25678598870763  3.44968931578753 5.89595396584429  3.63526337065028 5.56441802592354  L 3.82025168039202 5.2343446578974  L 3.05025400265712 4.46433180695323  C 2.86226732078681 4.27632792253007  2.75927618475344 4.02536201455871  2.75927618475344 3.75729883757816  C 2.75927618475344 3.4887231354038  2.86226732078681 3.23773936941154  3.05025400265712 3.05026586820298  C 3.42624701028902 2.67475098072782  4.08835150821865 2.67475098072782  4.46430701387635 3.05026586820298  L 5.23435826586012 3.82026086112654  L 5.56446850094893 3.63523748035664  C 5.8964449057068 3.44968371637231  6.25733176096485 3.30073889480337  6.63623206450224 3.19332290035021  L 6.99995478333396 3.09027854936204  L 6.99995478333396 1.99993923808449  C 6.99995478333396 1.44821390305032  7.44869090608557 0.999954368292663  7.99998064183805 0.999954368292663  C 8.5512703775906 0.999954368292663  9.00000650034221 1.44821390305032  9.00000650034221 1.99993923808449  L 9.00000650034221 3.09027854936204  L 9.36376493533984 3.19332290035021  C 9.74220807195351 3.3007567528241  10.1025645421477 3.44918904919916  10.4355660008674 3.63569464568633  L 10.7656583778732 3.82026086112654  L 11.535673913691 3.05026586820298  C 11.9116294193487 2.67475098072782  12.5737910631438 2.67475098072782  12.9496912087444 3.05026586820298  C 13.1376957486976 3.23773936941154  13.2407243867052 3.4887231354038  13.2407243867052 3.75729883757816  C 13.2407243867052 4.02536201455871  13.1376975345059 4.27632792253007  12.9496912087444 4.46433180695323  L 12.1801703418244 5.2343446578974  L 12.3642443177187 5.56441802592354  C 12.550823782652 5.89789334689124  12.6996762615289 6.25876108579604  12.8065997474296 6.63617785247465  L 12.909699817769 6.9999528771479  L 14.0000063574775 6.9999528771479  C 14.5512764493388 6.9999528771479  15.0000125720904 7.44868743525598  15.0000125720904 7.99997524878336  C 15.0000125720904 8.55122556046717  14.5512764493388 8.99996011857525  14.0000063574775 8.99996011857525  L 12.909699817769 8.99996011857525  L 12.8065997474296 9.36327797791881  C 12.699658403446 9.74117155374995  12.550823782652 10.1015642693044  12.3642443177187 10.4354949697996  L 12.1801703418244 10.7656040538672  Z M 10.999983213402 7.99998953519992  C 10.999983213402 6.34567250089248  9.65430344440276 4.99997956595985  7.99998064183805 4.99997956595985  C 6.34565783927341 4.99997956595985  4.99997807027413 6.34567250089248  4.99997807027413 7.99998953519992  C 4.99997807027413 9.65426906766385  6.34565783927341 10.9999816464193  7.99998064183805 10.9999816464193  C 9.65430344440276 10.9999816464193  10.999983213402 9.65426906766385  10.999983213402 7.99998953519992  Z M 9.99999485687209 7.99999132100197  C 9.99999485687209 9.102525874609  9.10301549445851 9.99996106058586  7.99998064183805 9.99996106058586  C 6.8970011492748 9.99996106058586  6.00000392877822 9.102527660411  6.00000392877822 7.99999132100197  C 6.00000392877822 6.89696031441974  6.8970011492748 5.99998407957463  7.99998064183805 5.99998407957463  C 9.10299585056729 5.99998407957463  9.99999485687209 6.89696031441974  9.99999485687209 7.99999132100197  Z " fill-rule="nonzero" fill="#ffffff" stroke="none" transform="matrix(1 0 0 1 12 462 )" />
  </g>
</svg>