<?xml version="1.0" encoding="utf-8"?>
<svg version="1.1" xmlns:xlink="http://www.w3.org/1999/xlink" width="12px" height="12px" viewBox="136 443  12 12" xmlns="http://www.w3.org/2000/svg">
  <path d="M 142 443  C 145.36 443  148 445.64  148 449  C 148 452.36  145.36 455  142 455  C 138.64 455  136 452.36  136 449  C 136 445.64  138.64 443  142 443  Z " fill-rule="nonzero" fill="#ffffff" stroke="none" />
  <path d="M 142 443.5  C 145.08 443.5  147.5 445.92  147.5 449  C 147.5 452.08  145.08 454.5  142 454.5  C 138.92 454.5  136.5 452.08  136.5 449  C 136.5 445.92  138.92 443.5  142 443.5  Z " stroke-width="1" stroke="#797979" fill="none" />
  <path d="M 142 452  C 140.32 452  139 450.68  139 449  C 139 447.32  140.32 446  142 446  C 143.68 446  145 447.32  145 449  C 145 450.68  143.68 452  142 452  " fill-rule="nonzero" fill="#797979" stroke="none" />
</svg>