<?xml version="1.0" encoding="utf-8"?>
<svg version="1.1" xmlns:xlink="http://www.w3.org/1999/xlink" width="12px" height="12px" viewBox="712 1031  12 12" xmlns="http://www.w3.org/2000/svg">
  <path d="M 718 1031  C 721.36 1031  724 1033.64  724 1037  C 724 1040.36  721.36 1043  718 1043  C 714.64 1043  712 1040.36  712 1037  C 712 1033.64  714.64 1031  718 1031  Z " fill-rule="nonzero" fill="#ffffff" stroke="none" />
  <path d="M 718 1031.5  C 721.08 1031.5  723.5 1033.92  723.5 1037  C 723.5 1040.08  721.08 1042.5  718 1042.5  C 714.92 1042.5  712.5 1040.08  712.5 1037  C 712.5 1033.92  714.92 1031.5  718 1031.5  Z " stroke-width="1" stroke="#797979" fill="none" />
  <path d="M 718 1040  C 716.32 1040  715 1038.68  715 1037  C 715 1035.32  716.32 1034  718 1034  C 719.68 1034  721 1035.32  721 1037  C 721 1038.68  719.68 1040  718 1040  " fill-rule="nonzero" fill="#797979" stroke="none" />
</svg>