<?xml version="1.0" encoding="utf-8"?>
<svg version="1.1" xmlns:xlink="http://www.w3.org/1999/xlink" width="12px" height="12px" viewBox="892 1031  12 12" xmlns="http://www.w3.org/2000/svg">
  <path d="M 898 1031  C 901.36 1031  904 1033.64  904 1037  C 904 1040.36  901.36 1043  898 1043  C 894.64 1043  892 1040.36  892 1037  C 892 1033.64  894.64 1031  898 1031  Z " fill-rule="nonzero" fill="#ffffff" stroke="none" />
  <path d="M 898 1031.5  C 901.08 1031.5  903.5 1033.92  903.5 1037  C 903.5 1040.08  901.08 1042.5  898 1042.5  C 894.92 1042.5  892.5 1040.08  892.5 1037  C 892.5 1033.92  894.92 1031.5  898 1031.5  Z " stroke-width="1" stroke="#797979" fill="none" />
  <path d="M 898 1040  C 896.32 1040  895 1038.68  895 1037  C 895 1035.32  896.32 1034  898 1034  C 899.68 1034  901 1035.32  901 1037  C 901 1038.68  899.68 1040  898 1040  " fill-rule="nonzero" fill="#797979" stroke="none" />
</svg>