<?xml version="1.0" encoding="utf-8"?>
<svg version="1.1" xmlns:xlink="http://www.w3.org/1999/xlink" width="12px" height="12px" viewBox="802 1031  12 12" xmlns="http://www.w3.org/2000/svg">
  <path d="M 808 1031  C 811.36 1031  814 1033.64  814 1037  C 814 1040.36  811.36 1043  808 1043  C 804.64 1043  802 1040.36  802 1037  C 802 1033.64  804.64 1031  808 1031  Z " fill-rule="nonzero" fill="#ffffff" stroke="none" />
  <path d="M 808 1031.5  C 811.08 1031.5  813.5 1033.92  813.5 1037  C 813.5 1040.08  811.08 1042.5  808 1042.5  C 804.92 1042.5  802.5 1040.08  802.5 1037  C 802.5 1033.92  804.92 1031.5  808 1031.5  Z " stroke-width="1" stroke="#797979" fill="none" />
  <path d="M 808 1040  C 806.32 1040  805 1038.68  805 1037  C 805 1035.32  806.32 1034  808 1034  C 809.68 1034  811 1035.32  811 1037  C 811 1038.68  809.68 1040  808 1040  " fill-rule="nonzero" fill="#797979" stroke="none" />
</svg>