<?xml version="1.0" encoding="utf-8"?>
<svg version="1.1" xmlns:xlink="http://www.w3.org/1999/xlink" width="135px" height="147px" xmlns="http://www.w3.org/2000/svg">
  <defs>
    <filter x="143px" y="-11px" width="135px" height="147px" filterUnits="userSpaceOnUse" id="filter22">
      <feOffset dx="0" dy="0" in="SourceAlpha" result="shadowOffsetInner" />
      <feGaussianBlur stdDeviation="5" in="shadowOffsetInner" result="shadowGaussian" />
      <feComposite in2="shadowGaussian" operator="atop" in="SourceAlpha" result="shadowComposite" />
      <feColorMatrix type="matrix" values="0 0 0 0 0  0 0 0 0 0  0 0 0 0 0  0 0 0 0.349019607843137 0  " in="shadowComposite" />
    </filter>
    <g id="widget23">
      <path d="M 115 17.6883699142732  C 115 7.96761908005965  107.988029780997 0  99.1741293716786 0  L 16.0548167685278 0  C 7.2409164879387 0  0 7.96761908005965  0 17.6883699142732  L 0 89.9872265305702  C 0 99.7079773647837  7.24104804946006 107.509683031468  16.0548167685278 107  L 38.3317526641336 107  L 54.8020447080549 125.686204385076  C 55.5821477606324 126.544392046744  56.6033161896569 127  57.6244846186816 127  C 58.6485510056037 127  59.6728809017571 126.581729720257  60.4535109727973 125.719038350528  C 62.0122680990035 123.995689534583  62.009370141106 121.211918931837  60.4469245293084 119.492637962918  L 42.8067410939286 100.008423048873  C 42.0575945188432 99.1840864563883  41.0426173338251 98.6474104802707  39.9843011833019 98  L 16.0548167685278 98  C 11.6479324089939 98.6474103382964  8.03550984492114 94.8475292568463  8 89.9872265305702  L 8 17.6883699142732  C 8.03550971619171 12.8280670460227  11.6479324089939 8.71698956219639  16.0548166397982 9  L 99.1741292429492 9  C 103.581013602483 8.71698956219639  106.964490026349 12.8279218063359  107 17.6883699142732  L 107 89.9872265305702  C 106.964490026349 94.8475293988207  103.581013473754 98.6474103382964  99.1741292429492 98  L 66.4059793141005 98  C 64.1989804677226 98.6474103382964  62.4098280936319 100.644472643418  62.4098280936319 103.078546684882  C 62.4098280936319 105.512620726347  64.1989804677226 107.509683031468  66.4059793141005 107  L 99.1741293716786 107  C 107.988029652268 107.509683031468  114.99999987127 99.7079773647837  115 89.9872265305702  L 115 17.6883699142732  Z " fill-rule="nonzero" fill="#ffffff" stroke="none" transform="matrix(1 0 0 1 153 -1 )" />
    </g>
  </defs>
  <g transform="matrix(1 0 0 1 -143 11 )">
    <use xlink:href="#widget23" filter="url(#filter22)" />
    <use xlink:href="#widget23" />
  </g>
</svg>