<?xml version="1.0" encoding="utf-8"?>
<svg version="1.1" xmlns:xlink="http://www.w3.org/1999/xlink" width="101px" height="74px" xmlns="http://www.w3.org/2000/svg">
  <defs>
    <filter x="162px" y="20px" width="101px" height="74px" filterUnits="userSpaceOnUse" id="filter24">
      <feOffset dx="0" dy="0" in="SourceAlpha" result="shadowOffsetInner" />
      <feGaussianBlur stdDeviation="5" in="shadowOffsetInner" result="shadowGaussian" />
      <feComposite in2="shadowGaussian" operator="atop" in="SourceAlpha" result="shadowComposite" />
      <feColorMatrix type="matrix" values="0 0 0 0 0  0 0 0 0 0  0 0 0 0 0  0 0 0 0.349019607843137 0  " in="shadowComposite" />
    </filter>
    <g id="widget25">
      <path d="M 2.29151913542773 13.4928911840319  C 1.32040623527553 20.6177018551654  1.22999923312057 31.9322376338189  7.86859893007582 40.940313646483  C 14.2545525213854 49.6060042262368  25.1617250931087 54  40.2868253458795 54  C 55.3280488262016 54  66.2523451523438 49.6012165051213  72.7558423111214 40.9259507666853  C 79.4918144562283 31.9407971207785  79.6546341317274 20.6290178615698  78.8202198464396 13.3755225472514  C 80.1699392957232 11.9550578652563  81 10.0359580544928  81 7.92187252399398  C 81 3.54659182022111  77.4523608544378 0  73.0761121509989 0  C 68.6998634475602 0  65.1522243019981 3.546736855421  65.1522243019981 7.92187252399398  C 65.1522243019981 11.2662245960937  67.2262152731994 14.1244183945265  70.1576939418053 15.2866431536293  C 70.7079719751235 21.0504712965318  70.4173056352581 29.3962634209839  65.6861043668129 35.67990821169  C 60.9305237537583 41.9956154222359  52.3849609863941 45.1977904661013  40.2869704179764 45.1977904661013  C 28.1349968631265 45.1977904661013  19.6207791699894 42.0196983541414  14.9810006919982 35.7518672205554  C 10.2692448987641 29.3869783327015  10.2532821465515 20.8888537387588  10.9525938936618 15.2432645856107  C 13.8257359948244 14.0539101629834  15.8477756980019 11.2244419823718  15.8477756980019 7.92201755919389  C 15.8477756980019 3.54673685542103  12.3001365524397 0.000145035199913934  7.92388784900095 0.000145035199913934  C 3.54763914556216 0.000145035199913934  0 3.54688189062091  0 7.92201755919389  C 0 10.0942796431088  0.875191740211136 12.061690636432  2.29151913542773 13.4928911840319  Z " fill-rule="nonzero" fill="#ffffff" stroke="none" transform="matrix(1 0 0 1 172 30 )" />
    </g>
  </defs>
  <g transform="matrix(1 0 0 1 -162 -20 )">
    <use xlink:href="#widget25" filter="url(#filter24)" />
    <use xlink:href="#widget25" />
  </g>
</svg>