<?xml version="1.0" encoding="utf-8"?>
<svg version="1.1" xmlns:xlink="http://www.w3.org/1999/xlink" width="80px" height="88px" xmlns="http://www.w3.org/2000/svg">
  <g transform="matrix(1 0 0 1 -214 -54 )">
    <path d="M 80 12.2565082870554  C 80 5.52086991374212  75.1221076737371 0  68.9906986933416 0  L 11.1685681868019 0  C 5.03715929595734 0  0 5.52086991374212  0 12.2565082870554  L 0 62.3533538164581  C 0 69.0889921897714  5.03725081701572 74.4948984784974  11.1685681868019 74  L 26.6655670707016 74  L 38.1231615360381 87.0896534321785  C 38.66584192044 87.6843031504998  39.3762199580223 88  40.0865979956046 88  C 40.7989920038982 88  41.5115693229615 87.7101749242727  42.0546163289024 87.1124045263502  C 43.1389691123503 85.918273063333  43.136953141639 83.9893611496196  42.050034455171 82.7980483522582  L 29.7786025001242 69.297175025991  C 29.2574570565866 68.7259811666313  28.5513859713566 68.3541111989277  27.8151660405579 68  L 11.1685681868019 68  C 8.10290950190875 68.3541111005518  5.58991989211904 65.7211226346652  6 62.3533538164581  L 6 12.2565082870554  C 5.58991980256815 8.88873937047242  8.10290950190875 6.04011875175813  11.168568097251 6  L 68.9906986037907 6  C 72.0563572886838 6.04011875175813  74.41008001833 8.88863873194926  74 12.2565082870554  L 74 62.3533538164581  C 74.41008001833 65.7211227330411  72.0563571991329 68.3541111005518  68.9906986037907 68  L 46.1954638706786 68  C 44.6601603253722 68.3541111005518  43.4155325868743 69.7379023041006  43.4155325868743 71.4245047895247  C 43.4155325868743 73.1111072749488  44.6601603253722 74.4948984784974  46.1954638706786 74  L 68.9906986933416 74  C 75.1221075841862 74.4948984784974  79.999999910449 69.0889921897714  80 62.3533538164581  L 80 12.2565082870554  Z " fill-rule="nonzero" fill="#ffffff" stroke="none" transform="matrix(1 0 0 1 214 54 )" />
  </g>
</svg>