<?xml version="1.0" encoding="utf-8"?>
<svg version="1.1" xmlns:xlink="http://www.w3.org/1999/xlink" width="56px" height="38px" xmlns="http://www.w3.org/2000/svg">
  <g transform="matrix(1 0 0 1 -228 -76 )">
    <path d="M 1.58426014301176 9.49499749987427  C 0.912873446610263 14.5087531573386  0.850369840182111 22.4708338904651  5.44001901338578 28.8098503438214  C 9.85499927404425 34.9079288999444  17.3957605581986 38  27.852619992213 38  C 38.2514905465097 38  45.8040904756945 34.9045597628631  50.3003354249728 28.7997431321119  C 54.9573038215899 22.4768572331404  55.0698705108239 14.5167162729565  54.492991498773 9.41240475547325  C 55.4261308711172 8.41281849777293  56 7.06234085316156  56 5.57465103540318  C 56 2.49574979941485  53.5473112080064 0  50.5217565488388 0  C 47.4962018896713 0  45.0435130976776 2.49585186122218  45.0435130976776 5.57465103540318  C 45.0435130976776 7.92808397502893  46.4773833987551 9.93940553688904  48.5040847005074 10.7572674044058  C 48.8845238346534 14.8132946160779  48.6835693280797 20.6862594443961  45.4126153647102 25.1080835563744  C 42.1248065458082 29.5524701119438  36.2167631510873 31.8058525502195  27.8527202889713 31.8058525502195  C 19.4513558559887 31.8058525502195  13.5649831298692 29.5694173603217  10.3572350463198 25.1587213774279  C 7.09972486828133 20.6797254933826  7.08868889144304 14.6995637420895  7.57216367956863 10.7267417454297  C 9.55853352728599 9.88978863321054  10.9564869023223 7.89868139500234  10.9564869023223 5.57475309721052  C 10.9564869023223 2.49585186122219  8.50379811032872 0.000102061807339737  5.47824345116118 0.000102061807339737  C 2.45268879199358 0.000102061807339737  0 2.49595392302952  0 5.57475309721052  C 0 7.10338197107657  0.605070832738591 8.48785637378548  1.58426014301176 9.49499749987427  Z " fill-rule="nonzero" fill="#ffffff" stroke="none" transform="matrix(1 0 0 1 228 76 )" />
  </g>
</svg>