<?xml version="1.0" encoding="utf-8"?>
<svg version="1.1" xmlns:xlink="http://www.w3.org/1999/xlink" width="7px" height="10px" xmlns="http://www.w3.org/2000/svg">
  <g transform="matrix(1 0 0 1 -397 -2791 )">
    <path d="M 6.87972508591065 4.7695390781563  C 6.95990836197018 4.83633934535737  7 4.91315965263857  7 5  C 7 5.08684034736143  6.95990836197018 5.16366065464263  6.87972508591065 5.2304609218437  L 1.27491408934713 9.89979959919845  C 1.19473081328749 9.96659986639952  1.10252004581901 10  0.998281786941561 10  C 0.894043528064117 10  0.80183276059563 9.96659986639952  0.721649484536101 9.89979959919845  L 0.12027491408935 9.39879759519033  C 0.0400916380298213 9.33199732798926  0 9.25517702070806  0 9.16833667334674  C 0 9.08149632598531  0.0400916380298213 9.00467601870412  0.12027491408935 8.93787575150304  L 4.84707903780065 5  L 0.12027491408935 1.06212424849696  C 0.0400916380298213 0.995323981295883  0 0.918503674014687  0 0.831663326653256  C 0 0.744822979291939  0.0400916380298213 0.668002672010743  0.12027491408935 0.601202404809669  L 0.721649484536101 0.100200400801555  C 0.80183276059563 0.0334001336004803  0.894043528064117 0  0.998281786941561 0  C 1.10252004581901 0  1.19473081328749 0.0334001336004803  1.27491408934713 0.100200400801555  L 6.87972508591065 4.7695390781563  Z " fill-rule="nonzero" fill="#cccccc" stroke="none" transform="matrix(1 0 0 1 397 2791 )" />
  </g>
</svg>