<?xml version="1.0" encoding="utf-8"?>
<svg version="1.1" xmlns:xlink="http://www.w3.org/1999/xlink" width="63px" height="42px" xmlns="http://www.w3.org/2000/svg">
  <g transform="matrix(1 0 0 1 -145 -34 )">
    <path d="M 1.78229266088823 10.4944709209137  C 1.0269826274365 16.0359903317953  0.956666070204847 24.8361848263036  6.12002139005904 31.8424661694868  C 11.0868741832998 38.5824477315175  19.5702306279734 42  31.3341974912396 42  C 43.0329268648235 42  51.5296017851563 38.5787239484277  56.5878773530944 31.8312950407553  C 61.8269667992886 24.8428422050499  61.9536043246769 16.0447916701098  61.3046154361197 10.4031842034178  C 62.354397230007 9.29837833964376  63 7.80574515349434  63 6.16145640755087  C 63 2.75846030461642  60.2407251090073 0  56.8369761174436 0  C 53.4332271258802 0  50.6739522348875 2.7585731097719  50.6739522348875 6.16145640755087  C 50.6739522348875 8.76261913029512  52.2870563235995 10.9856587512984  54.5670952880707 11.8896113417117  C 54.995089313985 16.3725887861914  54.7690154940897 22.863760438543  51.0891922852989 27.7510397202033  C 47.3904073640342 32.6632564395168  40.7438585449731 35.15383702919  31.3343103250927 35.15383702919  C 21.8827753379873 35.15383702919  15.2606060211028 32.6819876087766  11.6518894271097 27.8070078382098  C 7.98719047681652 22.8565387032123  7.97477500287346 16.2468862412568  8.51868413951468 11.855872455475  C 10.7533502181967 10.9308190156538  12.3260477651125 8.73012154184471  12.3260477651125 6.16156921270635  C 12.3260477651125 2.7585731097719  9.56677287411981 0.00011280515548151  6.16302388255627 0.00011280515548151  C 2.7592748909928 0.00011280515548151  0 2.75868591492738  0 6.16156921270635  C 0 7.85110638908466  0.680704686830893 9.38131493944712  1.78229266088823 10.4944709209137  Z " fill-rule="nonzero" fill="#ffffff" stroke="none" transform="matrix(1 0 0 1 145 34 )" />
  </g>
</svg>