<?xml version="1.0" encoding="utf-8"?>
<svg version="1.1" xmlns:xlink="http://www.w3.org/1999/xlink" width="90px" height="99px" xmlns="http://www.w3.org/2000/svg">
  <g transform="matrix(1 0 0 1 -130 -10 )">
    <path d="M 90 13.7885718229373  C 90 6.21097865295988  84.5123711329543 0  77.6145360300094 0  L 12.5646392101522 0  C 5.66680420795205 0  0 6.21097865295988  0 13.7885718229373  L 0 70.1475230435153  C 0 77.7251162134928  5.66690716914263 83.8067607883096  12.5646392101522 83  L 29.9987629545393 83  L 42.888556728043 97.9758601112007  C 43.499072160495 98.6448410443122  44.2982474527749 99  45.0974227450552 99  C 45.8988660043856 99  46.7005154883317 98.6739467898068  47.3114433700152 98.0014550921439  C 48.531340251394 96.6580571962497  48.5290722843438 94.4880312933221  47.3062887620674 93.1478043962905  L 33.5009278126398 77.9593219042399  C 32.9146391886599 77.3167288124602  32.1203092177763 76.8983750987937  31.2920617956277 76  L 12.5646392101522 76  C 9.11577318964737 76.8983749881209  6.28865987863389 73.9362629639983  7 70.1475230435153  L 7 13.7885718229373  C 6.28865977788917 9.99983179178147  9.11577318964737 6.79513359572789  12.5646391094073 7  L 77.6145359292645 7  C 81.0634019497693 6.79513359572789  83.7113400206213 9.99971857344292  83 13.7885718229373  L 83 70.1475230435153  C 83.7113400206213 73.9362630746712  81.0634018490246 76.8983749881209  77.6145359292645 76  L 51.9698968545134 76  C 50.2426803660438 76.8983749881209  48.8424741602337 78.4551400921131  48.8424741602337 80.3525678882152  C 48.8424741602337 82.2499956843174  50.2426803660438 83.8067607883096  51.9698968545134 83  L 77.6145360300094 83  C 84.5123710322094 83.8067607883096  89.9999998992552 77.7251162134928  90 70.1475230435153  L 90 13.7885718229373  Z " fill-rule="nonzero" fill="#ffffff" stroke="none" transform="matrix(1 0 0 1 130 10 )" />
  </g>
</svg>