<?xml version="1.0" encoding="utf-8"?>
<svg version="1.1" xmlns:xlink="http://www.w3.org/1999/xlink" width="5px" height="15px" xmlns="http://www.w3.org/2000/svg">
  <g transform="matrix(1 0 0 1 -968 -331 )">
    <path d="M 0.730355255618302 14.93608194866  C 0.657164860259487 14.9793027262328  0.575363830152398 15  0.49540793606288 15  C 0.33795632924041 15  0.18481003979196 14.9202546216615  0.0980886469717382 14.7771999353292  C -0.0323009649281508 14.5604873041194  0.0396593397524389 14.2804653649157  0.258615480490004 14.1514117755435  C 2.61423912943581 12.764085689793  4.07804703661362 10.2189297597698  4.07804703661362 7.51002186964695  C 4.07804703661362 4.78528665252565  2.60316831333109 2.23343454569536  0.227248168193402 0.850369663367505  C 0.00829202745583734 0.722533560687547  -0.0655134132422064 0.44251162148384  0.063646107979341 0.225190246927912  C 0.192190583861776 0.00847761571809906  0.473881349192661 -0.0651803291594206  0.695297671286792 0.0632645168666524  C 3.3504484003988 1.61008135929408  5 4.4638701657875  5 7.51002186964695  C 5 10.5397375031618  3.36397939786009 13.3850039028099  0.730355255618302 14.93608194866  Z " fill-rule="nonzero" fill="#999999" stroke="none" transform="matrix(1 0 0 1 968 331 )" />
  </g>
</svg>