<?xml version="1.0" encoding="utf-8"?>
<svg version="1.1" xmlns:xlink="http://www.w3.org/1999/xlink" width="20px" height="20px" xmlns="http://www.w3.org/2000/svg">
  <g transform="matrix(1 0 0 1 -985 -328 )">
    <path d="M 20 8.87096817338399  C 19.9999999494772 6.25790362576944  17.2984561706699 0  9.99999493509601 0  C 2.70076625921353 0  0 6.38678807754397  0 9.96757754755041  C 0 13.5483923354707  2.54465076276637 20  9.7869082117759 20  C 10.6295915967247 20  11.5753674512345 19.7340254566707  11.5753674512345 18.7326522664987  C 11.5753674512345 17.0680142325248  9.99999493509601 17.5042864412914  9.99999493509601 15.7894014465908  C 9.99999493509601 15.0321514633373  10.7247321165671 14.4837100240389  11.9615287629713 14.4837100240389  C 12.5766352270059 14.4837100240389  14.8876706423767 14.6766441346484  16.3022877806098 14.1287142743375  C 17.7169049188431 13.5807844140266  20 11.8390031020996  20 8.87096817338399  Z M 5.63923237614224 8.25821360674986  C 5.63923237614224 9.21978432464985  4.86154284908805 9.99999491867696  3.90307922073235 9.99999491867696  C 2.94384817732925 9.99999491867696  2.16692606532235 9.21978432464985  2.16692606532235 8.25821360674986  C 2.16692606532235 7.29586791739137  2.94461559237653 6.51566239201568  3.90307922073235 6.51566239201568  C 4.86154284908805 6.51566239201568  5.63923237614224 7.29587298604279  5.63923237614224 8.25821360674986  Z M 8.91538579424519 3.94812910925153  C 8.91615826156574 4.9096998271515  8.13845357769176 5.6899104211786  7.17923263883519 5.6899104211786  C 6.22000159543208 5.6899104211786  5.44307948342519 4.9096998271515  5.44307948342519 3.94812910925153  C 5.44307948342519 2.98579862584729  6.22076901047949 2.20634779732443  7.17923263883519 2.20634779732443  C 8.1376811103712 2.20634779732443  8.91538579424519 2.98579862584729  8.91538579424519 3.94812910925153  Z M 14.4846007361417 3.94812910925153  C 14.4846007108803 4.9096998271515  13.7069212883726 5.6899104211786  12.7484475807317 5.6899104211786  C 11.7899991091958 5.6899104211786  11.0122944253218 4.9096998271515  11.0122944253218 3.94812910925153  C 11.0122944253218 2.98579862584729  11.7899940569226 2.20634779732443  12.7484475807317 2.20634779732443  C 13.7069263406459 2.20634779732443  14.4846007361417 2.98579862584729  14.4846007361417 3.94812910925153  Z M 17.7915319209073 8.25821360674986  C 17.7915319209073 9.21978432464985  17.0138524983996 9.99999491867696  16.0546214549965 9.99999491867696  C 15.0961426950823 9.99999491867696  14.3184682995865 9.21978432464985  14.3184682995865 8.25821360674986  C 14.3184682995865 7.29586791739137  15.0961426950823 6.51566239201568  16.0546214549965 6.51566239201568  C 17.0138524983996 6.51566239201568  17.7915319209073 7.29587298604279  17.7915319209073 8.25821360674986  Z " fill-rule="nonzero" fill="#999999" stroke="none" transform="matrix(1 0 0 1 985 328 )" />
  </g>
</svg>