<?xml version="1.0" encoding="utf-8"?>
<svg version="1.1" xmlns:xlink="http://www.w3.org/1999/xlink" width="11px" height="14px" xmlns="http://www.w3.org/2000/svg">
  <g transform="matrix(1 0 0 1 -1020 -330 )">
    <path d="M 3.30941524076506 7.79648326394841  C 1.36372546144826 8.71648622993984  0 10.8225290262048  0 13.267898386889  C 0 13.6722213724111  0.302195602929637 14  0.674961299359814 14  C 1.04772699578999 14  1.34992259871951 13.6722213724111  1.34992259871951 13.267898386889  C 1.34992259871951 10.7857877240308  3.211639558299 8.76651127701153  5.50000000000006 8.76651127701153  C 7.788360441701 8.76651127701153  9.6500774012806 10.7858118252775  9.6500774012806 13.267898386889  C 9.6500774012806 13.6722213724111  9.95227300421012 14  10.3250387006403 14  C 10.6978043970705 14  11 13.6722213724111  11 13.267898386889  C 11 10.8225290262048  9.63627453855174 8.71648622993984  7.69058471579391 7.79648326394841  C 8.73813390693036 7.03036461411678  9.428453935758 5.73154539127275  9.428453935758 4.26104985491635  C 9.428453935758 1.91148752031237  7.6661574494307 0  5.49999997827943 0  C 3.33384250712815 0  1.57154602080097 1.91148752031237  1.57154602080097 4.26104985491635  C 1.57154602080097 5.73152129002608  2.2618660496285 7.03036461411678  3.30941524076506 7.79648326394841  Z M 5.49995555969699 7.05792058485745  C 4.07812924569436 7.05792058485745  2.92142422265856 5.80326808630659  2.92142422265856 4.26104985491635  C 2.92142422265856 2.71885574833218  4.07815146584589 1.46417912497526  5.49997777984852 1.46417912497526  C 6.92180409385115 1.46417912497526  8.07850911688695 2.71885574833218  8.07850911688695 4.26104985491635  C 8.07850911688695 5.80324396150053  6.92178187369962 7.05792058485745  5.49995555969699 7.05792058485745  Z " fill-rule="nonzero" fill="#999999" stroke="none" transform="matrix(1 0 0 1 1020 330 )" />
  </g>
</svg>