<?xml version="1.0" encoding="utf-8"?>
<svg version="1.1" xmlns:xlink="http://www.w3.org/1999/xlink" width="20px" height="20px" xmlns="http://www.w3.org/2000/svg">
  <g transform="matrix(1 0 0 1 -616 -328 )">
    <path d="M 19.8745809186737 20  C 19.8748554715093 16.3159461683143  17.8372583221465 12.9339719005714  14.5801810851523 11.2124317578125  C 13.3396166194693 12.3011193359375  11.718650241862 12.9611450585938  9.93729052531257 12.9611450585938  C 8.15593080876311 12.9611450585938  6.53354499757005 12.3011193359375  5.29298053188702 11.2124317578125  C 2.03645288561563 12.9343544780478  -0.000552527831865283 16.3162532688576  0 20  L 19.8745809186737 20  Z M 4.1418388977326 5.92370955078125  C 4.14183852484819 9.12490864793285  6.7360918298224 11.720432711925  9.93729052531257 11.722  C 13.1374759408564 11.7212165989207  15.7313234146642 9.12673406244504  15.7313234146642 5.92654853302521  C 15.7313234146642 5.92560220556609  15.7313231828784 5.92465587812683  15.7313227193068 5.92370955078125  C 15.731795843572 5.89348029785843  15.7320324165684 5.86324780548301  15.7320324165684 5.83301485030419  C 15.7320324165684 2.63227529080515  13.1373203500273 0.0375632096791909  9.93658080851968 0.0375632096791909  C 6.73584126701202 0.0375632096791909  4.14112920047096 2.63227529080515  4.14112920047096 5.83301485030419  C 4.14112920047096 5.86324780548301  4.14136577346738 5.89348029785843  4.1418388977326 5.92370955078125  Z " fill-rule="nonzero" fill="#999999" stroke="none" transform="matrix(1 0 0 1 616 328 )" />
  </g>
</svg>