<?xml version="1.0" encoding="utf-8"?>
<svg version="1.1" xmlns:xlink="http://www.w3.org/1999/xlink" width="16px" height="16px" xmlns="http://www.w3.org/2000/svg">
  <g transform="matrix(1 0 0 1 -433 -570 )">
    <path d="M 15.058546875 8.941  C 15.058546875 8.551171875  14.742515625 8.235140625  14.352671875 8.235140625  C 13.962828125 8.235140625  13.646796875 8.551171875  13.646796875 8.941015625  L 13.646796875 14.58796875  L 1.411734375 14.58796875  L 1.411734375 2.352890625  L 7.0586875 2.352890625  C 7.44853125 2.352890625  7.7645625 2.036859375  7.7645625 1.647015625  C 7.7645625 1.257171875  7.44853125 0.941140625  7.0586875 0.941140625  L 0.885796875 0.941140625  C 0.396609375 0.94115625  0 1.247640625  0 1.625640625  L 0 15.31521875  C 0 15.69321875  0.396609375 15.999703125  0.885796875 16  L 14.17275 16  C 14.6619375 15.999703125  15.058546875 15.69321875  15.058546875 15.31521875  L 15.058546875 8.941  Z " fill-rule="nonzero" fill="#999999" stroke="none" transform="matrix(1 0 0 1 433 570 )" />
  </g>
</svg>