<?xml version="1.0" encoding="utf-8"?>
<svg version="1.1" xmlns:xlink="http://www.w3.org/1999/xlink" width="13px" height="13px" xmlns="http://www.w3.org/2000/svg">
  <g transform="matrix(1 0 0 1 -436 -570 )">
    <path d="M 12.613515625 2.67615625  C 13.128328125 2.161609375  13.12846875 1.323921875  12.613671875 0.80884375  L 12.1916875 0.387  C 11.942328125 0.137375  11.61078125 0  11.25796875 0  C 10.904609375 0.000140625  10.572796875 0.13778125  10.3233125 0.387671875  L 1.91753125 8.80884375  C 1.86626663514507 8.86010847551185  1.82607232273518 8.92135188669369  1.7994375 8.98878125  L 0.802015624999998 11.50721875  C 0.724078124999998 11.704171875  0.770234374999998 11.92853125  0.919703124999998 12.07840625  C 1.01950403554633 12.1787498489575  1.15521033380993 12.2351357315266  1.296734375 12.2350625  C 1.36190625 12.2350625  1.42759375 12.22309375  1.490625 12.198359375  L 4.0171875 11.2091875  C 4.08546771222039 11.1824260234345  4.14749039273165 11.1418612754432  4.199375 11.09003125  L 12.613515625 2.67615625  Z M 3.476453125 10.27825  L 2.2415 10.761796875  L 2.729046875 9.53084375  L 3.476453125 10.27825  Z M 11.861203125 1.561046875  C 11.96121875 1.661046875  11.96121875 1.823828125  11.861203125 1.923828125  L 4.515625 9.269125  L 3.737765625 8.491265625  L 11.076296875 1.139328125  C 11.141734375 1.073625  11.2180625 1.063921875  11.257828125 1.063921875  C 11.297453125 1.063921875  11.373796875 1.073625  11.439359375 1.139203125  L 11.861203125 1.561046875  Z " fill-rule="nonzero" fill="#999999" stroke="none" transform="matrix(1 0 0 1 436 570 )" />
  </g>
</svg>