<?xml version="1.0" encoding="utf-8"?>
<svg version="1.1" xmlns:xlink="http://www.w3.org/1999/xlink" width="16px" height="16px" xmlns="http://www.w3.org/2000/svg">
  <g transform="matrix(1 0 0 1 -162 -610 )">
    <path d="M 4.16599999999998 9.00999999999995  L 7.543 12.3890000000001  C 7.631 12.477  7.73899999999999 12.532  7.85299999999999 12.552  C 7.9 12.564  7.95 12.572  8 12.572  C 8.05 12.572  8.101 12.564  8.14699999999999 12.551  C 8.25999999999998 12.53  8.369 12.476  8.457 12.3879999999999  L 11.835 9.00899999999996  C 12.066 8.77699999999999  12.066 8.39800000000001  11.835 8.16500000000005  C 11.602 7.93199999999997  11.225 7.93199999999997  10.99 8.16500000000005  L 8.57 10.583  L 8.57 0.571000000000018  C 8.57 0.255999999999973  8.31499999999999 0  8 0  C 7.68499999999998 0  7.42899999999998 0.255999999999973  7.42899999999998 0.571000000000018  L 7.42899999999998 10.584  L 5.00999999999998 8.16600000000004  C 4.77699999999999 7.93299999999996  4.399 7.93299999999996  4.16599999999998 8.16600000000004  C 3.93299999999999 8.399  3.93299999999999 8.77699999999999  4.16599999999998 9.00999999999995  Z M 16 13.143  C 16 12.827  15.744 12.57  15.43 12.57  C 15.115 12.57  14.858 12.827  14.858 13.142  L 14.858 14.857  L 1.143 14.857  L 1.143 13.142  C 1.143 12.827  0.887000000000002 12.57  0.57099999999999 12.57  C 0.256000000000001 12.57  0 12.827  0 13.143  L 0 16  L 16 16  L 16 13.143  Z " fill-rule="nonzero" fill="#999999" stroke="none" transform="matrix(1 0 0 1 162 610 )" />
  </g>
</svg>