<?xml version="1.0" encoding="utf-8"?>
<svg version="1.1" xmlns:xlink="http://www.w3.org/1999/xlink" width="16px" height="16px" xmlns="http://www.w3.org/2000/svg">
  <g transform="matrix(1 0 0 1 -342 -610 )">
    <path d="M 15.3333407396224 9.10643481464825  C 14.9651687817255 9.10643481464825  14.6666653272314 9.40490567986088  14.6666653272314 9.773093418448  L 14.6666653272314 13.9873264023722  C 14.6666653272314 14.3650657229887  14.3694365266093 14.6666343994411  14.0058951382447 14.6666343994411  L 1.99410487751333 14.6666343994411  C 1.62865961586367 14.6666343994411  1.33333467276861 14.3714872370582  1.33333467276861 14.005864861093  L 1.33333467276861 1.99410286642871  C 1.33333467276861 1.63461158374432  1.63793692269997 1.33333332808067  2.00110722446392 1.33333332808067  L 7.26090512054364 1.33333332808067  C 7.62909323045397 1.33333332808067  7.92756439667923 1.03484632662882  7.92756439667923 0.666674724280806  C 7.92756439667923 0.298503121932795  7.62909323045397 1.61204810574714E-05  7.26090512054364 1.61204810574714E-05  L 2.00110722446392 1.61204810574714E-05  C 0.90481986403928 1.61204810574714E-05  0 0.894944660460519  0 1.99411898690988  L 0 14.0058971335713  C 0 15.1080885900646  0.892477015349939 16  1.99410487751333 16  L 14.0058951382447 16  C 15.1101690468943 16  16.0000000157581 15.097181721527  16 13.9873586748504  L 16 9.773093418448  C 16 9.40490567986088  15.7015126975193 9.10643481464825  15.3333407396224 9.10643481464825  Z M 5.8038353562706 7.52269508852979  L 6.66894835524482 8.38780719926662  C 6.76702966859356 3.59107281163537  10.0298668851112 0  14.6412858496598 0  C 15.0094739595702 0  15.3079451257955 0.298487001451737  15.3079451100374 0.666658588041697  C 15.3079450942793 1.03483017463166  15.0094578075567 1.33331719184145  14.6412858496598 1.33331719184145  C 10.8800232456626 1.33331719184145  8.20819086568024 4.17857588218915  8.01162487987136 8.13898199508511  L 8.62792852845912 7.52267895229068  C 8.88586995938302 7.26473778150456  9.31365871540864 7.27428936353404  9.56638871887907 7.52701911212249  C 9.82673418397401 7.78736431465514  9.83438190235123 8.20184173896531  9.57072888308806 8.46547835609131  L 7.76715570945196 10.2690819832752  C 7.7450982292634 10.2998292818588  7.72056192741074 10.3287202524054  7.69379238175079 10.3554657322418  C 7.56479746978474 10.4844605141146  7.39020660560464 10.5501115279648  7.21587387423714 10.5491757364004  C 7.04154115862771 10.5501115279648  6.86695029444767 10.4844605298727  6.73795538248162 10.3554657322418  C 6.71117677959868 10.3287286065555  6.68663982436793 10.2998368666701  6.66459205478045 10.2690819832752  L 4.86101888114435 8.46549449233042  C 4.59738199813662 8.20185787520442  4.60501359601646 7.78738045089425  4.86537518160872 7.52703524836159  C 5.11810518507921 7.27430549977315  5.54589394110477 7.26473778150456  5.8038353562706 7.52269508852979  Z " fill-rule="nonzero" fill="#999999" stroke="none" transform="matrix(1 0 0 1 342 610 )" />
  </g>
</svg>