<?xml version="1.0" encoding="utf-8"?>
<svg version="1.1" xmlns:xlink="http://www.w3.org/1999/xlink" width="16px" height="16px" xmlns="http://www.w3.org/2000/svg">
  <g transform="matrix(1 0 0 1 -715 -369 )">
    <path d="M 15.4949837168748 3.49965517141185  C 16.1682127430734 2.8267734471002  16.1683966407678 1.73131521613851  15.4951880476464 1.05773876714101  L 14.9433519328428 0.506086500493494  C 14.6172604544799 0.179647630504632  14.1836909902664 0  13.7223121080408 0  C 13.2602180681149 0.000183897710940072  12.8263012415896 0.180178890558465  12.5000462986095 0.50696512289022  L 1.50766377997229 11.5194752114519  C 1.44062417480097 11.5865149673512  1.38806139164706 11.6666040206931  1.35323058281278 11.7547825491328  L 0.0488851024381347 15.0481862211915  C -0.0530350864255524 15.3057451818957  0.00732422349892659 15.5991437631532  0.202787039591385 15.7951378568521  C 0.33329838075133 15.9263588926231  0.510763805598231 16.0000956729502  0.69583719141167 15.9999999068339  C 0.781063556237314 15.9999999068339  0.866964212608991 15.9843481683254  0.949391245864035 15.9520026042798  L 4.25341982229702 14.6584456724829  C 4.34271101235504 14.6234492331469  4.4238191222064 14.5704020203449  4.49166950195809 14.5026230120839  L 15.4949837168748 3.49965517141185  Z M 3.54629232109346 13.4410428260922  L 1.93132320176426 14.0733853216823  L 2.56889650832227 12.4636469255509  L 3.54629232109346 13.4410428260922  Z M 14.511171917876 2.04140762293314  C 14.6419640447639 2.172179328487  14.6419640447639 2.38505114543397  14.511171917876 2.51582285098782  L 4.90523498363405 12.1213928524216  L 3.88801510348219 11.1041728809233  L 13.484736719926 1.48991882091763  C 13.5703104470633 1.40399772375292  13.6701260289796 1.39130878169834  13.7221282103466 1.39130878169834  C 13.773946494019 1.39130878169834  13.8737825090125 1.40399772375292  13.9595197007669 1.48975535628568  L 14.511171917876 2.04140762293314  Z " fill-rule="nonzero" fill="#999999" stroke="none" transform="matrix(1 0 0 1 715 369 )" />
  </g>
</svg>