<?xml version="1.0" encoding="utf-8"?>
<svg version="1.1" xmlns:xlink="http://www.w3.org/1999/xlink" width="20px" height="20px" xmlns="http://www.w3.org/2000/svg">
  <g transform="matrix(1 0 0 1 -745 -369 )">
    <path d="M 19.1666759245281 11.3830435183103  C 18.7064609771569 11.3830435183103  18.3333316590392 11.7561320998261  18.3333316590392 12.21636677306  L 18.3333316590392 17.4841580029652  C 18.3333316590392 17.9563321537359  17.9617956582615 18.3332929993014  17.5073689228059 18  L 2.49263109689161 18  C 2.03582451982959 18.3332929993014  1.66666834096077 17.9643590463228  2 17.5073310763662  L 2 2.49262858303587  C 1.66666834096077 2.04326447968043  2.0474211533749 1.66666666010082  2.50138403057986 1.66666666010082  L 9.07613140067951 1.66666666010082  C 9.53636653806745 1.66666666010082  9.9094554958491 1.293557908286  9.9094554958491 0.833343405351002  C 9.9094554958491 0.373128902415999  9.53636653806745 2.01506013013386E-05  9.07613140067951 2.01506013013386E-05  L 2.50138403057986 2.01506013013386E-05  C 1.13102483004911 2.01506013013386E-05  0 1.11868082557567  0 2.49264873363734  L 0 17.5073714169641  C 0 18.8851107375807  1.11559626918745 20  2.49263109689161 20  L 17.5073689228059 20  C 18.8877113086179 20  20.0000000196976 18.8714771519088  20 17.484198343563  L 20 12.21636677306  C 20 11.7561320998261  19.626890871899 11.3830435183103  19.1666759245281 11.3830435183103  Z M 7.25479419533815 9.40336886066223  L 8.33618544405601 10.4847589990833  C 8.45878708574196 4.48884101454422  12.537333606389 0  18.3016073120748 0  C 18.7618424494627 0  19.1349314072444 0.373108751814698  19.1349313875467 0.833323235052148  C 19.1349313678492 1.2935377182896  18.7618222594459 1.66664648980179  18.3016073120748 1.66664648980179  C 13.6000290570782 1.66664648980179  10.2602385821002 5.22321985273646  10.0145310998392 10.1737274938564  L 10.7849106605739 9.40334869036332  C 11.1073374492288 9.08092222688072  11.6420733942608 9.09286170441754  11.9579858985988 9.40877389015316  C 12.2834177299675 9.73420539331892  12.2929773779391 10.2523021737067  11.96341110386 10.5818479451141  L 9.70894463681498 12.836352479094  C 9.68137278657935 12.8747866023236  9.65070240926343 12.9109003155068  9.61724047718849 12.9443321653023  C 9.45599683723094 13.1055756426433  9.23775825700579 13.187639409956  9.01984234279644 13.1864696705005  C 8.80192644828469 13.187639409956  8.58368786805966 13.1055756623409  8.42244422810211 12.9443321653023  C 8.38897097449842 12.9109107581943  8.3582997804599 12.8747960833377  8.33074006847551 12.836352479094  L 6.07627360143044 10.581868115413  C 5.7467274976708 10.2523223440055  5.75626699502061 9.73422556361783  6.08171897701084 9.40879406045201  C 6.39763148134898 9.0928818747164  6.93236742638101 9.08092222688072  7.25479419533815 9.40336886066223  Z " fill-rule="nonzero" fill="#999999" stroke="none" transform="matrix(1 0 0 1 745 369 )" />
  </g>
</svg>