<?xml version="1.0" encoding="utf-8"?>
<svg version="1.1" xmlns:xlink="http://www.w3.org/1999/xlink" width="20px" height="20px" xmlns="http://www.w3.org/2000/svg">
  <g transform="matrix(1 0 0 1 -880 -369 )">
    <path d="M 20 14.8133264640219  C 19.9996754879849 16.4502833590932  18.760688614496 17.7774343122102  17.2351576317113 17.7774343122102  L 15.7560318670799 17.7774343122102  C 15.445798380685 19.0530654301906  14.3749087309957 20  13.0888676153235 20  L 6.91080787266151 20  C 5.62411773295912 20  4.55290357125477 19.0523784990555  4.24494166896534 17.7774343122102  L 2.76516688030381 17.7774343122102  C 1.23768882542879 17.7774343122102  0 16.4502833590932  0 14.8129829984543  L 0 13.3316160054955  C 0 11.6950025759917  1.23736431341376 10.36853855401  2.76516688030381 10.36853855401  L 4.14564099235781 10.36853855401  L 4.14564099235781 2.96445131375583  C 4.14564099235781 1.32783788425212  5.38397884181666 0  6.91015884863134 0  L 13.0885431033084 0  C 14.6160211581833 0  15.8530609595821 1.32783788425212  15.8530609595821 2.96445131375583  L 15.8530609595821 10.3688820195775  L 17.2354821437264 10.3688820195775  C 18.7616621505412 10.3688820195775  20 11.6953460415593  20 13.331959471063  L 20 14.8133264640219  Z M 5.52741315247204 17.0362356173794  C 5.52741315247204 17.8554009960502  6.14690658921654 18.5193199381762  6.90983433661643 18.5193199381762  L 13.0882185912933 18.5193199381762  C 13.8521198747384 18.5193199381762  14.4716133114829 17.8554009960502  14.4716133114829 17.0362356173794  C 14.4716133114829 16.2194744976816  13.8527688987685 15.5548686244204  13.0882185912933 15.5548686244204  L 6.90983433661643 15.5548686244204  C 6.1475556132466 15.5548686244204  5.52741315247204 16.2194744976816  5.52741315247204 17.0362356173794  Z M 14.4716133114829 10.3688820195775  L 14.4716133114829 2.96445131375583  C 14.4716133114829 2.14631633178777  13.8527688987685 1.48308432079682  13.0882185912933 1.48308432079682  L 6.90983433661643 1.48308432079682  C 6.1475556132466 1.48308432079682  5.52741315247204 2.14631633178777  5.52741315247204 2.96445131375583  L 5.52741315247204 10.3688820195775  L 14.4716133114829 10.3688820195775  Z M 18.6162807677955 13.3316160054955  C 18.6162807677955 12.5141679546625  17.9980853791112 11.8502490125365  17.2345086076812 11.8502490125365  L 2.76451785627364 11.8502490125365  C 2.00061657282868 11.8502490125365  1.38274569615942 12.5141679546625  1.38274569615942 13.3316160054955  L 1.38274569615942 14.8129829984543  C 1.38274569615942 15.6328353082604  2.00094108484382 16.2950369225485  2.76451785627364 16.2950369225485  L 4.243643620905 16.2950369225485  C 4.55160552319444 15.0194058045681  5.62346870892895 14.0724712347587  6.90950982460129 14.0724712347587  L 13.0869205432332 14.0724712347587  C 14.3752332430108 14.0724712347587  15.44547386867 15.0194058045681  15.7540847949895 16.2950369225485  L 17.2338595836511 16.2950369225485  C 17.9971118430659 16.2950369225485  18.6156317437652 15.6324918426927  18.6156317437652 14.8129829984543  L 18.6156317437652 13.3316160054955  Z " fill-rule="nonzero" fill="#999999" stroke="none" transform="matrix(1 0 0 1 880 369 )" />
  </g>
</svg>