<?xml version="1.0" encoding="utf-8"?>
<svg version="1.1" xmlns:xlink="http://www.w3.org/1999/xlink" width="20px" height="11px" xmlns="http://www.w3.org/2000/svg">
  <g transform="matrix(1 0 0 1 -715 -329 )">
    <path d="M 20 0  L 13.9797523262416 0  L 16.4601599604934 2.62665408930893  L 11.5429627863692 7.83155327875276  L 7.48984252461165 4.6208685362  C 7.47873086651565 4.61132092136012  7.46350109307343 4.60840501584356  7.4517558751069 4.60174748464044  C 7.40947800536227 4.57165957308569  7.3629845312046 4.55264173339533  7.31522391349301 4.53202404669112  C 7.272994764469 4.51669623936098  7.23624836341194 4.49682685762077  7.192581524499 4.48735665798695  C 7.14545449047068 4.4785057547848  7.10044742692266 4.48002821180918  7.05193144753877 4.48219578714509  C 7.00553543863519 4.48002821180918  6.96189298389517 4.47780904314701  6.91476592605423 4.4866083278063  C 6.87251241666991 4.49538181580238  6.83301246144916 4.51672203602411  6.79278145729105 4.53287558874091  C 6.74436294316125 4.55191922509447  6.69786944519084 4.57168539496549  6.65218010105156 4.60329576354469  C 6.64038616236429 4.61134674323992  6.62722761486915 4.61059841305927  6.61757803083524 4.62014602789914  L 0.293855655310584 9.60929473706449  C -0.0289913670425069 9.86460332853153  -0.096928387733975 10.3466808283818  0.145554115369735 10.6892856304536  C 0.296657930194892 10.9042877553347  0.5335846042506 11.012150084534  0.767757724142738 10.9989124373338  C 0.907043216107708 10.9923323213367  1.04491540235655 10.9409557828865  1.16546215741795 10.8485502947662  L 7.05059119909108 6.20275471785334  L 11.1737197074872 9.46915112431139  C 11.2118307173523 9.50148402640805  11.255448811732 9.51611509688373  11.2984333462409 9.53668119026167  C 11.3254814425434 9.54842217710065  11.3503851841925 9.56746581345415  11.37877350513 9.5770134535107  C 11.4653761340186 9.61081719408893  11.5575589761282 9.62617079808214  11.6497417944251 9.62175825742093  C 11.7453117267563 9.61587485306161  11.838834793501 9.58803193204882  11.9261440871539 9.54181626444041  C 11.955921353447 9.52783028705952  11.9802158955858 9.50218073804577  12.0071908869945 9.48313710169228  C 12.0466908422153 9.45521676547344  12.0910399855322 9.4346506720955  12.1263730808733 9.39653757750857  L 17.4911065557439 3.71841181663341  L 19.9999999761873 6.37515381749703  L 20 0  Z " fill-rule="nonzero" fill="#999999" stroke="none" transform="matrix(1 0 0 1 715 329 )" />
  </g>
</svg>