<?xml version="1.0" encoding="utf-8"?>
<svg version="1.1" xmlns:xlink="http://www.w3.org/1999/xlink" width="2px" height="8px" xmlns="http://www.w3.org/2000/svg">
  <g transform="matrix(1 0 0 1 -726 -339 )">
    <path d="M 0.72780975599251 1.62648418700384  C 0.694631756923601 1.66980438026213  0.653645806237757 1.6939394871596  0.615911244416522 1.72472348105993  C 0.591136502146973 1.74636892266521  0.56837669059231 1.77551267019481  0.540350559458281 1.79132936229416  C 0.457668834132496 1.84384667069666  0.369789460214011 1.87632950244  0.280627847488112 1.88218753337048  C 0.279963826567565 1.88297836081967  0.279963826567565 1.88297836081967  0.279963826567565 1.88297836081967  C 0.193343801127778 1.88713755390722  0.106792446674788 1.86968061543715  0.0254158728612508 1.83133975276333  C 0.0162570114498442 1.82794207707731  0.00847195016188426 1.82129321869757  0 1.81549375061625  L 0 7.14715755615426  C 0 7.61855385841838  0.298144185040926 8  0.666674296776369 8  L 1.33327990019008 8  C 1.7018329246301 8  2 7.61855385841838  2 7.14715755615426  L 1.99999999999987 0  L 0.72780975599251 1.62648418700384  Z " fill-rule="nonzero" fill="#999999" stroke="none" transform="matrix(1 0 0 1 726 339 )" />
  </g>
</svg>