<?xml version="1.0" encoding="utf-8"?>
<svg version="1.1" xmlns:xlink="http://www.w3.org/1999/xlink" width="20px" height="20px" xmlns="http://www.w3.org/2000/svg">
  <g transform="matrix(1 0 0 1 -984 -369 )">
    <path d="M 20 2.61437908496731  C 20 1.17049738606329  18.8295026139367 0  17.3856209150326 0  L 2.61437908496737 0  C 1.17049738606329 0  0 1.17049738606329  0 2.61437908496731  L 0 17.3856209150327  C 0 18.8295026139367  1.17049738606329 20  2.61437908496737 20  L 17.3856209150326 20  C 18.8295026139367 20  20 18.8295026139367  20 17.3856209150327  L 20 2.61437908496731  Z M 19 2.81045751633985  L 19 17.1895424836601  C 19.1503267973856 18.2705882352941  18.2705882352941 19.1503267973856  17.1895424836601 19  L 2.81045751633985 19  C 1.7294117647059 19.1503267973856  0.84967320261444 18.2705882352941  1 17.1895424836601  L 1 2.81045751633985  C 0.84967320261444 1.7294117647059  1.7294117647059 0.849673202614383  2.81045751633985 1  L 17.1895424836601 1  C 18.2705882352941 0.849673202614383  19.1503267973856 1.7294117647059  19 2.81045751633985  Z " fill-rule="nonzero" fill="#999999" stroke="none" transform="matrix(1 0 0 1 984 369 )" />
  </g>
</svg>