<?xml version="1.0" encoding="utf-8"?>
<svg version="1.1" xmlns:xlink="http://www.w3.org/1999/xlink" width="5px" height="5px" xmlns="http://www.w3.org/2000/svg">
  <g transform="matrix(1 0 0 1 -1030 -382 )">
    <path d="M 5 2.50000000000002  C 5 3.87499999560547  3.87499999560548 5  2.5 5  C 1.12500000439452 5  0 3.87499999560547  0 2.50000000000002  C 0 1.12500000439453  1.12500000439452 0  2.5 0  C 3.87499999560548 0  5 1.12500000439453  5 2.50000000000002  Z M 3.75000001464841 2.50000000000002  C 3.75000001464841 1.74999999707033  3.12499999267579 1.24999998535156  2.5 1.24999998535156  C 1.74999999707032 1.24999998535156  1.24999998535159 1.74999999707033  1.24999998535159 2.50000000000002  C 1.24999998535159 3.25000000292967  1.74999999707032 3.75000001464844  2.5 3.75000001464844  C 3.25000000292968 3.75000001464844  3.75000001464841 3.25000000292967  3.75000001464841 2.50000000000002  Z " fill-rule="nonzero" fill="#999999" stroke="none" transform="matrix(1 0 0 1 1030 382 )" />
  </g>
</svg>