<?xml version="1.0" encoding="utf-8"?>
<svg version="1.1" xmlns:xlink="http://www.w3.org/1999/xlink" width="15px" height="20px" xmlns="http://www.w3.org/2000/svg">
  <g transform="matrix(1 0 0 1 -584 -407 )">
    <path d="M 14.9999953190252 8.46213491858361  C 15.0025472066263 7.16205737916774  13.9613770653942 6.11010597053502  12.6828813772636 6.11010597053502  L 9.15617271259995 6.11010597053502  C 7.87767702446935 6.11010597053502  6.83905877083831 7.1646420263634  6.83905877083831 8.4569656241923  L 6.83905877083831 9.90695270095632  C 6.83905877083831 10.2558800723701  6.91561539887009 10.5996381493926  7.06362487973151 10.9149651072629  C 6.96154937568915 11.0958904109589  6.81609178242878 11.2845696562419  6.61449266194512 11.3827862496769  L 6.61194077434406 11.3853708968726  C 6.41289354146145 11.4861721375032  6.30316237461591 11.7032825019385  6.33633691342968 11.9281468079607  C 6.3720633398445 12.1504264667873  6.54303980911546 12.3235978288964  6.75995025520548 12.3571982424399  C 6.8900965228595 12.3778754200052  7.02024279051351 12.3882140087878  7.15038905816752 12.3882140087878  C 7.56124296193803 12.3882140087878  7.94147421449583 12.2848281209615  8.28087526543669 12.0832256397002  C 8.55903101395213 12.1995347635048  8.85504997567498 12.2563970018093  9.15617271259995 12.2589816490049  L 12.6828813772636 12.2589816490049  C 13.9613770653942 12.2589816490049  14.9999953190252 11.2044455931765  14.9999953190252 9.91212199534763  L 14.9999953190252 8.46213491858361  Z M 14.0991789958514 8.49573533212716  L 14.0966271082503 9.87593693460843  C 14.0966271082503 10.7107779788059  13.4254806691718 11.3905401912639  12.6012209740297 11.3905401912639  L 9.23272934063172 11.3905401912639  C 8.98519624332899 11.3905401912639  8.75297447163262 11.3310933057638  8.5360640255426 11.2147841819592  C 8.41357342069176 11.1501680020677  8.26811582743139 11.1605065908503  8.15583277298479 11.2432153011114  C 8.00782329212337 11.351770483329  7.84705437325665 11.4293098991988  7.67607790398569 11.4732489015249  C 7.80367228403864 11.3078314810028  7.89809212527783 11.1346601188938  7.96699309050642 10.9873352287413  C 8.01547895492655 10.8787800465237  8.00782329212337 10.7521323339364  7.94912987729901 10.6513310933058  C 7.81132794684182 10.4187128456966  7.73987509401217 10.1524941845438  7.73987509401217 9.88110622899974  L 7.73987509401217 8.49573533212716  C 7.73987509401217 7.6608942879297  8.4110215330907 6.9811320754717  9.23528122823278 6.9811320754717  L 12.6037728616308 6.9811320754717  C 13.4280325567728 6.9811320754717  14.0991789958514 7.6608942879297  14.0991789958514 8.49573533212716  Z M 9.66399834521071 9.16515895580253  C 9.66399834521071 8.82915482036702  9.3960501470995 8.55776686482295  9.06430475896182 8.55776686482295  C 8.96478114252052 8.55776686482295  8.86525752607922 8.58361333677953  8.77849334764321 8.63272163349703  C 8.61006876597331 8.72576893254071  8.49013004872353 8.89635564745412  8.467163060314 9.09537348151977  L 8.467163060314 9.24011372447661  C 8.49013004872353 9.44171620573792  8.61006876597331 9.61230292065133  8.77849334764321 9.70276557249935  C 8.86270563847816 9.7492892220212  8.96222925491946 9.77772034117343  9.06430475896182 9.77772034117343  C 9.3960501470995 9.77772034117343  9.66399834521071 9.5037477384337  9.66399834521071 9.16515895580253  Z M 11.5115649683775 9.20909795812872  C 11.5141168559785 8.8730938226932  11.2461686578673 8.60170586714913  10.9118713821286 8.60170586714913  C 10.5801259939909 8.60170586714913  10.3121777958797 8.8730938226932  10.3121777958797 9.20909795812872  C 10.3121777958797 9.54510209356423  10.5801259939909 9.8164900491083  10.9118713821286 9.8164900491083  C 11.2436167702663 9.8164900491083  11.5115649683775 9.54251744636857  11.5115649683775 9.20909795812872  Z M 13.3616834791453 9.24528301886792  C 13.3616834791453 8.90927888343241  13.0937352810341 8.63789092788834  12.7619898928964 8.63789092788834  C 12.7211596912795 8.63789092788834  12.6803294896625 8.64306022227966  12.6420511756466 8.65081416386663  C 12.6037728616308 8.65856810545361  12.5654945476149 8.6714913414319  12.5297681212 8.68699922460584  C 12.31285767511 8.78004652364952  12.1622963066475 8.99715688808478  12.1622963066475 9.24786766606358  C 12.1622963066475 9.49340914965107  12.3077538999079 9.71310416128198  12.5297681212 9.80873610752132  C 12.5654945476149 9.82424399069527  12.6037728616308 9.83716722667356  12.6420511756466 9.84492116826053  C 12.6803294896625 9.85267510984751  12.7211596912795 9.85784440423882  12.7619898928964 9.85784440423882  C 13.0937352810341 9.85784440423882  13.3642353667464 9.58387180149909  13.3616834791453 9.24528301886792  Z M 11.9606971861639 13.8588782631171  C 11.9581452985628 13.5513052468338  11.7131640888611 13.300594468855  11.4069375767341 13.300594468855  C 11.103262952208 13.300594468855  10.8557298549053 13.5513052468338  10.8557298549053 13.8588782631171  L 10.8557298549053 14.6885500129232  L 1.10241544365752 14.6885500129232  L 1.10241544365752 5  L 11.4094894643351 5  C 11.7131640888611 4.88239855259757  11.9606971861639 4.63168777461877  11.9606971861639 4.32411475833549  L 11.9606971861639 2.58981649004911  C 11.9606971861639 1.16309123804601  10.8148996532883 0  9.40370580990268 0  L 2.55699137626119 0  C 1.14834942047658 0  0 1.16050659085035  0 2.58981649004911  L 0 17.4101835099509  C 0 18.836908761954  1.14579753287552 20  2.55699137626119 20  L 9.40370580990268 20  C 10.8123477656873 20  11.9606971861639 18.8394934091497  11.9606971861639 17.4101835099509  L 11.9606971861639 13.8588782631171  Z M 1.10241544365752 3.7658309640734  L 1.10241544365752 2.58981649004911  C 1.10241544365752 1.77823727061256  1.75569866952864 1.11656758852417  2.55699137626119 1.11656758852417  L 9.40370580990268 1.11656758852417  C 10.2049985166352 1.11656758852417  10.8582817425064 1.77823727061256  10.8582817425064 2.58981649004911  L 10.8582817425064 3.7658309640734  L 1.10241544365752 3.7658309640734  Z M 10.8557298549053 17.4101835099509  C 10.8557298549053 18.2217627293874  10.2049985166352 18.8834324114758  9.40370580990268 18.8834324114758  L 2.55699137626119 18.8834324114758  C 1.75569866952864 18.8834324114758  1.10241544365752 18.2217627293874  1.10241544365752 17.4101835099509  L 1.10241544365752 15.8077022486431  L 10.8557298549053 15.8077022486431  L 10.8557298549053 17.4101835099509  Z M 6.91051162366797 17.3843370379943  C 6.91306351126903 16.8648229516671  6.49455394469534 16.4409408115792  5.97907264928141 16.4409408115792  C 5.46359135386747 16.4409408115792  5.04763367489484 16.8622383044714  5.04763367489484 17.3843370379943  C 5.04763367489484 17.9064357715172  5.46359135386747 18.3277332644094  5.97907264928141 18.3277332644094  C 6.49200205709428 18.3277332644094  6.91051162366797 17.9064357715172  6.91051162366797 17.3843370379943  Z " fill-rule="nonzero" fill="#999999" stroke="none" transform="matrix(1 0 0 1 584 407 )" />
  </g>
</svg>