<?xml version="1.0" encoding="utf-8"?>
<svg version="1.1" xmlns:xlink="http://www.w3.org/1999/xlink" width="20px" height="16px" xmlns="http://www.w3.org/2000/svg">
  <g transform="matrix(1 0 0 1 -613 -409 )">
    <path d="M 1.25 2.76066275390625  L 1.25 12.7393372460938  C 1.25 13.4356447460938  1.80976962890625 14  2.4925753515625 14  L 17.5074246289063 14  C 18.1903930078125 14  18.75 13.4366722460937  18.75 12.7393372460938  L 18.75 2.76066275390625  C 18.75 2.06435529296875  18.1902303710938 1.5  17.5074246289063 1.5  L 2.4925753515625 1.5  C 1.809606953125 1.5  1.25 2.06332771484375  1.25 2.76066275390625  Z M 0 2.76066275390625  C 0 1.3740619921875  1.1181421875 0.25  2.4925753515625 0.25  L 17.5074246289063 0.25  C 18.8840359960938 0.25  20 1.37743794921875  20 2.76066275390625  L 20 12.7393372460938  C 20 14.1259380078125  18.8818577539063 15.25  17.5074246289063 15  L 2.4925753515625 15  C 1.11596400390625 15.25  0 14.1225619921875  0 12.7393372460938  L 0 2.76066275390625  Z " fill-rule="nonzero" fill="#999999" stroke="none" transform="matrix(1 0 0 1 613 409 )" />
  </g>
</svg>