<?xml version="1.0" encoding="utf-8"?>
<svg version="1.1" xmlns:xlink="http://www.w3.org/1999/xlink" width="13px" height="8px" xmlns="http://www.w3.org/2000/svg">
  <g transform="matrix(1 0 0 1 -617 -413 )">
    <path d="M 3.75713435546875 0.83115240234375  L 2.67170017578125 0.83115240234375  L 0.26448728515625 7.08115240234375  L 1.27989345703125 7.08115240234375  L 1.866378046875 5.47050814453125  L 4.55370296875 5.47050814453125  L 5.140187578125 7.08115240234375  L 6.16434724609375 7.08115240234375  L 3.75713435546875 0.83115240234375  Z M 4.264837421875 4.68269302734375  L 2.15524359375 4.68269302734375  L 3.19691025390625 1.8553120703125  L 3.2319242578125 1.8553120703125  L 4.264837421875 4.68269302734375  Z M 9.05300275390625 0.83115240234375  L 6.77709232421875 0.83115240234375  L 6.77709232421875 7.08115240234375  L 9.0354957421875 7.08115240234375  C 10.0421483789062 7.08115240234375  10.8037030078125 6.80104037109375  11.3289130078125 6.24081626953125  C 11.8278626171875 5.6980991796875  12.0817141210938 4.9365445703125  12.0817141210938 3.95615240234375  C 12.0817141210938 2.9670067578125  11.8366161328125 2.20545212890625  11.34642 1.68024203125  C 10.82121 1.111264453125  10.0596553710938 0.83115240234375  9.05300275390625 0.83115240234375  Z M 7.731223984375 6.26707677734375  L 7.731223984375 1.645228046875  L 8.8779326171875 1.645228046875  C 9.66574775390625 1.645228046875  10.2434788671875 1.8290515625  10.6111259960938 2.20545212890625  C 10.9612659960938 2.5730991796875  11.1450894921875 3.1508302734375  11.1450894921875 3.95615240234375  C 11.1450894921875 4.74396751953125  10.9612659960938 5.3216986328125  10.6023725 5.6980991796875  C 10.2347253710938 6.07449974609375  9.6482407421875 6.26707677734375  8.860425625 6.26707677734375  L 7.731223984375 6.26707677734375  Z " fill-rule="nonzero" fill="#999999" stroke="none" transform="matrix(1 0 0 1 617 413 )" />
  </g>
</svg>