<?xml version="1.0" encoding="utf-8"?>
<svg version="1.1" xmlns:xlink="http://www.w3.org/1999/xlink" width="20px" height="20px" xmlns="http://www.w3.org/2000/svg">
  <g transform="matrix(1 0 0 1 -643 -409 )">
    <path d="M 20 10  C 20 4.48579710144928  15.5142028985507 0  10 0  C 4.48579710144925 0  0 4.48579710144928  0 10  C 0 15.5142028985507  4.48579710144925 20  10 20  C 15.5142028985507 20  20 15.5142028985507  20 10  Z M 18.8573913043478 10  C 18.8573913043478 14.8840579710145  14.8840579710145 18.8573913043479  10 18.8573913043479  C 5.11594202898554 18.8573913043479  1.1426086956522 14.8840579710145  1.1426086956522 10  C 1.1426086956522 5.11594202898551  5.11594202898554 1.14260869565215  10 1.14260869565215  C 14.8840579710145 1.14260869565215  18.8573913043478 5.11594202898551  18.8573913043478 10  Z " fill-rule="nonzero" fill="#999999" stroke="none" transform="matrix(1 0 0 1 643 409 )" />
  </g>
</svg>