<?xml version="1.0" encoding="utf-8"?>
<svg version="1.1" xmlns:xlink="http://www.w3.org/1999/xlink" width="14px" height="5px" xmlns="http://www.w3.org/2000/svg">
  <g transform="matrix(1 0 0 1 -713 -417 )">
    <path d="M 3.59068200757166 1.74904553591162  C 3.59068200757166 0.401282775773741  2.89430426988286 0.000595804445371992  2.25596942822854 0.000595804445371992  C 1.65389142919253 0.000595804445371992  1.26942290419953 0.346641066410321  0.972052899039598 0.838388062764693  L 0.957513691503725 0.838388062764693  L 0.957513691503725 0.665365445752655  C 0.957513691503725 0.264678446483481  0.812463485243448 0.000595804445371992  0.47876824138845 0.000595804445371992  C 0.145095788806746 0.000595804445371992  0 0.264678446483481  0 0.665365445752655  L 0 4.3352017472496  C 0 4.69034441431378  0.116062956281468 4.99997138855689  0.529541500269341 4.99997138855689  C 0.943020044257215 4.99997138855689  1.05908300053868 4.69034441431378  1.05908302279579 4.3352017472496  L 1.05908302279579 2.14057790719534  C 1.05908302279579 1.47580826588806  1.49430201539626 1.09337332764444  1.86425410186945 1.09337329970357  C 2.32125910337201 1.09337329970357  2.53159900703298 1.4758368493903  2.53159900703298 2.01309959444749  L 2.53159900703298 4.33523033075185  C 2.53159900703298 4.69037299781603  2.64768475458762 4.9999999720592  3.0611632985755 5  C 3.47464184256337 5.00000002794087  3.59068200757166 4.6903730257569  3.59068200757166 4.33523033075185  L 3.59068200757166 1.74904553591162  Z M 8.18965098778493 2.17696758347408  C 8.18962819651175 1.08421867171812  7.49325045882307 0.000595804445371992  6.27462360477748 0.000595804445371992  C 5.01969432556735 0.000595804445371992  4.27254332899777 1.03870297889704  4.27254332899777 2.58678059928559  C 4.27254332899777 3.74326865344508  4.8310948705191 4.99994277711378  6.3108576783796 4.99994277711378  C 6.9492153335642 4.99994277711378  7.97201870021152 4.62657666046715  7.97201870021152 3.82520266192873  C 7.97201870021152 3.57931485803003  7.79066606878658 3.30613478295182  7.53679970761092 3.30613478295182  C 7.10882753863365 3.30613478295182  7.10882753863365 3.96180701915987  6.31088046965278 3.961806991219  C 5.71559351329008 3.961806991219  5.35694460741436 3.48645247973277  5.33290250729328 2.8225983207826  C 5.33286425495241 2.82154999348716  5.33284512126609 2.82050070438566  5.33284512126609 2.81945127782149  C 5.33284512126609 2.78151839741576  5.35731058707186 2.75074791571985  5.38752706846071 2.75067719975529  L 7.72539916265918 2.75067719975529  C 8.08083483286967 2.75067719975529  8.18965098778493 2.63229632004754  8.18965098778493 2.17696758347408  Z M 5.40142818711805 1.98575010038183  C 5.37123491478151 1.98568283569709  5.34678680958443 1.95493694422157  5.34678680958443 1.91703320595669  C 5.34678680958443 1.91099501433742  5.34742076911543 1.90498316010139  5.3486723100395 1.89915295754641  C 5.47710954773054 1.30284281588057  5.79088744451512 0.929419476347652  6.29638684466337 0.929419504288524  C 6.74691985906031 0.929419504288524  7.09811684211114 1.33685804973003  7.17908515490814 1.90541816506744  C 7.18505580077451 1.94727201228247  7.15907666500212 1.98577871182495  7.12521261672801 1.98577871182495  L 5.40142818711805 1.98577871182495  Z M 13.9999999984206 0.619821141488533  C 14.0000227896938 0.273775879523584  13.7533804608682 0.000595804445371992  13.48499768343 0.000595804445371992  C 13.0932823570709 0.000595804445371992  13.0279926819273 0.264678446483481  12.9627029845268 0.647141996170209  L 12.4404310768968 3.56117721483605  L 12.4259146828913 3.56117721483605  L 11.9689096591317 0.911224638208319  C 11.8746327117522 0.383059326191228  11.773040611444 -0.017599061634833  11.2725319214429 0.000595804445371992  C 10.779270055065 -0.0176276451370735  10.6922171400355 0.392185370674511  10.6051870385364 0.911224638208319  L 10.1554516296733 3.56117721483605  L 10.1409352134107 3.56117721483605  L 9.58238364963214 0.647141996170209  C 9.50984715086535 0.264678446483481  9.45180427708809 0.000595804445371992  9.06011176425929 0.000595804445371992  C 8.79172900907816 0.000595804445371992  8.54508668025265 0.273775879523584  8.54508665799554 0.619821141488533  C 8.54508665799554 0.82016464112312  8.58134352287084 0.965866403453482  8.61762315676233 1.11156813784291  L 9.39378421684099 4.28056000994531  C 9.54610403799788 4.90888275208771  9.66216697202224 4.99997138855689  10.0828923396333 4.99997138855689  C 10.5253809248733 4.99997138855689  10.6341970797885 4.83604617664415  10.7429904211735 4.30788086462706  L 11.2652851200767 1.6944037986074  L 11.2798015363394 1.6944037986074  L 11.8020734439693 4.30788086462706  C 11.9108895766275 4.83607478808726  12.0196829402695 4.99997138855689  12.4621715255095 4.99997138855689  C 12.8828968931207 4.99997138855689  12.9989598494021 4.90888275208771  13.1512796483018 4.28056000994531  L 13.9274407083806 1.11156813784291  C 13.963720342272 0.965866375512611  13.9999999984206 0.820164613182248  13.9999999984206 0.619821141488533  Z " fill-rule="nonzero" fill="#999999" stroke="none" transform="matrix(1 0 0 1 713 417 )" />
  </g>
</svg>