<?xml version="1.0" encoding="utf-8"?>
<svg version="1.1" xmlns:xlink="http://www.w3.org/1999/xlink" width="48px" height="48px" xmlns="http://www.w3.org/2000/svg">
  <g transform="matrix(1 0 0 1 -614 -724 )">
    <path d="M 48 6.34375  C 47.90625 2.89197031355754  45.1080296864425 0.0937500000000002  41.65625 0  L 6.34375 0  C 2.89197031355754 0.09375  0.0937500000000002 2.89197031355754  0 6.34375  L 0 41.65625  C 0.0937500000000002 45.1080296864425  2.89197031355754 47.90625  6.34375 48  L 41.65625 48  C 45.1080296864425 47.90625  47.90625 45.1080296864425  48 41.65625  L 48 6.34375  Z M 45 6.8125  L 45 41.1875  C 45.875 43.771875  43.771875 45.875  41.1875 45  L 6.8125 45  C 4.228125 45.875  2.125 43.771875  3 41.1875  L 3 6.8125  C 2.125 4.228125  4.228125 2.125  6.8125 3  L 41.1875 3  C 43.771875 2.125  45.875 4.228125  45 6.8125  Z " fill-rule="nonzero" fill="#999999" stroke="none" transform="matrix(1 0 0 1 614 724 )" />
  </g>
</svg>