<?xml version="1.0" encoding="utf-8"?>
<svg version="1.1" xmlns:xlink="http://www.w3.org/1999/xlink" width="22px" height="3px" xmlns="http://www.w3.org/2000/svg">
  <g transform="matrix(1 0 0 1 -626 -746 )">
    <path d="M 10.14375 0.356249999999999  L 1.784375 0.356249999999999  C 1.2234608009531 0.356249999999999  0.768749999999999 0.810960800953097  0.768749999999999 1.371875  C 0.768749999999999 1.9327891990469  1.2234608009531 2.3875  1.784375 2.3875  L 10.14375 2.3875  L 10.14375 0.356249999999999  Z M 20.5359375 0.356248798077633  C 20.5354166664361 0.356248798077633  20.5348958329475 0.35624919871854  20.534375 0.356249999999999  L 12.178125 0.356249999999999  L 12.178125 2.3875  L 20.5375 2.3875  C 21.0978041024885 2.38663799368848  21.5515637019224 1.93217976556994  21.5515637019224 1.371875  C 21.5515637019224 0.810960137149706  21.0968523628503 0.356248798077633  20.5359375 0.356248798077633  Z " fill-rule="nonzero" fill="#999999" stroke="none" transform="matrix(1 0 0 1 626 746 )" />
  </g>
</svg>