<?xml version="1.0" encoding="utf-8"?>
<svg version="1.1" xmlns:xlink="http://www.w3.org/1999/xlink" width="33px" height="49px" xmlns="http://www.w3.org/2000/svg">
  <g transform="matrix(1 0 0 1 -849 -721 )">
    <path d="M 32.5925926083105 24.9016394070185  C 33.1358024638965 24.366120239498  33.1358024638965 23.5628415509734  32.5925926083105 23.0273224462091  C 31.506172833481 21.9562841739242  29.8765432030655 20.8852459643956  28.24691357265 19.8142076921107  C 30.1481481626872 17.6721312102972  31.2345678738593 14.9945355609632  31.2345678738593 12.049180390625  C 31.2345679375167 5.3551912986681  25.8024691270267 0  19.0123457094003 0  C 12.2222222917738 0  6.79012348128384 5.3551912986681  6.79012348128384 12.0491803278689  C 6.79012348128384 14.994535498207  7.87654325611333 17.672131147541  9.50617288652884 19.8142076293546  C 3.80246911641712 23.0273224462091  0 29.1857923706455  0 36.1475409836066  C 0 43.3770491803279  8.14814815207764 49  18.4691357901568 49  C 19.2839506053646 49  19.8271604609506 48.4644808952357  19.8271604609506 47.6612022067112  C 19.8271604609506 46.8579235181865  19.2839506053646 46.3224044134222  18.4691357901568 46.3224044134222  C 9.77777778249315 46.3224044134222  2.71604934158764 41.7704918660349  2.71604934158764 36.1475410463627  C 2.71604934158764 30.2568306429303  6.2469135620404 24.3661203022542  11.9506172684947 21.9562842366803  C 13.851851858532 23.2950819672131  16.2962963041553 24.0983606557377  19.0123457094003 24.0983606557377  C 21.7283951146453 24.0983606557377  24.1728395602685 23.2950819672131  26.0740740866484 21.9562841739242  C 27.7037037170639 22.7595628624488  29.6049383071012 23.8306011347336  30.6913580182732 25.1693989280225  C 30.962962977895 25.4371585117828  31.2345678738593 25.4371585117828  31.506172833481 25.4371585117828  C 31.7777777931027 25.4371585117828  32.049382689067 25.4371585117828  32.5925926083105 24.9016394070185  Z M 19.0123457094003 21.4207650691599  C 13.8518519221894 21.4207650691599  9.50617282287143 17.1366120427767  9.50617282287143 12.0491803278689  C 9.50617282287143 6.96174867571727  13.851851858532 2.67759564933405  19.0123457094003 2.67759564933405  C 24.1728395602685 2.67759564933405  28.5185185322717 6.96174867571727  28.5185185322717 12.0491803278689  C 28.5185185322717 17.1366119800205  24.1728394966112 21.4207650691599  19.0123457094003 21.4207650691599  Z " fill-rule="nonzero" fill="#999999" stroke="none" transform="matrix(1 0 0 1 849 721 )" />
  </g>
</svg>