<?xml version="1.0" encoding="utf-8"?>
<svg version="1.1" xmlns:xlink="http://www.w3.org/1999/xlink" width="26px" height="25px" xmlns="http://www.w3.org/2000/svg">
  <g transform="matrix(1 0 0 1 -873 -749 )">
    <path d="M 12.7346939194281 4.8913044032077  C 14.326530651584 4.8913044032077  15.6530611788057 4.07608694959903  16.7142856876366 3.26086955967922  C 17.2448979109616 3.53260871088208  17.7755101964676 3.80434779839618  18.3061224197925 4.07608694959903  C 18.0408162770395 5.70652172943864  18.3061224197925 7.33695650927825  19.1020407858704 8.69565213791501  C 19.8979591519484 10.0543477665517  21.2244897413512 11.1413043076744  22.5510203929352 11.6847825463913  C 22.5510203929352 11.9565216975942  22.5510203929352 12.2282607851082  22.5510203929352 12.4999999363111  C 22.5510203929352 12.771739087514  22.5510203929352 13.043478175028  22.5510203929352 13.3152173262309  C 21.2244898035324 13.8586955649478  19.8979591519484 14.9456521060705  19.1020407858704 16.3043477347073  C 18.3061224197925 17.663043363344  18.0408162770395 19.2934781431836  18.3061224197925 20.9239129230232  C 17.7755101964676 21.1956520742261  17.2448979109616 21.4673911617401  16.7142856876366 21.739130312943  C 15.6530611788057 20.6521737718203  14.0612244466498 20.1086955331034  12.4693877144939 20.1086955331034  C 10.8775509823381 20.1086955331034  9.28571425018221 20.6521737718203  8.22448974135122 21.739130312943  C 7.69387751802635 21.4673911617401  7.16326523252029 21.1956520742261  6.63265300919536 20.9239129230232  C 6.89795915194842 19.2934781431836  6.63265300919536 17.663043363344  5.83673464311743 16.3043477347073  C 5.30612241979251 14.6739130185565  4.24489797314271 13.8586956286367  2.65306124098685 13.3152173899197  C 2.65306124098685 13.0434782387169  2.65306124098685 12.7717391512029  2.65306124098685 12.4999999999999  C 2.65306124098685 12.2282608487971  2.65306124098685 11.9565217612831  2.65306124098685 11.6847826100801  C 3.97959183038965 11.1413043713633  5.30612248197365 10.0543478302405  6.10204084805158 8.69565220160388  C 6.89795921412951 7.33695657296712  7.16326535688257 5.70652179312751  6.89795921412951 4.0760870132879  C 7.42857143745443 3.80434786208505  7.9591837229605 3.53260877457094  8.48979594628537 3.26086962336809  C 9.55102045511636 4.34782616449075  11.1428571872722 4.8913044032077  12.7346939194281 4.8913044032077  Z M 15.9183673215587 0  C 15.3877550982338 1.35869562863676  14.0612244466498 2.17391301855657  12.4693877144939 2.17391301855657  C 10.8775509823381 2.17391301855657  9.81632647350714 1.35869562863676  9.02040810742921 0  C 6.89795915194842 0.543478238716954  5.0408162770395 1.63043477983961  3.44897954488364 3.26086955967922  C 4.24489791096157 4.34782610080188  4.24489791096157 5.97826088064149  3.44897954488364 7.33695650927825  C 2.65306117880571 8.69565213791501  1.59183673215586 9.23913044032072  0.265306142753004 9.23913044032072  L 0 9.23913044032072  C 0 10.0543478302405  0 11.1413043713633  0 12.4999999999999  C 0 13.8586956286367  0 14.6739130185565  0.530612223324926 15.7608695596792  L 0.79591836607793 15.7608695596792  C 2.12244895548079 15.7608695596792  3.44897960706478 16.576086949599  3.97959183038965 17.6630434907217  C 4.77551019646758 19.0217391193584  4.51020405371458 20.652173899198  3.97959183038965 21.7391304403208  C 5.57142856254557 23.3695652201604  7.42857143745443 24.456521761283  9.55102039293522 25  C 10.0816326162601 23.6413043713632  11.4081632678441 22.8260869814434  13 22.8260869814434  C 14.5918367321559 22.8260869814434  15.6530612409868 23.6413043713632  16.4489796070647 25  C 18.5714285625456 24.456521761283  20.4285714374544 23.3695652201604  22.0204081696103 21.7391304403208  C 21.2244898035324 20.652173899198  21.2244898035324 19.0217391193584  22.0204081696103 17.6630434907217  C 22.8163265356882 16.304347862085  23.8775510445192 15.7608695596792  25.2040816339221 15.7608695596792  L 25.4693877766751 15.7608695596792  C 25.7346939194281 14.6739130185565  26 13.5869565411227  26 12.4999999999999  C 26 11.4130434588773  26 10.3260869814435  25.4693877766751 9.23913044032072  L 25.2040816339221 9.23913044032072  C 23.8775510445192 9.23913044032072  22.5510203929352 8.42391305040091  22.0204081696103 7.33695650927825  C 21.2244898035324 5.97826088064149  21.4897959462854 4.34782610080188  22.0204081696103 3.26086955967922  C 19.8979591519484 1.63043477983961  18.0408162770395 0.543478238716954  15.9183673215587 0  Z " fill-rule="nonzero" fill="#999999" stroke="none" transform="matrix(1 0 0 1 873 749 )" />
  </g>
</svg>