<?xml version="1.0" encoding="utf-8"?>
<svg version="1.1" xmlns:xlink="http://www.w3.org/1999/xlink" width="11px" height="11px" xmlns="http://www.w3.org/2000/svg">
  <g transform="matrix(1 0 0 1 -880 -755 )">
    <path d="M 11 5.49999999999994  C 11 8.52499999033206  8.52499999033203 11  5.5 11  C 2.47500000966797 11  0 8.52499999033206  0 5.49999999999994  C 0 2.47500000966794  2.47500000966797 0  5.5 0  C 8.52499999033203 0  11 2.47500000966794  11 5.49999999999994  Z M 8.25000003222658 5.49999999999994  C 8.25000003222658 3.84999999355469  6.87499998388671 2.74999996777337  5.5 2.74999996777337  C 3.84999999355468 2.74999996777337  2.74999996777342 3.84999999355469  2.74999996777342 5.49999999999994  C 2.74999996777342 7.15000000644531  3.84999999355468 8.25000003222651  5.5 8.25000003222651  C 7.15000000644532 8.25000003222651  8.25000003222658 7.15000000644531  8.25000003222658 5.49999999999994  Z " fill-rule="nonzero" fill="#999999" stroke="none" transform="matrix(1 0 0 1 880 755 )" />
  </g>
</svg>