<?xml version="1.0" encoding="utf-8"?>
<svg version="1.1" xmlns:xlink="http://www.w3.org/1999/xlink" width="50px" height="26px" xmlns="http://www.w3.org/2000/svg">
  <g transform="matrix(1 0 0 1 -961 -723 )">
    <path d="M 50 0  L 34.9493808156039 0  L 41.1503999012337 6.20845512018469  L 28.8574069659232 18.5109441134155  L 18.7246063115291 10.9220529037455  C 18.6968271662893 10.8994858141239  18.6587527326838 10.8925936738121  18.6293896877674 10.8768576909683  C 18.5236950134057 10.8057408091116  18.4074613280115 10.7607895516616  18.2880597837325 10.7120568376335  C 18.1824869111726 10.6758274748532  18.09062090853 10.628863481649  17.9814538112474 10.6064793734237  C 17.8636362261767 10.5855590567639  17.7511185673068 10.589157591549  17.6298286188469 10.5942809514338  C 17.5138385965879 10.589157591549  17.404732459738 10.5839122838021  17.2869148151355 10.6047105929967  C 17.1812810416747 10.6254479282602  17.082531153623 10.6758884487843  16.9819536432278 10.7140695733875  C 16.8609073579031 10.7590818047687  16.7446736129772 10.8058018426457  16.6304502526291 10.8805172592874  C 16.600965405911 10.899546847658  16.5680690371729 10.897778067231  16.5439450770882 10.9203451568526  L 0.734639138276488 22.7128784694251  C -0.0724784176061964 23.3163351401654  -0.242320969334912 24.4557910489023  0.363885288424375 25.2655842174356  C 0.741644825487345 25.7737710580638  1.33396151062676 26.0287183816259  1.91939431035704 25.9974293973344  C 2.2676080402693 25.9818763958868  2.61228850589157 25.8604409413681  2.91365539354498 25.6420279694474  L 17.6264779977279 14.6610566058351  L 27.9342992687182 22.3816299301905  C 28.0295767933807 22.4580531533281  28.1386220293298 22.4926356835433  28.2460833656024 22.5412464497094  C 28.3137036063586 22.5689978731469  28.3759629604813 22.6140101045279  28.4469337628249 22.6365772537526  C 28.6634403350464 22.7164770042101  28.8938974403206 22.7527673409213  29.124354486063 22.7423376993585  C 29.124354486063 22.7423376993585  29.124354486063 22.7423376993585  29.1260602470729 22.7423376993585  C 29.3632793168909 22.7284314708728  29.5970869837524 22.662620930297  29.8153602178848 22.5533838977682  C 29.8898033836176 22.5203261330498  29.9505397389646 22.45969992629  30.0179772174865 22.414687694909  C 30.1167271055383 22.3486941729372  30.2275999638307 22.3000834067711  30.3159327021833 22.2099979104748  L 43.7277663893598 8.78897338476981  L 50 15.0685453868112  L 50 0  Z " fill-rule="nonzero" fill="#999999" stroke="none" transform="matrix(1 0 0 1 961 723 )" />
  </g>
</svg>