<?xml version="1.0" encoding="utf-8"?>
<svg version="1.1" xmlns:xlink="http://www.w3.org/1999/xlink" width="6px" height="18px" xmlns="http://www.w3.org/2000/svg">
  <g transform="matrix(1 0 0 1 -990 -750 )">
    <path d="M 2.18342926797736 3.65958942075867  C 2.08389527077076 3.75705985558973  1.96093741871336 3.8113638461091  1.84773373324952 3.88062783238474  C 1.77340950644087 3.92933007599662  1.70513007177694 3.99490350793827  1.62105167837465 4.0304910651618  C 1.37300650239735 4.14865500906741  1.10936838064215 4.22174138048992  0.841883542464372 4.23492195008361  C 0.839891479702732 4.23670131184435  0.839891479702732 4.23670131184435  0.839891479702732 4.23670131184435  C 0.580031403383294 4.24605949629117  0.320377340024312 4.20678138473353  0.0762476185834952 4.12051444371745  C 0.0487710343495348 4.11286967342384  0.0254158504855236 4.09790974206952  0 4.08486093888651  L 0 16.0811045013471  C 0 17.1417461814413  0.894432555122622 18  2.00002289032893 18  L 3.99983970057029 18  C 5.10549877389058 18  6 17.1417461814413  6 16.0811045013471  L 5.99999999999993 0  L 2.18342926797736 3.65958942075867  Z " fill-rule="nonzero" fill="#999999" stroke="none" transform="matrix(1 0 0 1 990 750 )" />
  </g>
</svg>