<?xml version="1.0" encoding="utf-8"?>
<svg version="1.1" xmlns:xlink="http://www.w3.org/1999/xlink" width="19px" height="18px" xmlns="http://www.w3.org/2000/svg">
  <g transform="matrix(1 0 0 1 -781 -412 )">
    <path d="M 18.125 15.625  C 18 16.75  16.875 17.75  15.625 17.75  L 2.625 17.75  C 1.375 17.75  0.5 16.75  0.5 15.625  L 0.5 2.5  C 0.5 1.25  1.5 0.25  2.75 0.25  L 11.5 0.25  L 11.5 1.375  L 2.75 1.375  C 2 1.375  1.5 1.875  1.5 2.5  L 1.5 15.625  C 1.5 16.25  2 16.75  2.625 16.75  L 15.75 16.75  C 16.375 16.75  17 16.25  17 15.625  L 17 6.875  L 18.125 6.875  L 18.125 15.625  Z M 17.625 3.875  L 9.125 12.5  C 9 12.625  8.75 12.75  8.625 12.75  L 3.875 15.125  C 3.375 15.375  2.875 14.875  3.125 14.375  L 5.5 9.625  C 5.5 9.375  5.625 9.25  5.75 9  L 14.25 0.5  C 14.625 0.125  15.375 0.125  15.75 0.5  L 17.625 2.375  C 18 2.75  18 3.5  17.625 3.875  Z M 5.875 10.75  L 4.125 13.75  C 4 14  4.25 14.25  4.5 14.125  L 7.5 12.375  L 5.875 10.75  Z M 6.5 9.75  C 6.625 10  6.625 10  6.875 10.125  L 8 11.25  L 8.375 11.625  L 14.5 5.5  L 12.5 3.625  L 6.5 9.75  Z M 16.5 3.625  C 16.625 3.375  16.625 3.125  16.5 2.875  L 15.25 1.75  C 15 1.5  14.75 1.5  14.5 1.75  L 13.375 2.875  L 15.25 4.75  L 16.5 3.625  Z " fill-rule="nonzero" fill="#999999" stroke="none" transform="matrix(1 0 0 1 781 412 )" />
  </g>
</svg>