<?xml version="1.0" encoding="utf-8"?>
<svg version="1.1" xmlns:xlink="http://www.w3.org/1999/xlink" width="10px" height="8px" xmlns="http://www.w3.org/2000/svg">
  <g transform="matrix(1 0 0 1 -886 -416 )">
    <path d="M 9.76117193359375 1.8617897265625  C 10.028230859375 1.56091369140625  10.017158359375 1.109499765625  9.7414253125 0.826291777343751  C 9.7414253125 0.826291777343751  9.7314720703125 0.8155390625  9.7259158203125 0.81080228515625  C 9.71914041015625 0.80422673828125  9.70393072265625 0.79277451171875  9.70393072265625 0.79277451171875  C 9.39563974609375 0.550298906249999  8.94312654296875 0.586154609375  8.6787258203125 0.87985546875  L 4.32963451171875 5.71014052734375  L 2.197759921875 3.169443125  C 1.928802265625 2.84888046875  1.44816814453125 2.8066491015625  1.1268859765625 3.07626630859375  C 0.8040248828125 3.34716263671875  0.762572988281249 3.82507861328125  1.03270982421875 4.1470603125  L 3.72192654296875 7.351927421875  C 3.99088419921875 7.672490078125  4.471458359375 7.7147214453125  4.7927805078125 7.44510423828125  C 4.82853626953125 7.4151045703125  4.8606544921875 7.38244671875  4.8894549609375 7.34787015625  L 9.76117193359375 1.8617897265625  Z " fill-rule="nonzero" fill="#999999" stroke="none" transform="matrix(1 0 0 1 886 416 )" />
  </g>
</svg>