<?xml version="1.0" encoding="utf-8"?>
<svg version="1.1" xmlns:xlink="http://www.w3.org/1999/xlink" width="20px" height="16px" xmlns="http://www.w3.org/2000/svg">
  <g transform="matrix(1 0 0 1 -950 -413 )">
    <path d="M 4.96350364963504 3.69154709129994  L 5.10948905109488 3.54201606988014  L 8.61313868613137 0.700926662905061  C 9.63503649635039 -0.0467284441936582  10.8029197080291 -0.19625946561339  11.970802919708 0.252333598645804  L 17.5182481751825 2.49529891994196  C 17.9562043795621 2.64482994136169  18.2481751824818 2.64482994136169  18.6861313868613 2.64482994136169  L 19.5620437956205 2.64482994136169  C 19.8540145985402 2.64482994136169  20 2.79436096278142  20 3.09342300562095  L 20 10.1213810123488  C 20 10.4204430551883  19.7080291970803 10.5699740766081  19.5620437956205 10.5699740766081  L 18.3941605839416 10.5699740766081  C 18.2481751824818 10.5699740766081  18.1021897810219 10.5699740766081  17.9562043795621 10.7195050980278  L 17.6642335766424 11.0185671408673  L 17.3722627737227 11.0185671408673  L 10.9489051094891 2.94389198420122  C 10.8029197080291 2.64482994136169  10.5109489051095 2.64482994136169  10.3649635036496 2.79436096278142  L 7.4452554744525 4.43920219839859  C 6.71532846715328 4.88779526265785  5.98540145985394 4.88779526265785  5.40145985401457 4.58873321981839  C 4.96350364963504 4.43920219839859  4.8175182481752 4.14014015555913  4.96350364963504 3.69154709129994  Z M 0 10.2709120337686  C 0 10.4204430551883  0.291970802919687 10.7195050980278  0.583941605839373 10.7195050980278  L 1.6058394160584 10.7195050980278  L 2.33576642335762 9.82231896950936  C 3.06569343065695 8.92513284099091  4.2335766423357 8.77560181957117  4.96350364963504 9.52325692666989  C 5.25547445255473 9.82231896950936  5.54744525547441 10.1213810123488  5.54744525547441 10.4204430551883  C 6.13138686131391 10.5699740766081  6.71532846715328 11.1680981622871  6.86131386861312 11.766222247966  C 7.29927007299265 11.9157532693857  7.73722627737231 12.2148153122252  7.88321167883215 12.6634083764844  C 8.32116788321168 12.6634083764844  8.61313868613137 12.962470419324  8.90510948905105 13.2615324621634  C 9.48905109489055 13.8596565478424  9.63503649635039 14.9063736977806  9.19708029197074 15.6540288048793  L 9.0510948905109 15.803559826299  C 9.48905109489055 16.1026218691385  10.2189781021898 16.1026218691385  10.5109489051095 15.5044977834596  C 10.6569343065693 15.2054357406201  10.8029197080291 14.9063736977806  10.6569343065693 14.6073116549411  L 10.8029197080291 14.7568426763609  C 11.2408759124088 15.2054357406201  11.8248175182482 15.2054357406201  12.2627737226277 14.9063736977806  C 12.5547445255475 14.6073116549411  12.8467153284672 14.1587185906819  12.7007299270073 13.8596565478424  L 12.8467153284672 14.0091875692621  C 13.2846715328467 14.4577806335214  13.7226277372262 14.4577806335214  14.3065693430657 14.1587185906819  C 14.5985401459854 13.8596565478424  14.8905109489051 13.4110634835832  14.7445255474453 13.1120014407437  L 14.8905109489051 13.2615324621634  C 15.1824817518248 13.5605945050029  15.7664233576643 13.7101255264227  16.2043795620438 13.4110634835832  C 16.7883211678832 13.1120014407437  16.934306569343 12.364346333645  16.6423357664234 11.9157532693857  L 16.4963503649635 11.766222247966  L 15.7664233576643 10.8690361194475  L 10.5109489051095 3.9906091341394  C 10.5109489051095 3.9906091341394  10.3649635036496 3.84107811271967  10.2189781021898 3.9906091341394  L 7.59124087591234 5.48591934833684  C 6.86131386861312 5.93451241259603  5.8394160583941 5.93451241259603  4.96350364963504 5.63545036975657  C 4.52554744525551 5.48591934833684  4.08759124087586 5.03732628407758  3.94160583941601 4.58873321981839  C 3.79562043795617 3.9906091341394  3.94160583941601 3.54201606988014  4.08759124087586 3.09342300562095  C 4.08759124087586 2.94389198420122  4.08759124087586 2.79436096278149  3.94160583941601 2.79436096278149  L 0.43795620437953 2.79436096278149  C 0.145985401459843 2.79436096278149  0 2.94389198420122  0 3.24295402704068  L 0 10.2709120337686  Z M 4.37956204379554 11.168098162287  C 4.8175182481752 11.0185671408673  4.67153284671535 10.4204430551883  4.2335766423357 10.1213810123488  C 3.79562043795617 9.97184999092909  3.35766423357664 9.97184999092909  3.06569343065695 10.4204430551883  L 2.33576642335762 11.3176291837068  C 2.04379562043793 11.766222247966  2.04379562043793 12.364346333645  2.48175182481746 12.6634083764844  L 2.6277372262773 12.8129393979042  C 2.91970802919711 13.1120014407437  3.35766423357664 13.1120014407437  3.64963503649633 12.962470419324  C 3.64963503649633 13.2615324621634  3.64963503649633 13.7101255264227  3.94160583941601 13.8596565478424  L 4.08759124087586 13.8596565478424  C 4.37956204379554 14.0091875692621  4.67153284671535 14.1587185906819  5.10948905109488 14.0091875692621  C 5.10948905109488 14.3082496121016  5.25547445255473 14.6073116549411  5.40145985401457 14.9063736977806  C 5.69343065693426 15.2054357406201  6.13138686131391 15.2054357406201  6.42335766423359 15.0559047192003  C 6.42335766423359 15.3549667620398  6.56934306569344 15.5044977834596  6.71532846715328 15.6540288048793  C 7.15328467153281 15.9530908477188  7.73722627737231 15.9530908477188  8.02919708029199 15.5044977834596  C 8.02919708029199 15.5044977834596  8.02919708029199 15.3549667620398  8.17518248175184 15.3549667620398  L 8.32116788321168 15.0559047192003  C 8.61313868613137 14.6073116549411  8.46715328467152 14.1587185906819  8.17518248175184 13.8596565478424  C 7.88321167883215 13.5605945050029  7.4452554744525 13.5605945050029  7.15328467153281 13.7101255264227  C 7.15328467153281 13.2615324621634  6.71532846715328 12.8129393979042  6.27737226277375 12.6634083764844  L 5.8394160583941 12.6634083764844  C 5.69343065693426 12.6634083764844  5.69343065693426 12.5138773550647  5.69343065693426 12.5138773550647  C 5.8394160583941 12.0652842908055  5.69343065693426 11.4671602051265  5.25547445255473 11.3176291837068  C 4.96350364963504 11.168098162287  4.67153284671535 11.168098162287  4.52554744525551 11.3176291837068  C 4.37956204379554 11.3176291837068  4.37956204379554 11.168098162287  4.37956204379554 11.168098162287  Z " fill-rule="nonzero" fill="#999999" stroke="none" transform="matrix(1 0 0 1 950 413 )" />
  </g>
</svg>