<?xml version="1.0" encoding="utf-8"?>
<svg version="1.1" xmlns:xlink="http://www.w3.org/1999/xlink" width="20px" height="20px" xmlns="http://www.w3.org/2000/svg">
  <g transform="matrix(1 0 0 1 -984 -409 )">
    <path d="M 0.575184882812452 19.9998490941851  C 0.87803732421866 20.0021970278641  15.0557577148437 19.9763695620612  15.3539147851562 19.9763695620612  C 15.6497241601562 19.9763695620612  15.8891888867188 19.7180949235652  15.8985796484375 19.3870337940852  L 15.9032750390624 19.1804140871951  L 15.9126658203125 19.1804140871951  C 15.91970890625 19.0301451988023  15.9244042968749 18.8986599361086  15.9244042968749 18.7718705603064  C 15.9244042968749 15.2194202604304  13.9546895507813 12.0755134874433  10.9050358203125 10.7606607628395  L 10.5622725781249 10.6127398276591  L 10.8651250195313 10.394380354707  C 12.3253903124999 9.33780226859918  13.1963845507813 7.57214289835029  13.1963845507813 5.67499826540774  C 13.1963845507813 2.54517919216158  10.8486911523437 0  7.96102828125002 0  C 5.0733654101562 0  2.72567201171877 2.54517919216158  2.72567201171877 5.67499826540774  C 2.72567201171877 7.57214291788371  3.59666626953116 9.33780228813255  5.05693154296877 10.394380354707  L 5.35978398437497 10.6127398276591  L 5.01702074218752 10.7606607628395  C 1.96971474609367 12.0778614211223  0 15.2217681941094  0 18.7718705603063  C 0 18.8986599361086  0.00469539062494917 19.0277972455899  0.0117384765624868 19.1804140871951  L 0.0258246289061757 19.1804140871951  L 0.0281723242187641 19.39172970051  C 0.0281723242187641 19.7274867364148  0.274680136718717 19.9998490941851  0.575184882812452 19.9998490941851  Z M 14.0086864648437 11.1269411514386  C 15.3797394140625 11.2912977395724  16.6193215234374 12.0003790237135  17.5090973046874 13.1297436008053  C 18.3941777148437 14.2544122714724  18.8824979296874 15.7312736309975  18.8824979296874 17.287965341144  C 18.8824979296874 17.6307662366859  19.1337011132812 17.9078244813476  19.4412489648437 17.9078244813476  C 19.7394060351562 17.9078244813476  19.9835661328124 17.6472018896393  19.9953046093749 17.3137928069469  L 19.9976523046874 17.2950092007811  C 19.9976523046874 17.2926612475688  19.9976523046874 17.287965341144  20 17.2856173879316  C 19.9953046093749 14.3295467156688  18.3566146289062 11.7162769194146  15.8211057617187 10.6244795741876  L 15.4783425195312 10.4765586390072  L 15.7811949609375 10.2581991660551  C 16.9949524414062 9.38241334056786  17.7203897070312 7.91729172757122  17.7203897070312 6.33946845804668  C 17.7203897070312 4.15587374805942  16.361075234375 2.28220862770742  14.41014203125 1.76800730392784  L 14.3984035546875 1.77270321035264  L 14.3444066015624 1.76800730392784  C 14.3326681249999 1.76800730392784  14.3209296679687 1.76565935071547  14.3091911914062 1.76331139750305  C 14.3044958007812 1.76331139750305  14.2998004101562 1.76096344429068  14.2951050390624 1.76096344429068  C 13.9828618164062 1.76096344429068  13.7293109375 2.0450655485896  13.7293109375 2.39021439734395  C 13.7293109375 2.70249192065815  13.9312125781249 2.96311451236652  14.2105880859374 3.01007353754763  L 14.2364127148437 3.01476944397242  L 14.2598896484374 3.02416125682201  C 14.2880619726562 3.03590102288396  14.3279727539063 3.04998872262493  14.3796220117187 3.06407642236589  C 14.3913604882812 3.06642437557831  14.3984035546875 3.06877232879068  14.4030989453124 3.07112028200305  C 15.68493953125 3.54071053381395  16.5465430078125 4.83677965225194  16.5465430078125 6.292509452399  C 16.5465430078125 7.91963970031701  15.4759948242187 9.316670709221  13.9969479882812 9.63129618574763  L 13.9734710546875 9.6453838854886  L 13.9241694921875 9.64773183870103  C 13.5743631835938 9.67121135129157  13.2996830468749 9.99288068745537  13.2996830468749 10.3779446822202  C 13.2996830468749 10.7724004898347  13.5814062499999 11.0940698259985  13.9406033398438 11.1105054789518  L 13.9875572070312 11.1128534321642  L 14.0086864648437 11.1269411514386  Z " fill-rule="nonzero" fill="#999999" stroke="none" transform="matrix(1 0 0 1 984 409 )" />
  </g>
</svg>