<?xml version="1.0" encoding="utf-8"?>
<svg version="1.1" xmlns:xlink="http://www.w3.org/1999/xlink" width="19px" height="10px" xmlns="http://www.w3.org/2000/svg">
  <g transform="matrix(1 0 0 1 -615 -474 )">
    <path d="M 9.67373820634903 5.24261495120365  C 10.1729723760506 5.29699084538064  10.6737467581225 5.33630539208706  11.286032515821 5.39289619030386  C 11.0640365728151 5.01713771995229  10.9009794231882 4.76452791421347  10.7602040125216 4.49818570342789  C 10.4304958844033 3.87435798061908  10.3635479866975 3.22993165024013  10.7701640525178 2.62426614055766  C 11.1508018696884 2.05725070636964  11.7199616810119 1.96776858316183  12.293126044499 2.15459573891871  C 12.7946191923439 2.31816640225773  13.2903622140055 2.54452959512497  13.7447248633122 2.82582240817917  C 15.1761982404838 3.71167327889597  16.6673291768074 4.42830548097227  18.2789047205063 4.83141801621532  C 18.764995744646 4.95312699320218  19.0074251717676 5.24571581685934  18.9998267907397 5.80254269246431  C 18.9850407519825 6.89105728282252  19.0011616414607 7.98012559919067  18.9932552179587 9.06886167995287  C 18.9887372616718 9.70088454770892  18.7315217957931 9.98073767313727  18.1433660318996 9.98162363475319  C 14.823900330931 9.98649642364075  11.5032024600659 10.0364425097382  8.18568769476652 9.94762485774231  C 7.32974034005002 9.92470060093041  6.45140856554845 9.54285114446942  5.63971664627863 9.17927464633673  C 3.28247295359307 8.12398361657548  1.4711832058485 6.39381132588809  0.338921751858757 3.89096976091754  C -0.0379168747978794 3.05794435154992  -0.0836098417903219 2.1852721598699  0.11846602122336 1.30207917400085  C 0.383177187305314 0.145456284418886  1.27054487438058 -0.332852242975249  2.23872237049645 0.246345163431651  C 2.83930251417889 0.605602598686714  3.33997421542618 1.16220798388769  3.87483863129932 1.64383886734154  C 4.016948892687 1.7718603208418  4.13944711655658 1.9376458882206  4.23771266579646 2.10830424448695  C 5.49052140798645 4.28455820878946  7.46373881628632 5.00263009849165  9.67373820634903 5.24261495120365  Z M 9.35203918255741 9.00374350118285  C 10.5496056410577 8.98159446078487  11.7478908653309 8.9999781643152  12.9457653663054 8.9999781643152  C 14.4859777368365 8.9999781643152  16.0262927881922 8.98945737012616  17.566299797074 9.0076195832525  C 17.9295845548699 9.0118279009281  18.0955167675884 8.92998719665759  18.0782663890386 8.49254364879771  C 18.0484889498749 7.73715062602497  18.0548551610065 6.97887822800046  18.0769315383175 6.22293147921778  C 18.0864808550147 5.8975620757716  17.9661389284639 5.77219850711909  17.692802573107 5.69312643289832  C 16.0985800887826 5.23198341181262  14.6002614947298 4.52786541756115  13.1827527097177 3.61410675594292  C 12.863518025719 3.40834217064578  12.5100906270944 3.24488225250875  12.15317208043 3.13446928612489  C 11.9662929794723 3.0765495454842  11.6007492435329 3.11010534168711  11.5564938080862 3.21763893281926  C 11.4678802563684 3.43292760548753  11.4819475293526 3.75508539807599  11.5680967412776 3.98255604296313  C 11.6884386678285 4.30050551787599  11.9312788182488 4.56153195896608  12.0899206924136 4.86619200964013  C 12.4554644283529 5.56754137384185  12.0510046598514 6.33622382085338  11.3038989793191 6.36346714054287  C 11.0142363728346 6.3740986799339  10.7226228306807 6.34441896580062  10.4325495008973 6.32337737742254  C 7.56036147233093 6.11495490727765  4.95586235376282 5.33364750723927  3.31820588058937 2.46855838655993  C 3.21254731197093 2.28361389923688  3.0571912241967 2.12358708236156  2.9015270939484 1.98172247861257  C 2.58906934437999 1.69699656429667  2.28154027439724 1.39499439847034  1.93345227865722 1.16918493161306  C 1.42240981411503 0.837724542057429  1.07442449919969 0.980364362220367  1.021235832004 1.60640698906895  C 0.971538312848211 2.1919168719893  0.971435632023523 2.85085082382889  1.17453830328421 3.37622606206873  C 1.45906686853364 4.11201718408928  1.8758483359993 4.82743118894368  2.36953774116691 5.42268664963911  C 4.22323466951353 7.65841078741019  6.47122596471606 9.05701194333998  9.35203918255741 9.00374350118285  Z " fill-rule="nonzero" fill="#1abc9c" stroke="none" transform="matrix(1 0 0 1 615 474 )" />
  </g>
</svg>