<?xml version="1.0" encoding="utf-8"?>
<svg version="1.1" xmlns:xlink="http://www.w3.org/1999/xlink" width="20px" height="20px" xmlns="http://www.w3.org/2000/svg">
  <g transform="matrix(1 0 0 1 -718 -464 )">
    <path d="M 20 3.13829787234042  C 20 1.7021276595745  19.0651558073655 0.611702127659584  17.3371104815865 0.611702127659584  L 16.0056657223796 0.611702127659584  C 15.6373937677055 0.611702127659584  15.2124645892352 0.824468085106389  15.2124645892352 1.17021276595747  C 15.2124645892352 1.51595744680853  15.6373937677055 1.86170212765958  16.0056657223796 1.86170212765958  L 17.3371104815865 1.86170212765958  C 18.130311614731 1.86170212765958  18.6685552407931 2.36702127659578  18.6685552407931 3.11170212765961  L 18.6685552407931 17.5  C 18.6685552407931 18.2446808510638  18.130311614731 18.75  17.3371104815865 18.75  L 3.00283286118975 18.75  C 2.20963172804534 18.75  1.33144475920687 18.2446808510638  1.33144475920687 17.5  L 1.33144475920687 3.11170212765961  C 1.33144475920687 2.36702127659578  1.86968838526911 1.86170212765958  2.66288951841352 1.86170212765958  L 4.33427762039662 1.86170212765958  C 4.70254957507075 1.86170212765958  4.84419263456084 1.51595744680853  4.84419263456084 1.17021276595747  C 4.84419263456084 0.824468085106389  4.70254957507075 0.611702127659584  4.33427762039662 0.611702127659584  L 2.66288951841352 0.611702127659584  C 0.793201133144407 0.611702127659584  0 1.7021276595745  0 3.13829787234042  L 0 17.3670212765957  C 0 18.9095744680851  0.991501416430651 20  2.80453257790361 20  L 17.1954674220964 20  C 19.0084985835693 20  20 19.0957446808511  20 17.3670212765957  L 20 3.13829787234042  Z M 5.01416430594907 6  C 4.64589235127471 5.61170212765958  4.33427762039662 5.90425531914894  4.33427762039662 6.25  C 4.33427762039662 6.59574468085106  4.64589235127471 6.88829787234044  5.01416430594907 7  L 15.0141643059491 7  C 15.3824362606232 6.88829787234044  15.6940509915014 6.59574468085106  15.6940509915014 6.25  C 15.6940509915014 5.90425531914894  15.3824362606232 5.61170212765958  15.0141643059491 6  L 5.01416430594907 6  Z M 15.6940509915014 9.70744680851061  C 15.6657223796034 9.33510638297872  15.3541076487253 9.06914893617022  14.9858356940509 9.06914893617022  L 5.01416430594907 9.06914893617022  C 4.64589235127471 9.06914893617022  4.33427762039662 9.36170212765958  4.33427762039662 9.70744680851061  C 4.33427762039662 10.0531914893617  4.64589235127471 10.3457446808511  5.01416430594907 10  L 15.0141643059491 10  C 15.3824362606232 10.3457446808511  15.6940509915014 10.0531914893617  15.6940509915014 9.70744680851061  Z M 15.6940509915014 13.4574468085106  C 15.6657223796034 13.0851063829787  15.3541076487253 12.8191489361702  14.9858356940509 12.8191489361702  L 5.01416430594907 12.8191489361702  C 4.64589235127471 12.8191489361702  4.33427762039662 13.1117021276596  4.33427762039662 13.4574468085106  C 4.33427762039662 13.8031914893617  4.64589235127471 14.0957446808511  5.01416430594907 14  L 15.0141643059491 14  C 15.3824362606232 14.0957446808511  15.6940509915014 13.8031914893617  15.6940509915014 13.4574468085106  Z M 6.68555240793194 1.09042553191492  C 6.68555240793194 1.67553191489361  7.13881019830035 2.18085106382981  7.70538243626072 2.18085106382981  L 12.3512747875354 2.18085106382981  C 12.8895184135978 2.18085106382981  13.342776203966 1.67553191489361  13.342776203966 1.09042553191492  C 13.342776203966 0.505319148936195  12.8895184135978 0  12.3229461756374 0  L 7.70538243626072 0  C 7.13881019830035 0  6.68555240793194 0.505319148936195  6.68555240793194 1.09042553191492  Z " fill-rule="nonzero" fill="#1abc9c" stroke="none" transform="matrix(1 0 0 1 718 464 )" />
  </g>
</svg>