<?xml version="1.0" encoding="utf-8"?>
<svg version="1.1" xmlns:xlink="http://www.w3.org/1999/xlink" width="18px" height="20px" xmlns="http://www.w3.org/2000/svg">
  <g transform="matrix(1 0 0 1 -752 -464 )">
    <path d="M 3.24524324785185 12.6401587893767  L 2.16141665865482 13.1964427906545  L 0.129595533215252 8.0209628415933  C -0.0486840362872386 7.54331584573168  -0.0430243674141253 7.01906914295679  0.146574539834476 6.53850966541313  C 0.327683943773407 6.07833755964404  0.653114903976148 5.71427734938371  1.0662707317118 5.50749114995583  L 11.8451101005136 0.171824708380058  C 12.7195289414061 -0.26213506225028  13.7212903319431 0.154349818287557  14.0778494709479 1.10090636496446  L 16.1294794374433 6.56180951886981  L 15.0371633449368 7.1035311117372  L 12.9855333784413 1.64554043951398  C 12.8893190075988 1.39506701485482  12.5865267228884 1.29604263766402  12.3176924514166 1.42710431335775  L 1.53885308261479 6.76277075493351  C 1.39736136078754 6.83267031530352  1.28982765219885 6.95208206426892  1.23040112903139 7.1006186300551  C 1.20210278466594 7.1734306721072  1.16248510255438 7.31905475621133  1.21908179128528 7.47050380367963  L 3.24524324785185 12.6401587893767  Z M 18 17.9496128958137  C 18 19.0796557884618  17.1991568544576 20  16.2143744705398 20  L 3.89327533382078 20  C 2.90849294990277 20  2.10764980436048 19.0796557884618  2.10764980436048 17.9525253774958  L 2.10764980436048 8.41414786867449  C 2.10764980436048 7.28410497602633  2.90849294990277 6.36667324617022  3.89327533382078 6.36667324617022  L 16.2143744705398 6.36667324617022  C 17.1991568544576 6.36667324617022  18 7.28701745770843  18 8.41414786867449  L 18 17.9496128958137  Z M 16.2143744705398 8  L 3.89327533382078 8  C 3.56501453918137 7.73262715506709  3.2990101021462 8.0384377316858  3.2990101021462 8.41414786867449  L 3.2990101021462 17.9496128958137  C 3.2990101021462 18.3253230328024  3.56501453918137 18.6311336094211  3.89327533382078 18.6311336094211  L 16.2143744705398 18.6311336094211  C 16.5426352651791 18.6311336094211  16.8086397022143 18.3253230328024  16.8086397022143 17.9496128958137  L 16.8086397022143 8.41414786867449  C 16.8086397022143 8.0384377316858  16.5398054307424 7.73262715506709  16.2143744705398 8  Z M 6.94949652528981 14.0410624784585  C 6.88441033324924 14.0789247403256  6.81649430677211 14.0963996304181  6.74857828029509 14.0963996304181  C 6.5844478829755 14.0963996304181  6.42880698896547 13.9944627715452  6.34957162474211 13.8138889072561  C 6.23637824728031 13.5605030009148  6.32693294924989 13.2546924242961  6.54766003530038 13.1265432302845  L 11.655511193265 10.1645493596062  C 11.873408444879 10.0364001655946  12.1422427163509 10.1383370244675  12.2554360938127 10.3917229308087  C 12.3657996368379 10.6451088371499  12.2780747693049 10.9509194137686  12.0573476832544 11.0790686077803  L 6.94949652528981 14.0410624784585  Z M 8.84548559777535 16.7321955527031  C 8.77756957129823 16.7758827779343  8.7039938759481 16.799182631391  8.62475851172474 16.799182631391  C 8.46911761771471 16.799182631391  8.31630655814123 16.7059832175643  8.23424135948143 16.5399717616856  C 8.11255847871008 16.2953233003906  8.18896400849676 15.9836877604077  8.4012015912377 15.8409761579857  L 13.6222461266641 12.4450225166771  C 13.8316538749684 12.3052233959372  14.10897764975 12.3896853647176  14.2306605305214 12.6401587893767  C 14.3523434112928 12.8848072506716  14.2759378815061 13.1964427906545  14.0608704643287 13.3391543930765  L 8.84548559777535 16.7321955527031  Z " fill-rule="nonzero" fill="#1abc9c" stroke="none" transform="matrix(1 0 0 1 752 464 )" />
  </g>
</svg>