<?xml version="1.0" encoding="utf-8"?>
<svg version="1.1" xmlns:xlink="http://www.w3.org/1999/xlink" width="20px" height="20px" xmlns="http://www.w3.org/2000/svg">
  <g transform="matrix(1 0 0 1 -850 -464 )">
    <path d="M 13.2765722992565 17.498528964641  L 6.72106058324005 17.498528964641  L 6.49280264989113 17.498528964641  C 6.38931211368856 17.498528964641  6.41916039271473 17.6294150855991  6.58074893065645 17.8898368396082  C 6.74233746859818 18.1501483641557  6.98903352355831 18.4362291930859  7.32080955653021 18.7493196092584  C 7.64974682575507 19.0622722080862  8.04232180711131 19.3483254979616  8.49178214619337 19.6086645615639  C 8.94259294639085 19.869086315573  9.42468517699115 20  9.93499959129838 20  C 9.95624891323598 20  9.97620287648499 19.9914285912423  9.99742463500218 19.9900230008115  C 10.0187015203602 19.9914561547112  10.0384901275007 20  10.0597945518653 20  C 10.5701365295927 20  11.0507955844023 19.8676531616732  11.5044175849266 19.6086645615639  C 11.9524447482178 19.3469474465856  12.3465906980529 19.0608665932413  12.6755004038573 18.7493196092584  C 13.0058156976181 18.4362567565548  13.2538346746874 18.1501759276246  13.414045188093 17.8898368396082  C 13.5757439797163 17.6280094707542  13.6069151564376 17.498528964641  13.5019639054381 17.498528964641  L 13.2765722992565 17.498528964641  Z M 19.83216668112 15.2831111947434  C 19.5088793515549 14.8306184002071  19.1473653176524 14.291419379697  18.746218942628 13.6667819795416  C 18.3463127994517 13.0421445793862  17.9692820735324 12.3520503370173  17.6092011665926 11.596471688966  C 17.2547426603063 10.8395150139528  16.9485154278162 10.039784009972  16.6932755426086 9.1989047507918  C 16.438118347662 8.35507649340533  16.3105121623543 7.50278710555094  16.3105121623543 6.63205953921204  C 16.3105121623543 5.78117574178845  16.192882983085 5.00567065882905  15.9659755108516 4.31414323814636  C 15.7377727043432 3.61842658522602  15.4315730352737 3.00225036436669  15.0473489402224 2.46302378038769  C 14.6645580209619 1.92368696694709  14.2151528087206 1.47408804367922  13.6962945641658 1.1084668071021  C 13.177436319611 0.742735316649288  12.6287573838645 0.466659050376478  12.0502577325121 0.277454317648761  C 11.4434532316059 0.10387655812994  10.7544626188617 0.00857140875768891  10.049900211674 0.00281120527571943  C 10.0343283928164 0.00281120527571943  10.0173509860026 0  10.0002357865009 0  L 9.99888530097132 0  L 9.99745214959455 0  C 9.98050230620117 0  9.9648753605029 0.00281120527571943  9.94778772442135 0.00281120527571943  C 9.24460334176968 0.00857140875768891  8.55423470448955 0.10387655812994  7.94880822811922 0.277454317648761  C 7.36895811565137 0.466686589431333  6.82033428233149 0.744140907080094  6.3000704498204 1.10987239753294  C 5.78250756395437 1.47549363411005  5.3316967637569 1.92514768431579  4.95182727409065 2.46448447334234  C 4.56611490082173 3.00365590596937  4.25991523175207 3.6198321512428  4.03168486182346 4.31557636763205  C 3.80345449189485 5.00707620043178  3.68717577374116 5.78260884686011  3.68717577374116 6.63349266869773  C 3.68717577374116 7.50281462019174  3.55954204942702 8.35661987676673  3.30438485448053 9.20031031680855  C 3.04779448374325 10.0413273689193  2.74148458540606 10.8395425285936  2.38716387180773 11.5964716401379  C 2.02848857723814 12.3520502881892  1.65134759763737 13.0421445305581  1.25155170814253 13.6667819307135  C 0.851810921074502 14.2899861769692  0.490186633490453 14.8292127365341  0.167009557606889 15.2816779676014  L 0.165603969650647 15.2831111215012  C 0.047919663540597 15.4396287539115  -0.00874518682178405 15.593362768929  0.00109400211465527 15.7399034021508  C 0.0096653957828039 15.8878772136864  0.047919687954618 16.0115975163176  0.117345156847932 16.118340406661  C 0.184014552255121 16.2207838108912  0.269149632693939 16.304733934113  0.373935527585104 16.3659188536822  C 0.375451369223128 16.3673520075819  0.378262569549747 16.3659188536822  0.379668157506217 16.3673520075819  C 0.434927419912242 16.4015273643229  0.504380452225973 16.4114216975186  0.573943713807239 16.4257532853443  C 0.607898527434827 16.4328088497954  0.64336918270044 16.455601592503  0.677323996328028 16.455601592503  L 0.70287279680997 16.455601592503  L 19.2976539274466 16.455601592503  L 19.3231476010876 16.455601592503  C 19.3586458197736 16.455601592503  19.391195045445 16.4314032349505  19.4266657007105 16.4257532853443  C 19.4961187330242 16.4113941096357  19.5656544555991 16.4015273643229  19.6209412570116 16.3673520075819  C 19.6237800207587 16.3659188536822  19.6251580452946 16.3673520075819  19.6279692456213 16.3659188536822  C 19.7314873452442 16.3047063706441  19.8166224256829 16.2207562474223  19.8846422822057 16.118340406661  C 19.9526621631427 16.0130031311625  19.9909439943209 15.8892552406483  19.9994051587215 15.7399034021508  C 20.0065158375926 15.5933352787023  19.9498234238097 15.4396012636847  19.83216668112 15.2831111947434  Z " fill-rule="nonzero" fill="#1abc9c" stroke="none" transform="matrix(1 0 0 1 850 464 )" />
  </g>
</svg>