<?xml version="1.0" encoding="utf-8"?>
<svg version="1.1" xmlns:xlink="http://www.w3.org/1999/xlink" width="18px" height="18px" xmlns="http://www.w3.org/2000/svg">
  <g transform="matrix(1 0 0 1 -946 -465 )">
    <path d="M 17.7801224403385 1.47115384049815  C 18.0340151729664 1.29807692405203  18.0340151729664 0.951923091159813  17.9493842753139 0.605769237985101  C 17.7801224403385 0.346153853174684  17.5262297077106 0  17.1877060774303 0  L 0.769309354271059 0  C 0.515416621643112 0  0.176892991362934 0.346153853174684  0.0922620738751903 0.605769237985101  C -0.0769997412648991 0.865384622795517  0.00763115638744694 1.29807692405203  0.176892991362934 1.55769230886244  L 5.93179492431625 8.04807692912263  L 5.93179492431625 15.2307692354498  C 5.93179492431625 15.4903846202602  6.10105673945645 15.8365384734349  6.43958038957203 15.9230769215167  L 10.7557568442458 17.9134615316357  C 10.8403877617336 18  11.0096495768737 18  11.0942804943614 18  C 11.2635423095015 18  11.432804144477 18  11.5174350421295 17.9134615316357  C 11.7713277747572 17.7403846151896  11.9405895898974 17.567307678461  11.9405895898974 17.2211538455688  L 12.1944823225253 7.96153846075833  L 17.7801224403385 1.47115384049815  Z M 10.5864950092703 8.65384616710776  L 10.3326022964778 16.0096154101635  L 7.62441313522356 14.7115384861114  L 7.62441313522356 8.65384616710776  L 10.5864950092703 8.65384616710776  Z M 15.4104569490353 2  L 11.0096495768737 6.83653847343487  C 10.925018659386 6.83653847343487  10.925018659386 6.9230769417992  10.8403877617336 6.9230769417992  L 7.20125858745553 6.9230769417992  L 2.63118940015386 2  L 15.4104569490353 2  Z " fill-rule="nonzero" fill="#1abc9c" stroke="none" transform="matrix(1 0 0 1 946 465 )" />
  </g>
</svg>