<?xml version="1.0" encoding="utf-8"?>
<svg version="1.1" xmlns:xlink="http://www.w3.org/1999/xlink" width="17px" height="20px" xmlns="http://www.w3.org/2000/svg">
  <g transform="matrix(1 0 0 1 -981 -464 )">
    <path d="M 15.0240737626934 3.10518466796876  L 12.7568380968576 3.10518466796876  C 12.2357118416691 1.31716095703123  10.5244014442343 0  8.50004296646318 0  C 6.4757131330008 0  4.76440271523654 1.31716095703123  4.2432478360688 3.10518466796876  L 1.97578303609237 3.10518466796876  C 0.885184258836375 3.10518466796876  0 3.95561035156251  0 5.00341205078124  L 0 18.1016900585937  C 0 19.1494642382812  0.885298815741976 20  1.97578303609237 20  L 15.0240737423638 20  C 16.1148157411639 20  17 19.1494642578125  17 18.1016900585937  L 17 5.00341205078124  C 17 3.95561035156251  16.1148157411639 3.10518466796876  15.0240737626934 3.10518466796876  Z M 8.50004296646318 1.41572513671875  C 9.70431858391316 1.41572513671875  10.7387520315046 2.11159050781251  11.1961230080542 3.10518464843747  L 5.80453575005924 3.10518466796876  C 6.2629091757683 2.11159050781251  7.29880330014157 1.41572513671875  8.50004296646318 1.41572513671875  Z M 15.6828208573747 18.1016900585937  C 15.6828208573747 18.4487559765625  15.3853535733328 18.7344600390625  15.0240737626934 18.7344600390625  L 1.97578303609237 18.7344600390625  C 1.61464642666726 18.7344600390625  1.31726505522204 18.4487559765625  1.31726505522204 18.1016900585937  L 1.31726507555163 5.00341205078124  C 1.31726507555163 4.65642869140626  1.61464642666726 4.37061455078126  1.97578305642185 4.37061455078126  L 4.07936303189103 4.37061455078126  L 4.07936303189103 6.27572107421875  L 5.5872637888956 6.27572107421875  L 5.5872637888956 4.37061455078126  L 11.4438405557347 4.37061455078126  L 11.4461891247705 4.37061455078126  L 11.4461891247705 6.27572107421875  L 12.9540898817751 6.27572107421875  L 12.9540898817751 4.37061455078126  L 15.0240737626934 4.37061455078126  C 15.3854681505679 4.37061455078126  15.6828208573747 4.65642869140626  15.6828208573747 5.00341205078124  L 15.6828208573747 18.1016900585937  Z " fill-rule="nonzero" fill="#1abc9c" stroke="none" transform="matrix(1 0 0 1 981 464 )" />
  </g>
</svg>