<?xml version="1.0" encoding="utf-8"?>
<svg version="1.1" xmlns:xlink="http://www.w3.org/1999/xlink" width="20px" height="20px" xmlns="http://www.w3.org/2000/svg">
  <g transform="matrix(1 0 0 1 -1017 -464 )">
    <path d="M 17.5000291086753 12.4999513257323  C 18.8788226744509 12.4999513257323  20 11.3781595755138  20 9.99998915125241  C 20 8.62120039302468  18.8788204421904 7.49998009946819  17.5000291086753 7.49998009946819  L 17.0666577233388 7.49998009946819  C 16.9787669358022 7.25034506048866  16.878076367306 7.00621922089215  16.7657959029701 6.77000225220894  L 17.0709548245504 6.4642282929363  C 17.5415398653487 5.99366721548975  17.8009597719538 5.36559169879553  17.8009597719538 4.69666819202439  C 17.8009597719538 4.02710402876099  17.5415398653487 3.3996669363064  17.0709548245504 2.92908353633399  C 16.6003921063559 2.45785947986934  15.9723143996938 2.19905881177044  15.3033640056624 2.19905881177044  C 14.6343466438198 2.19905881177044  14.0063135823651 2.45785947986934  13.535820064242 2.92908353633399  L 13.2306611426616 3.23426371641867  C 12.9938026916132 3.12191444374977  12.7502474594556 3.02122422633906  12.5000177687926 2.93333374525835  L 12.5000177687926 2.49998672925835  C 12.5000177687926 1.12122252580906  11.3787712431719 0  10 0  C 8.6212756342959 0  7.50002910867522 1.12122029355649  7.50002910867522 2.49998672925835  L 7.50002910867522 2.93333374525835  C 7.24975254054448 3.02122422633906  7.00619730838696 3.12191444374977  6.76936117994217 3.23426371641867  L 6.46417993575812 2.92908353633399  C 5.99368641763499 2.45785947986934  5.36563103357662 2.19905881177044  4.69661367173399 2.19905881177044  C 4.0276878325667 2.19905881177044  3.39969941631944 2.45785947986934  2.92902285284583 2.92908353633399  C 2.45855165732655 3.39964461378054  2.1990424603066 4.02710402876099  2.1990424603066 4.69666819202439  C 2.1990424603066 5.36561625357399  2.45855388958694 5.99366944774238  2.92902285284583 6.4642282929363  L 3.23420409702999 6.76938615049508  C 3.12194595529786 7.00622145314475  3.02123306419787 7.24975351355329  2.93334227666128 7.49998233172079  L 2.49997089132478 7.49998233172079  C 1.12124652562068 7.49998233172079  0 8.62120262527725  0 9.99999138350501  C 0 11.3781618077664  1.12124652562068 12.499953557985  2.49997089132478 12.499953557985  L 2.93334227666128 12.499953557985  C 3.02123306419787 12.7502292534568  3.12194595529786 12.9937613138653  3.23420409702999 13.2305497392106  L 2.92902285284583 13.5357299192953  C 2.45855165732655 14.0063133192677  2.1990424603066 14.6337950567739  2.1990424603066 15.3033368975115  C 2.1990424603066 15.9729233833008  2.45855388958694 16.6003381532295  2.92902285284583 17.0708969984234  C 3.39969941631944 17.5414111985657  4.02768560030631 17.800921722987  4.69661367173399 17.800921722987  C 5.36565558844075 17.800921722987  5.99368864989538 17.5414111985657  6.46417993575812 17.0708969984234  L 6.76936117994217 16.7657391408646  C 7.00619730838696 16.8780415362293  7.24975254054448 16.9780687746218  7.50002910867522 17.0666222347207  L 7.50002910867522 17.5000378255201  C 7.50002910867522 18.8781390499512  8.6212756342959 20  10 20  C 11.3787690109116 20  12.5000177687926 18.8781390499512  12.5000177687926 17.5000378255201  L 12.5000177687926 17.0666222347207  C 12.7502474594556 16.9780687746218  12.9938026916132 16.8780415362293  13.2306611426616 16.7651676842025  L 13.535820064242 17.0708746758976  C 14.0063135823651 17.5413888760398  14.6343689664235 17.8008994004611  15.3033640056624 17.8008994004611  C 15.9723143996938 17.8008994004611  16.6003921063559 17.5413888760398  17.0709548245504 17.0708746758976  C 17.5415398653487 16.600313598451  17.8009597719538 15.9729010607749  17.8009597719538 15.3033145749856  C 17.8009597719538 14.6337727342481  17.5415398653487 14.0062909967418  17.0709548245504 13.5357075967694  L 16.7657959029701 13.2299336374968  C 16.878076367306 12.9931452121515  16.9787669358022 12.7495662744386  17.0666577233388 12.4999312354591  L 17.5000280371903 12.4999312354591  Z M 15.2252129272805 13.4570050673339  L 16.1871140109305 14.4194965762357  C 16.4221196858721 14.6538853300507  16.5509054833816 14.9676373600668  16.5509054833816 15.3033346652589  C 16.5509054833816 15.6384136364846  16.4221219181325 15.9521902212791  16.1871140109305 16.1871035544519  C 15.7172142740658 16.6564971637958  14.8895144515822 16.6564971637958  14.4195923921139 16.1871035544519  L 13.4570729723415 15.2239937115837  L 13.0444575010841 15.4553198148504  C 12.628207909945 15.6878580312713  12.1777600899419 15.8739921809281  11.7047061691748 16.0082376192162  L 11.2500081254277 16.1370899352557  L 11.2500081254277 17.500036932619  C 11.2500081254277 18.189077499698  10.6890879719883 18.7499488200288  9.99997580229763 18.7499488200288  C 9.31086363260704 18.7499488200288  8.74994347916743 18.1890752674454  8.74994347916743 17.500036932619  L 8.74994347916743 16.1370899352557  L 8.29529008062786 16.0082376192162  C 7.82164237860252 15.8733738469618  7.37055613213363 15.6878334764929  6.95558562618612 15.4553198148504  L 6.54294783232513 15.2245874907717  L 5.58038376734555 16.1870812319261  C 5.11041706266974 16.65647484127  4.28278420799722 16.65647484127  3.81281750332153 16.1870812319261  C 3.57783415098345 15.9521678987533  3.44909523094191 15.6383913139587  3.44909523094191 15.3033123427331  C 3.44909523094191 14.967615037541  3.57783415098345 14.6538630075249  3.81281750332153 14.4194742537099  L 4.77531460049011 13.4570050673339  L 4.5440792133129 13.0443687122495  C 4.31211164473461 12.6293773306866  4.12652598211776 12.1789310812952  3.99168406222532 11.7040974723985  L 3.86280897430106 11.2499501482191  L 2.49992579966533 11.2499501482191  C 1.81083818483876 11.2499501482191  1.24996267660663 10.6890319505839  1.24996267660663 9.99996906097917  C 1.24996267660663 9.31086152632261  1.81081586223502 8.74994109643487  2.49992579966533 8.74994109643487  L 3.86280897430106 8.74994109643487  L 3.99168406222532 8.29522231559338  C 4.12652598211776 7.8209824858846  4.31211164473461 7.36994245730534  4.5440792133129 6.9555225324045  L 4.77531460049011 6.5429308223718  L 3.81281750332153 5.58041475869155  C 3.57783415098345 5.3454099031627  3.44909523094191 5.03170251819836  3.44909523094191 4.69662354697269  C 3.44909523094191 4.3609039192547  3.57783415098345 4.04717421176446  3.81281750332153 3.81283233525377  C 4.28280876286135 3.34343872590986  5.11043938527337 3.34343872590986  5.58038376734555 3.81283233525377  L 6.54294783232513 4.77532607640813  L 6.95558562618612 4.54404685044585  C 7.37055613213363 4.31210464546541  7.82166470120603 4.12592361850429  8.29529008062786 3.99165362543781  L 8.74994347916743 3.86284818670262  L 8.74994347916743 2.49992404760576  C 8.74994347916743 1.81026737881299  9.31086363260704 1.24994296036576  9.99997580229763 1.24994296036576  C 10.6890879719883 1.24994296036576  11.2500081254277 1.81026737881299  11.2500081254277 2.49992404760576  L 11.2500081254277 3.86284818670262  L 11.7047061691748 3.99165362543781  C 12.1777600899419 4.12594594103018  12.6282056776845 4.31148631149898  13.0444575010841 4.54461830710795  L 13.4570729723415 4.77532607640813  L 14.4195923921139 3.81283233525377  C 14.8895367741859 3.34343872590986  15.7172388289298 3.34343872590986  16.1871140109305 3.81283233525377  C 16.4221196858721 4.04717421176446  16.5509054833816 4.3609039192547  16.5509054833816 4.69662354697269  C 16.5509054833816 5.03170251819836  16.4221219181325 5.3454099031627  16.1871140109305 5.58041475869155  L 15.2252129272805 6.5429308223718  L 15.4553053971485 6.95552253240447  C 15.688529728315 7.37236668361408  15.8745953269112 7.82345135724503  16.008249684287 8.29522231559338  L 16.1371247722112 8.74994109643487  L 17.5000079468469 8.74994109643487  C 18.1890955616735 8.74994109643487  18.7500157151131 9.31085929407004  18.7500157151131 9.99996906097917  C 18.7500157151131 10.6890319505839  18.1890955616735 11.2499501482191  17.5000079468469 11.2499501482191  L 16.1371247722112 11.2499501482191  L 16.008249684287 11.7040974723985  C 15.8745730043074 12.1764644421874  15.688529728315 12.6269553366304  15.4553053971485 13.0443687122495  L 15.2252129272805 13.4570050673339  Z M 13.7499790167526 9.99998691899984  C 13.7499790167526 7.93209062611555  12.0678793055034 6.24997445744981  9.99997580229763 6.24997445744981  C 7.93207229909183 6.24997445744981  6.24997258784276 7.93209062611555  6.24997258784276 9.99998691899984  C 6.24997258784276 12.0678363345798  7.93207229909183 13.749977058024  9.99997580229763 13.749977058024  C 12.0678793055034 13.749977058024  13.7499790167526 12.0678363345798  13.7499790167526 9.99998691899984  Z M 12.4999935710903 9.99998915125241  C 12.4999935710903 11.3781573432612  11.3787693680731 12.4999513257323  9.99997580229763 12.4999513257323  C 8.62125143659352 12.4999513257323  7.50000491097296 11.3781595755138  7.50000491097296 9.99998915125241  C 7.50000491097296 8.62120039302468  8.62125143659352 7.49998009946819  9.99997580229763 7.49998009946819  C 11.3787448132092 7.49998009946819  12.4999935710903 8.62120039302468  12.4999935710903 9.99998915125241  Z " fill-rule="nonzero" fill="#1abc9c" stroke="none" transform="matrix(1 0 0 1 1017 464 )" />
  </g>
</svg>