<?xml version="1.0" encoding="utf-8"?>
<svg version="1.1" xmlns:xlink="http://www.w3.org/1999/xlink" width="14px" height="8px" xmlns="http://www.w3.org/2000/svg">
  <g transform="matrix(1 0 0 1 -684 -507 )">
    <path d="M 12.984375 5.76953125  C 13.419921875 6.140625  13.419921875 6.73828125  12.982421875 7.107421875  C 12.544921875 7.4765625  11.8359375 7.4765625  11.3984375 7.107421875  L 6.97265625 2.9921875  L 2.548828125 7.107421875  C 2.111328125 7.4765625  1.40234375 7.4765625  0.96484375 7.107421875  C 0.52734375 6.73828125  0.52734375 6.138671875  0.96484375 5.76953125  L 6.111328125 0.98046875  C 6.34765625 0.78125  6.6640625 0.693359375  6.974609375 0.708984375  C 7.28515625 0.693359375  7.599609375 0.78125  7.837890625 0.98046875  L 12.984375 5.76953125  Z " fill-rule="nonzero" fill="#1abc9c" stroke="none" transform="matrix(1 0 0 1 684 507 )" />
  </g>
</svg>