<?xml version="1.0" encoding="utf-8"?>
<svg version="1.1" xmlns:xlink="http://www.w3.org/1999/xlink" width="11px" height="18px" xmlns="http://www.w3.org/2000/svg">
  <g transform="matrix(1 0 0 1 -953 -503 )">
    <path d="M 11 0.434084595337565  C 11.0005626803359 0.265020114037531  10.9050481358959 0.111588307378248  10.7552768088158 0.0403727895703635  C 10.6072010061931 -0.030263740287863  10.4303012877927 -0.00710422230155014  10.3031369534793 0.101166524284424  L 4.80172526367306 4.84423580787962  L 0.42388111437783 4.84423580787962  C 0.189898739241305 4.84423580787962  0 5.03877575896458  0 5.27847677012284  L 0 12.7207878750219  C 0 12.9604888861801  0.189898739241305 13.1550288372651  0.42388111437783 13.1550288372651  L 4.80172526367306 13.1550288372651  L 10.3031369534793 17.8980981208602  C 10.3816962533441 17.9646817350709  10.4783411474223 18  10.5761163911388 18  C 10.63659009679 18  10.6981941520796 17.9866832771579  10.7547116339966 17.959470843524  C 10.9044829610768 17.8882553257161  10.9999975055166 17.7348235190568  11 17.5657590377568  L 11 0.434084595337565  Z " fill-rule="nonzero" fill="#1abc9c" stroke="none" transform="matrix(1 0 0 1 953 503 )" />
  </g>
</svg>