<?xml version="1.0" encoding="utf-8"?>
<svg version="1.1" xmlns:xlink="http://www.w3.org/1999/xlink" width="4px" height="11px" xmlns="http://www.w3.org/2000/svg">
  <g transform="matrix(1 0 0 1 -965 -506 )">
    <path d="M 1.10764379141721 10.881618515415  C 1.00096467930857 10.961572502386  0.866488897143235 11  0.732764376330757 11  C 0.578004537637833 11  0.42324469894491 10.9473171403679  0.31205801871877 10.8444306144983  C 0.104709885324391 10.6522931264284  0.124993941851976 10.3591285075347  0.357884961244478 10.1880641633177  C 1.95656912017013 9.01292649434856  2.87310797068207 7.32645518777417  2.87310797068207 5.56064969257735  C 2.87310797068207 3.72914557242765  1.89872199599848 2.00176757484483  0.20012007713994 0.82043192238954  C -0.0372785103697273 0.654945763310022  -0.0680802258377056 0.361781144416367  0.132506555380755 0.165305067906224  C 0.333093336599386 -0.0311710086039182  0.688439956510941 -0.0559629425484054  0.92658980537347 0.109523216531112  C 2.87986932285799 1.46750139834093  4 3.45457490399234  4 5.56064969257735  C 4 7.59048928428305  2.94598032191128 9.53045811543992  1.10764379141721 10.881618515415  Z " fill-rule="nonzero" fill="#1abc9c" stroke="none" transform="matrix(1 0 0 1 965 506 )" />
  </g>
</svg>