<?xml version="1.0" encoding="utf-8"?>
<svg version="1.1" xmlns:xlink="http://www.w3.org/1999/xlink" width="20px" height="20px" xmlns="http://www.w3.org/2000/svg">
  <g transform="matrix(1 0 0 1 -1016 -502 )">
    <path d="M 20 9.99998854963131  C 20 7.32889462495775  18.9598325585579 4.81769564110309  17.0710743787814 2.92896468957352  C 15.1823161990049 1.04016501344592  12.6711114838814 0  10.0000114392019 0  C 7.32891137213662 0  4.81768377860913 1.04016503583179  2.92894849962245 2.92896471195939  C 1.04019031984595 4.81769566348896  0 7.32891752569515  0 10.0000114503687  C 0 11.9460342936886  0.559565040619478 13.8326348274506  1.61819600323994 15.4559126090311  C 1.82805293166331 15.777649747309  2.25906025818568 15.8682950744522  2.58084393520699 15.6585760760476  C 2.90265051301811 15.4487196284469  2.99338769577893 15.0177132894456  2.78353076735555 14.6958845258322  C 1.87269991311105 13.2993002706553  1.39124995920444 11.675449813939  1.39124995920444 10.0000114503687  C 1.39124995920444 5.25314606631041  5.25313517913377 1.39126969470551  9.9999885384121 1.39126969470551  C 14.7468876992701 1.39126969470551  18.6087271176198 5.25316898943365  18.6087271176198 10.0000114503687  C 18.6087271176198 14.7468539113038  14.7468876768841 18.6087532060319  10.0000114392019 18.6087532060319  C 8.42815761312147 18.6087532060319  6.89034452398218 18.1813204565852  5.55288171484813 17.372751182426  C 5.22411119264286 17.1739362033564  4.79644838880665 17.2793569385188  4.59770165658193 17.6081037843242  C 4.39893202356751 17.9368964539902  4.50430719868997 18.3645582779683  4.83305479771956 18.5632816540884  C 6.38770498185284 19.5031801429098  8.17438670761328 20  9.9999885384121 20  C 12.6711115062672 20  15.1823161990049 18.9598349641682  17.0710744011673 17.0710352880406  C 18.9598096801539 15.1823043365111  20 12.6710824743049  20 9.99998854963131  Z " fill-rule="nonzero" fill="#1abc9c" stroke="none" transform="matrix(1 0 0 1 1016 502 )" />
  </g>
</svg>