<?xml version="1.0" encoding="utf-8"?>
<svg version="1.1" xmlns:xlink="http://www.w3.org/1999/xlink" width="16px" height="20px" xmlns="http://www.w3.org/2000/svg">
  <g transform="matrix(1 0 0 1 -650 -502 )">
    <path d="M 12.0012169226093 8.33219256444082  L 4.00121692260941 8.33219256444082  L 4.00121692260941 5.84302988749988  C 4.00851841069662 5.14715947698508  4.24459994605726 1.66780744670731  8.00243384521869 1.66780744670731  C 11.7602677443801 1.66780744670731  11.9939154345224 5.14715947698508  12.0036507678282 5.83162219485878  L 12.0012169226093 8.33219256444082  Z M 9.59902646191265 13.331051769536  C 9.60146030713127 13.9447866637163  9.27776086715567 14.4763860192659  8.80073015356579 14.76614189395  L 8.80073015356579 17.4971480517564  L 7.20170369165321 17.4971480517564  L 7.20170369165321 14.76614189395  C 6.72467295427849 14.4763860192659  6.40097353808747 13.9447866637163  6.40097353808747 13.331051769536  C 6.40097353808747 12.409308661231  7.11651963225713 11.6632443228287  8.00000000000006 11.6632443228287  C 8.883480367743 11.6632443228287  9.59902646191265 12.409308661231  9.59902646191265 13.331051769536  Z M 16 8.33219256444082  L 13.6002433845219 8.33219256444082  L 13.6002433845219 5.83162217256249  C 13.6002433845219 5.83162217256249  13.6002433845219 0  8.00000000000006 0  C 2.39975661547819 0  2.39975661547819 5.83162217256249  2.39975661547819 5.83162217256249  L 2.39975661547819 8.33219256444082  L 0 8.33219256444082  L 0 20  L 16 20  L 16 8.33219256444082  Z " fill-rule="nonzero" fill="#1abc9c" stroke="none" transform="matrix(1 0 0 1 650 502 )" />
  </g>
</svg>