<?xml version="1.0" encoding="utf-8"?>
<svg version="1.1" xmlns:xlink="http://www.w3.org/1999/xlink" width="16px" height="13px" xmlns="http://www.w3.org/2000/svg">
  <g transform="matrix(1 0 0 1 -581 -549 )">
    <path d="M 15.8087609767199 9.91836096429631  C 15.4727956894808 9.437277856749  14.8125383124842 9.32116616924047  14.3344527610097 9.65798744870161  C 13.168290674386 10.4772128747304  11.8038310882095 10.8879118966912  10.4089569769539 10.8689959280421  C 10.2245249550855 10.8670722332043  10.0413564381015 10.8574799614421  9.86044591239435 10.8415161328846  C 9.78649669807844 10.8345179013804  9.71250338237052 10.8223774436073  9.63821458733532 10.8130974174317  C 9.49575827049187 10.7941814487826  9.35298442362508 10.7750427595052  9.21436713296611 10.7481437848095  C 9.12842895520095 10.7318218564184  9.04447534008148 10.7097528624052  8.96050187933557 10.690232054403  C 8.82450200629922 10.6582126887939  8.68911293754386 10.6259269318453  8.55638979794253 10.5862826600233  C 8.49242072866461 10.5664496064345  8.43010105145222 10.5437321023567  8.36678688784742 10.522311618408  C 8.2136734695968 10.4708172990437  8.06119070125372 10.4177377328552  7.91261531625283 10.3553541215998  C 7.87903872135813 10.3418707894506  7.84672783641755 10.3259746504958  7.81312919082678 10.3108820526309  C 7.63998712534247 10.2344124534088  7.46813061543858 10.1541653376493  7.30273275441155 10.0639678502941  C 7.29467101993104 10.0597863796762  7.28787499540453 10.0562752544785  7.27981326092403 10.0521614734632  C 6.71870242863412 9.74313223474619  6.20507777031539 9.35738665728755  5.75478932629741 8.90666779538659  C 5.7479933017709 8.89966956388242  5.74056442226745 8.89130662264657  5.73315759345995 8.88332361660003  C 5.59327459284699 8.74254889482028  5.45987229180695 8.59542445160084  5.33290658894758 8.44190443269477  C 5.30641929283704 8.40926057591252  5.28056705677306 8.37408818493942  5.25376443570893 8.34050540786177  C 4.33733530227366 7.19091978412556  3.78462578518367 5.73610427356543  3.78462578518367 4.15332702795444  L 5.33916245962326 4.15332702795444  C 5.37931016194466 4.15332702795444  5.41817010361599 4.13201790431977  5.43853612649946 4.09456590221083  C 5.45892640514863 4.05711390010189  5.45551516246771 4.01326632230631  5.4334335954305 3.98004164506225  L 2.82034664129234 0.0503086595492893  C 2.80015922904692 0.0199662492586074  2.76545584358341 0  2.72605345478903 0  C 2.68665106599454 0  2.65192342476544 0.0199902681498959  2.63176026828572 0.0503086595492893  L 0.0186293009581215 3.97994993656828  C -0.00345447114859612 4.01317679734789  -0.00684145806381849 4.05702219160792  0.0135267698892809 4.09447419371686  C 0.0339170485384475 4.13192619582586  0.0727549395137185 4.15323531946047  0.112922487461432 4.15323531946047  L 1.66777528067982 4.15323531946047  C 1.66777528067982 6.01396354201046  2.24631718820724 7.73869898568055  3.22928870715091 9.1647158455985  C 3.2412556199041 9.18459256989875  3.24997226005773 9.20570080826087  3.26320267769539 9.2255556972054  C 3.36494679439822 9.37138312029584  3.47802717394692 9.50605486015548  3.58720237522295 9.64392329609062  C 3.62791457536357 9.69606612551937  3.66602920350788 9.74977236641672  3.70834448925228 9.80093042130312  C 3.86922636772564 9.99670840410927  4.04008839123711 10.1806385229087  4.21582802871761 10.3604068229104  C 4.23262845404769 10.3783161816614  4.2481389136582 10.3958914594701  4.26462401403468 10.4119011422747  C 4.85448013371179 11.0039777299527  5.52153574030448 11.5030182340337  6.24704994722901 11.9018868602724  C 6.26579083381264 11.9131102331059  6.28453172039627 11.9246480350615  6.30519322260702 11.9351792271191  C 6.51419192495887 12.0477361187185  6.72899657558409 12.1494714080294  6.94673396878564 12.2457740608404  C 7.00101616728309 12.2690942207356  7.05398855443454 12.2953446853668  7.10921893286277 12.3183984539224  C 7.29530034679662 12.39580697344  7.48650634249549 12.4636013858397  7.6793617302599 12.5282405893396  C 7.77044874555567 12.5592751804062  7.86090511094401 12.5909364461816  7.95327768182033 12.6193769969902  C 8.12158843979726 12.6692838859946  8.29376027465486 12.7111837500611  8.4675351951161 12.7524372875987  C 8.58253398522229 12.7793122434031  8.69685581895929 12.8084253231674  8.81415890680402 12.8308065627673  C 8.86293063635552 12.8407350990074  8.90879167402674 12.8557818426252  8.95663727434354 12.8631163386073  C 9.12007041835144 12.8922272348361  9.28481337370547 12.9085273278715  9.44858609843279 12.9283603814603  C 9.50769960443763 12.9354263025672  9.56584287981575 12.9453526552716  9.62498064158629 12.9517045602469  C 9.91926482109981 12.9808394753669  10.2125545142209 13  10.5055751888501 13  C 12.2987135369029 13  14.048251043631 12.4501595408663  15.5490015720317 11.3961603702739  C 16.0271312248984 11.0593609261684  16.1437573563741 10.3985051515483  15.8087609767199 9.91836096429631  Z " fill-rule="nonzero" fill="#1abc9c" stroke="none" transform="matrix(1 0 0 1 581 549 )" />
  </g>
</svg>