<?xml version="1.0" encoding="utf-8"?>
<svg version="1.1" xmlns:xlink="http://www.w3.org/1999/xlink" width="16px" height="14px" xmlns="http://www.w3.org/2000/svg">
  <g transform="matrix(1 0 0 1 -585 -544 )">
    <path d="M 14.3328976971397 9.52551964959838  C 14.3319273410159 7.52696985406373  13.7568546056296 5.67243157950459  12.7786121329088 4.13914199316574  C 12.7643853889201 4.11295529992597  12.754675211617 4.08640866022454  12.7385717106706 4.06193230082585  C 12.6170985614471 3.87445900903818  12.4842656295101 3.69970617815668  12.3521803128593 3.52464045263857  C 12.337005266295 3.50327186628548  12.3228005758546 3.4808681397809  12.3066309142634 3.45983597397699  C 11.4113560954872 2.28667399890939  10.2874322936074 1.38060641400401  9.01355759562365 0.788195705344678  C 8.97830499871483 0.771645225878151  8.94377575818911 0.753384412570608  8.90825410799141 0.736833933104081  C 8.70500860713933 0.646541480804992  8.49661360276634 0.566586314472589  8.28731660826909 0.491110481886331  C 8.21170822338182 0.464225069044361  8.13772739035677 0.434594182209879  8.06051791786514 0.410117822811251  C 7.87798069883816 0.350493750089257  7.69284777717988 0.301903330344969  7.50608730365926 0.255359664990993  C 7.40304209936979 0.229509392300456  7.29999689508043 0.201252418757883  7.19561745112061 0.179208638715089  C 7.14394819288 0.168511406286616  7.09516794946256 0.151986805323949  7.04413162805721 0.141988292497677  C 6.90488552428337 0.11613801980714  6.76498443012586 0.104767946280264  6.62542296061175 0.085135572272055  C 6.52849761596712 0.0720292864002397  6.4341459204055 0.0558411059867426  6.3365876389256 0.0451462261495761  C 6.10204153701448 0.0217050069023183  5.86939424560954 0.011732372579906  5.63681311484931 0.00725068624245442  C 5.59415493643144 0.00725068624245442  5.55314415806945 0  5.51082339894024 0  C 5.50307819278792 0  5.49598577166441 0.00243257935583311  5.48821851196393 0.00310777304554239  C 3.69708225002772 0.00448403892869431  1.95120427985038 0.58865597301918  0.452154032615287 1.72286138952442  C -0.027279079990446 2.08472521314055  -0.143920296787977 2.79744273330773  0.191434779617894 3.3151022074868  C 0.526134865640218 3.83275932907462  1.18745020688927 3.95819949469701  1.66591296337106 3.59527465242565  C 2.82380364029571 2.71956019986944  4.17457244503085 2.27634141812519  5.55991680274298 2.28978412454618  C 5.75925441484171 2.29115803783809  5.95536559282859 2.30182939176276  6.14921628211786 2.32148764427477  C 6.2089703711542 2.32873833051723  6.26811578225827 2.33837454429047  6.32753024665121 2.34630042422263  C 6.48682964186661 2.36733259002655  6.64479700276652 2.39178307092138  6.80048182142055 2.42488402985437  C 6.86931535627943 2.43936187642679  6.93717632965964 2.4582978834241  7.00431394665651 2.47487188880312  C 7.15715385758379 2.51206870910798  7.30965634922241 2.55205805523046  7.45890594249145 2.6006720008873  C 7.50605863404656 2.6168601813008  7.552556335218 2.6351209946084  7.59973328567623 2.65167147407487  C 7.77000873186525 2.71197074048651  7.93766201116512 2.77677286655685  8.1024725880931 2.85087713844244  C 8.11922887406829 2.85844071932157  8.1363909453317 2.86776403845813  8.15253855337462 2.8749911987881  C 9.13918342798619 3.33336066820316  10.0047146262113 4.03885338063162  10.6799413457086 4.92181851943035  C 10.6841646002023 4.92697304686614  10.6883194886962 4.93388731255943  10.6922273774496 4.93904419258652  C 11.6426934061251 6.18871714039174  12.2148749213331 7.78611248578998  12.2155078581685 9.52551964959838  L 10.6601152058144 9.52551964959838  C 10.61996231048 9.52551964959838  10.5810973423646 9.54847858763865  10.5607286851828 9.58883023281416  C 10.5403600280011 9.62918187798961  10.5437474530153 9.67642426294578  10.5658539298007 9.712221291455  L 13.1799073186407 13.9457962975256  C 13.2000973420813 13.9784620270767  13.234805216348 14  13.274234755299 14  C 13.3136422407019 13.9999764740875  13.3483523203233 13.9784385011641  13.368518084861 13.945772771613  L 15.9813519124817 9.71219776554245  C 16.0034605946218 9.67639838444199  16.006848019636 9.62918187798961  15.9864551035512 9.58880670690161  C 15.9660864463695 9.54845506172616  15.9272192728993 9.52549612368582  15.8870685829197 9.52549612368582  L 14.3328967267837 9.52549612368582  Z " fill-rule="nonzero" fill="#1abc9c" stroke="none" transform="matrix(1 0 0 1 585 544 )" />
  </g>
</svg>