<?xml version="1.0" encoding="utf-8"?>
<svg version="1.1" xmlns:xlink="http://www.w3.org/1999/xlink" width="19px" height="20px" xmlns="http://www.w3.org/2000/svg">
  <g transform="matrix(1 0 0 1 -711 -543 )">
    <path d="M 19 10.6249974059609  C 19 10.1072479527843  18.6012501206229 9.68751167317595  18.1093679150234 9.68751167317595  C 17.6174857094237 9.68751167317595  17.2187358300466 10.1072479527843  17.2187358300466 10.6250181582737  L 17.2187358300466 18  L 2 18  L 2 1.87501297019554  L 8.90624199089586 1.87501297019554  C 9.39812419649547 1.87501297019554  9.79687407587267 1.45527669058714  9.79687407587267 0.937506485097742  C 9.79687407587267 0.419736279608344  9.39812419649547 0  8.90624199089586 0  L 1.11764705882354 0  C 0.500418678346136 2.07523128210596E-05  0 0.407077368772775  0 0.909117321125393  L 0 19.0909034311874  C 0 19.59294338354  0.500418678346136 20  1.11764705882354 20  L 17.8823529411765 20  C 18.4995813216539 20  19 19.59294338354  19 19.0909034311874  L 19 10.6249974059609  Z " fill-rule="nonzero" fill="#1abc9c" stroke="none" transform="matrix(1 0 0 1 711 543 )" />
  </g>
</svg>