<?xml version="1.0" encoding="utf-8"?>
<svg version="1.1" xmlns:xlink="http://www.w3.org/1999/xlink" width="18px" height="20px" xmlns="http://www.w3.org/2000/svg">
  <g transform="matrix(1 0 0 1 -784 -543 )">
    <path d="M 15.1879389339978 5.30754657389872  L 15 5.30754657389872  L 15 17.6219571507359  C 15.2156465370397 18.2677233578639  14.9246135143872 18.6133457752431  14.2171957102979 18.6133457752431  L 3.95460283239905 18.5880345356738  C 3.24766011927671 18.5880345356738  2.93667063304438 18.2931163604356  3 17.6474589713841  L 3 5.30754657389872  L 1.34647270237645 5.30754657389872  L 1.34647270237645 17.6521401855524  C 1.34647270237645 18.9470474435589  2.49620123087094 20  3.90937395171796 20  L 14.1565243047814 20  C 15.5695781149926 20  16.7199006450898 18.9470474435589  16.7199006450898 17.6521401855524  L 16.7199006450898 5.30754657389872  L 15.1879389339978 5.30754657389872  Z M 5.08066265159374 7.94967121232577  L 5.08066265159374 16.691288547965  C 5.08066265159374 16.7481709779108  5.08948272274889 16.8031211619142  5.10548953301939 16.8556489426212  C 5.57485438056362 16.8552135153353  6.04418948895757 16.8542609199012  6.51355431351941 16.8527640791047  C 6.52899688431975 16.801215948906  6.53757938700906 16.7470823543461  6.53757938700906 16.6911795970486  L 6.53757938700906 7.95339987533987  C 6.0519701607286 7.951576358914  5.5662718778742 7.95043327096107  5.08066265159374 7.94967121232577  Z M 11.5129059229284 7.98124235842221  L 11.5129059229284 16.691288547965  C 11.5129059229284 16.7367944963497  11.5185781027457 16.7810213729308  11.5290315289229 16.8238601160919  C 12.0035933733881 16.8219277151695  12.4783037297449 16.8205669025036  12.9531031426759 16.8196960479319  C 12.9628438404735 16.7781363765743  12.9681893492863 16.7351887046367  12.9681893492863 16.6911795970486  L 12.9681893492863 7.9848621590798  C 12.4830552139728 7.98423617285511  11.9979211935708 7.98306585270808  11.5129059229284 7.98124235842221  Z M 18 2.94131574418168  L 13.6918218848909 2.94131574418168  L 13.6918218848909 1.47023602769201  C 13.7179257111842 0.285664520698163  12.6532204016474 0  11.5903860385809 0  L 6.47655157133803 0  C 5.15665787815115 0  4.4038923287099 0.455032871571916  4.4038923287099 1.42952011155211  L 4.39830925143133 2.94120688182517  L 0 2.94120688182517  L 0 4.37826597170783  L 18 4.37826597170783  L 18 2.94131574418168  Z M 12.2359445488597 2.94131574418168  L 5.83039908243873 2.94131574418168  L 5.83039908243873 1.91261321305922  C 5.83039908243873 1.58664103773293  6.08119225412145 1.30247342425122  6.43767788268612 1.30247342425122  L 11.5622033445722 1.32786644896294  C 11.9180950404813 1.32786644896294  12.2314305641508 1.56209174609887  12.2314305641508 1.88814557372757  L 12.2359445488597 2.94131574418168  Z M 8.34804171194922 7.98222214177042  L 8.34804171194922 16.6921321924827  C 8.34804171194922 16.7376382737073  8.35374358495167 16.7819739683648  8.3640782383874 16.8247038934495  C 8.83445276914796 16.8227986804413  9.30485699309392 16.8215194979377  9.77538001276412 16.8206758534201  C 9.78500191483766 16.7790889720084  9.79034742365039 16.7361413000709  9.79034742365039 16.6920233744062  L 9.79034742365039 7.98581473237391  C 9.3096085462687 7.98507988379271  8.8287805893308 7.98401844814214  8.34804171194922 7.98222214177042  Z " fill-rule="nonzero" fill="#1abc9c" stroke="none" transform="matrix(1 0 0 1 784 543 )" />
  </g>
</svg>