<?xml version="1.0" encoding="utf-8"?>
<svg version="1.1" xmlns:xlink="http://www.w3.org/1999/xlink" width="20px" height="20px" xmlns="http://www.w3.org/2000/svg">
  <g transform="matrix(1 0 0 1 -812 -543 )">
    <path d="M 5.20749999999998 11.2624999999999  L 9.42875000000004 15.4862500000001  C 9.53875000000005 15.5962499999999  9.67375000000004 15.665  9.81624999999997 15.69  C 9.875 15.705  9.9375 15.715  10 15.715  C 10.0625 15.715  10.12625 15.705  10.18375 15.68875  C 10.325 15.6625  10.46125 15.595  10.57125 15.4849999999999  L 14.7937499999999 11.26125  C 15.0825 10.97125  15.0825 10.4975000000001  14.7937499999999 10.2062500000001  C 14.5025000000001 9.91499999999996  14.03125 9.91499999999996  13.7375 10.2062500000001  L 10.7125000000001 13.2287499999999  L 10.7125000000001 0.713750000000005  C 10.7125000000001 0.319999999999993  10.39375 0  10 0  C 9.60625000000005 0  9.28625 0.319999999999993  9.28625 0.713750000000005  L 9.28625 13.2299999999999  L 6.26250000000005 10.2075000000001  C 5.97125000000005 9.91624999999993  5.49874999999997 9.91624999999993  5.20749999999998 10.2075000000001  C 4.91624999999988 10.49875  4.91624999999988 10.97125  5.20749999999998 11.2624999999999  Z M 20 16.42875  C 20 16.03375  19.68 15.7125  19.2874999999999 15.7125  C 18.89375 15.7125  18.5725 16.03375  18.5725 16.4275000000001  L 18.5725 18.57125  L 1.42875000000004 18.57125  L 1.42875000000004 16.4275000000001  C 1.42875000000004 16.03375  1.10874999999999 15.7125  0.713750000000005 15.7125  C 0.32000000000005 15.7125  0 16.03375  0 16.42875  L 0 20  L 20 20  L 20 16.42875  Z " fill-rule="nonzero" fill="#1abc9c" stroke="none" transform="matrix(1 0 0 1 812 543 )" />
  </g>
</svg>