<?xml version="1.0" encoding="utf-8"?>
<svg version="1.1" xmlns:xlink="http://www.w3.org/1999/xlink" width="20px" height="20px" xmlns="http://www.w3.org/2000/svg">
  <g transform="matrix(1 0 0 1 -846 -543 )">
    <path d="M 9.99933307415404 0  L 10.0000813324202 0.000715726462317434  C 10.2558880605634 0.000715726462317434  10.4713213752987 0.0881970199752686  10.6463162106901 0.263159607001114  L 15.1919201120435 4.80877090246594  C 15.3669149474348 4.98379855553378  15.4543960986464 5.19923222070406  15.4543960986464 5.45507189797644  C 15.4543960986464 5.71556379725416  15.3680536013183 5.93216865118097  15.1953686066618 6.1048539267357  C 15.0226185460692 6.27757173531131  14.8060465774505 6.36391437308868  14.5456527008057 6.36391437308868  C 14.2897158407901 6.36391437308868  14.0742825260548 6.27643307957578  13.8992876906635 6.10140542650788  L 11 3.10426833235726  L 11 13.6368013533736  C 10.9095404555592 13.8876309454095  10.8207254526557 14.1019259548442  10.6429978479441 14.2797514477194  C 10.4651726443285 14.4574142754895  10.2509105164445 14.5462619558853  10.0000813324202 14.5462619558853  C 9.74912201652342 14.5462619558853  9.5348273556715 14.4574142754895  9.35713228392819 14.2797514477194  C 9.17930708031247 14.1019259548442  9.09045954444082 13.8876309454095  9 13.6368013533736  L 9 3.10426833235726  L 6.10080990824076 6.10140542650788  C 5.91628291319716 6.27643307957578  5.70081706549377 6.36391437308868  5.45447743106661 6.36391437308868  C 5.20351811516991 6.36391437308868  4.98922345431811 6.27506669269297  4.81149584960656 6.09737133190185  C 4.63370317895908 5.91967597111056  4.54485564308743 5.70534842865504  4.54485564308743 5.45442123755612  C 4.54485564308743 5.20808120242049  4.63236932726704 4.99264753725026  4.80736416265836 4.80805517600362  L 9.35296806401186 0.26244388053874  C 9.52793036643516 0.0874812935129512  9.74339621413856 0  9.99933307415404 0  Z M 19.0924928549468 12.727210618778  L 19.090540876861 12.727210618778  C 19.3414676597898 12.727210618778  19.5558273865778 12.8160257661526  19.7334899253532 12.9938187260069  C 19.9111849970965 13.171546619819  20 13.3858741622747  20 13.6368013533736  L 20 17.2728219142429  C 20 18.0305159737133  19.7373613485565 18.6720671481552  19.211823781925 19.1975730366322  C 18.6768841875135 19.7325135012037  18.0376113644163 20  17.2939402466975 20  L 2.72717364959715 20  C 1.98405559233584 20  1.34013055480102 19.7348233456958  0.795658800737101 19.2043399050035  C 0.265143689986758 18.6598347322532  0 18.0159411802979  0 17.2728219142429  L 0 13.6368013533736  C 0 13.3858741622747  0.088815002903516 13.171546619819  0.266542607615065 12.9938187260069  C 0.444335278262542 12.8160257661526  0.658629939114462 12.727210618778  0.909589255011269 12.727210618778  C 1.16041843903577 12.727210618778  1.37471309988757 12.8160257661526  1.55250577053516 12.9938187260069  C 1.73023337524671 13.171546619819  1.81904837815023 13.3858741622747  1.81904837815023 13.6368013533736  L 1.81904837815023 17.2728219142429  C 1.81904837815023 17.5237491053419  1.90786338105374 17.7380766477975  2.08559098576518 17.9157720085887  C 2.26338365641277 18.0934999024009  2.47771085023282 18.1823150497754  2.7286376331615 18  L 17.2953066313576 18  C 17.5416787987526 18.1823150497754  17.7511911132943 18.0934999024009  17.9239737068551 17.9157720085887  C 18.0966587015116 17.7380766477975  18.1830337318079 17.5237491053419  18.1830337318079 17.2728219142429  L 18.1830337318079 13.6368013533736  C 18.1830337318079 13.3858741622747  18.2718162017434 13.171546619819  18.4495438064549 12.9938187260069  C 18.6273690100705 12.8160257661526  18.8416636709226 12.727210618778  19.0924928549468 12.727210618778  Z " fill-rule="nonzero" fill="#1abc9c" stroke="none" transform="matrix(1 0 0 1 846 543 )" />
  </g>
</svg>