<?xml version="1.0" encoding="utf-8"?>
<svg version="1.1" xmlns:xlink="http://www.w3.org/1999/xlink" width="20px" height="20px" xmlns="http://www.w3.org/2000/svg">
  <g transform="matrix(1 0 0 1 -750 -502 )">
    <path d="M 19.999984375 0  C 13.3333385351562 3.125E-05  6.66666146484375 3.125E-05  1.5625E-05 3.125E-05  C 1.5625E-05 4.88796111328125  1.5625E-05 9.7758597265625  1.5625E-05 14.6637895898438  C 0.8721080078125 14.6637895898438  1.744231640625 14.6637895898438  2.6288240234375 14.6637895898438  C 2.64119900390625 16.4346305664062  2.653511484375 18.1998778125  2.66585521484375 19.9651250585937  C 2.6810426953125 19.9767500390625  2.69619892578125 19.9883750195313  2.71138638671875 20  C 2.7270738671875 19.9675000585938  2.73538634765625 19.9276563671875  2.75948005859375 19.90356265625  C 4.48069611328125 18.1818466015625  6.20344341796875 16.4616617773438  7.9244407421875 14.7396957226563  C 7.9792531640625 14.6848520507813  8.03237806640625 14.6613520898438  8.11065919921875 14.6613833398438  C 12.0266530859375 14.6633208398438  15.942615703125 14.6630708398438  19.8586095898437 14.6630708398438  C 19.90070328125 14.6630708398438  19.942796953125 14.6630708398438  19.999984375 14.6630708398438  C 19.999984375 9.7723597265625  19.999984375 4.88617986328125  19.999984375 0  Z M 18.659236484375 1.3378729296875  C 18.6592052148438 5.3304916796875  18.6592052148438 9.3237979296875  18.6592052148438 13.3311666796875  C 18.6139865429688 13.3311666796875  18.5696741015625 13.3311666796875  18.5253616796875 13.3311666796875  C 14.8375549414062 13.3311666796875  11.149716953125 13.3314791796875  7.46191021484375 13.3293854296875  C 7.3706603515625 13.3293229296875  7.30622294921875 13.353666640625  7.24072306640625 13.4194477929687  C 6.19338095703125 14.4707899023437  5.14322634765625 15.5193820117187  4.09360298828125 16.5684741210937  C 4.06922802734375 16.5928490820312  4.04341556640625 16.6157552929687  4.002353125 16.654255234375  C 4.002353125 15.5369444726562  4.002353125 14.4397899414062  4.002353125 13.3333541796875  C 3.11060451171875 13.3333541796875  2.2299183984375 13.3333541796875  1.34076353515625 13.3333541796875  C 1.34076353515625 9.3308291796875  1.34076353515625 5.3376479296875  1.34076353515625 1.3378729296875  C 7.11178576171875 1.3378729296875  12.8812142578125 1.3378729296875  18.659236484375 1.3378729296875  Z " fill-rule="nonzero" fill="#1abc9c" stroke="none" transform="matrix(1 0 0 1 750 502 )" />
  </g>
</svg>