<?xml version="1.0" encoding="utf-8"?>
<svg version="1.1" xmlns:xlink="http://www.w3.org/1999/xlink" width="20px" height="20px" xmlns="http://www.w3.org/2000/svg">
  <g transform="matrix(1 0 0 1 -785 -502 )">
    <path d="M 11.0266973173792 15.6840969441746  L 16.7914717135826 10.0152856347963  C 17.0887240790297 9.7230397229513  17.4836969207906 9.56241067438019  17.903927280405 9.56241067438019  C 18.3244104361923 9.56241067438019  18.7189236587561 9.7230397229513  19.0164058225723 10.0152856347963  L 19.5402401211042 10.5305458488279  C 20.153222554364 11.1334527259356  20.153222554364 12.1151223833754  19.5402401211042 12.7180066500181  L 13.7750290585899 18.3872472711832  L 9.36894201152018 19.999977389535  L 11.0266973173792 15.6840969441746  Z M 10.9546939556572 18.4413852914737  L 13.2672134042701 17.5944054228877  L 13.3292884523253 17.5329239696145  L 11.8875203012047 16.1156646547486  L 11.8243191243551 16.1784566317664  L 10.9546939556572 18.4413852914737  Z M 13.9826506947667 16.890769299883  L 17.770768176398 13.1657976783073  L 16.3287931797947 11.747883101569  L 12.5411353622779 15.4730580627653  L 13.9826506947667 16.890769299883  Z M 18.4239465487017 12.5233944701058  L 18.8897966458489 12.0658423230457  C 19.1428081762718 11.8166628110561  19.1428081762718 11.4116896220718  18.8902562875048 11.1627134497029  L 18.3668586328248 10.6477017962218  C 18.2438576633124 10.5274277243985  18.0809135509293 10.4610657006996  17.9071217966504 10.4610657006996  C 17.7337897064861 10.4610657006996  17.5703859524473 10.527427702318  17.4480514476147 10.6477017962218  L 16.9826609921232 11.1059092051542  L 18.4239465487017 12.5233944701058  Z M 19.9997701342545 19.4434583984133  C 19.9986440054601 19.4053177457524  19.9932201845122 19.366702604536  19.9799134844625 19.3092205097306  L 19.9514844481675 19.1039659990894  C 19.7302803404227 17.5143055544956  19.1872788321239 16.0369204868699  18.3846928907735 14.750577574556  L 17.5604346858943 15.537883612634  C 18.2057071812922 16.6220675503516  18.6548491942026 17.8453699471775  18.8505200350343 19.1456992868157  L 18.8712729927928 19.2843884341373  L 18.8945310267719 19.2868287083099  L 18.8945310267719 19.4563602520785  C 18.8945310267719 19.7559269864412  19.1428082211894 20  19.4477136673691 20  C 19.7494705479937 20  19.9950128453628 19.7616887688249  20 19.4514797037332  L 19.9997701342545 19.4434583984133  Z M 14.6505147145464 11.1915900826133  C 14.4406178678945 11.0757446589641  14.2273196595143 10.9652316838312  14.0081839392208 10.8638245655969  L 13.7671461570293 10.7524303785061  L 13.9691371043167 10.5820176227796  C 15.3312258151787 9.43370859591504  16.1128060025975 7.7694614826816  16.1128060025975 6.01582791500164  C 16.1128060025975 2.69849572874903  13.3674159590004 0  9.99369134752883 0  C 6.6195070944014 0  3.87434687163225 2.69849572874903  3.87434687163225 6.01582791500164  C 3.87434687163225 7.76946150476214  4.65572021356835 9.43370859591504  6.01780892443033 10.5820176227796  L 6.22002969254549 10.7524303785061  L 5.9794285766647 10.8638245655969  C 2.77000402719842 12.3481011439536  0.548241459109109 15.4289071113313  0.0358982693489464 19.1039659990894  L 0 19.3627032681487  L 0 19.4563602299979  C 0 19.7559269643607  0.248507015245369 19.9999999779195  0.552952819769388 19.9999999779195  C 0.858111062122268 19.9999999779195  1.10682492285041 19.7559269643607  1.10682492285041 19.4570380802546  L 1.09917184211768 19.3926644526377  L 1.13640308574381 19.1456992647351  C 1.67538269586617 15.5676188470374  4.11336221706288 12.5613769378343  7.34806723726896 11.486479586171  L 7.41262436374105 11.4647430245421  L 7.47469941179633 11.4924898849441  C 8.27503311801679 11.8501939980651  9.12229656070204 11.8448615274682  9.9937143453328 11.8448615274682  C 10.8646724883077 11.8448615274682  11.7121657518208 11.8501939980651  12.5122696147545 11.4924898849441  L 12.5745744836378 11.4647430245421  L 12.6391316101098 11.486479586171  C 13.0738177963723 11.6307271320945  13.4922785153988 11.8124600688066  13.8951342811789 12.0232503896654  L 14.6505147145464 11.1915900826133  Z M 12.5102012273034 10.4242581601678  C 12.0834209404056 10.6570335811254  11.5358689437801 10.7402289855626  11.0567121241245 10.8423139540536  C 10.7012457364648 10.9179851742718  10.3437339366993 10.9557191035302  9.99369136998757 10.9557191035302  C 9.64318916162008 10.9557191035302  9.28567733939568 10.9179851742718  8.93110728216145 10.8423139540536  C 8.45263992498942 10.7409068358193  7.99288011346991 10.5704940800929  7.56541036408837 10.3370633972629  C 5.96384666613989 9.46434763066079  4.96922106651394 7.80855111245359  4.96922106651394 6.01585050338605  C 4.96922106651394 3.29229674895817  7.22302087810937 1.07623044171181  9.99371436779154 1.07623044171181  C 12.763925218014 1.07623044171181  15.0177480274134 3.29229672687763  15.0177480274134 6.01585050338605  C 15.0177250296094 7.80852854614972  14.1117649477107 9.55109049339455  12.5102012273034 10.4242581601678  Z " fill-rule="nonzero" fill="#1abc9c" stroke="none" transform="matrix(1 0 0 1 785 502 )" />
  </g>
</svg>