<?xml version="1.0" encoding="utf-8"?>
<svg version="1.1" xmlns:xlink="http://www.w3.org/1999/xlink" width="20px" height="20px" xmlns="http://www.w3.org/2000/svg">
  <g transform="matrix(1 0 0 1 -819 -502 )">
    <path d="M 17.0649487050241 2.93498422987553  C 15.1078015139552 0.978350398103568  12.7528855849204 0  10.0000000246178 0  C 7.24715910727134 0  4.89213157084642 0.978350398103568  2.93498437977773 2.93498422987553  C 0.977837188708806 4.89168502608267  -0.000513192045625268 7.246645639834  0 10  C 0.000491274464389549 12.753354360166  0.978797012262909 15.1082480094822  2.93498437977773 17.0649488056893  C 4.89117174729255 19.0216496018964  7.24619928371723 20  10.0000000246178 20  C 12.7538007655186 20  15.1088059804652 19.0216496018964  17.0649487050241 17.0649488056893  C 19.0212030369729 15.1082480094822  19.9995534177274 12.753354360166  19.9999998472874 10  C 20.0004462768475 7.246645639834  19.022095896093 4.89168502608267  17.0649487050241 2.93498422987553  Z M 16.0600357654493 16.0600358482943  C 14.3861481302045 17.7342583353981  12.3661659785647 18.571425382646  10.0000000246178 18.571425382646  C 7.63381174919305 18.571425382646  5.61378495459711 17.7342583353981  3.9400089267425 16.0600358482943  C 2.26618825593174 14.3857017537986  1.42906586648549 12.3657195663383  1.42857479396952 10  C 1.42808372145355 7.63428043366167  2.26522843237787 5.61429824620143  3.9400089267425 3.94000879466251  C 5.61478942110713 2.26571934312354  7.63474925126908 1.42857461735408  10.0000000246178 1.42857461735408  C 12.3651838335328 1.42857461735408  14.3852775925625 2.26574166460195  16.0600357654493 3.94000879466251  C 17.734793938336 5.61427592472308  18.5718716848264 7.63425811218332  18.5714252552663 10  C 18.5709788257063 12.3657418878167  17.7338117933039 14.385724075277  16.0600357654493 16.0600358482943  Z M 12.8786001490183 9.99924106973457  L 12.8792251504023 10  C 13.0725291498852 10  13.2399402348877 9.92930787791936  13.3814584054097 9.78783434784456  C 13.522864968542 9.64642778220487  13.5935124464129 9.4790836586689  13.5935124464129 9.28571269132296  C 13.5935124464129 9.09234172397707  13.522864968542 8.9249976004411  13.3814584054097 8.78359103480142  C 13.2399402348877 8.64213982620497  13.0725291498852 8.57142538264598  12.8792251504023 8.57142538264598  L 10.7142649991504 8.57142538264598  L 10.7142649991504 8.23644695635482  L 13.3707440959697 5.46858363523133  C 13.5044497491915 5.31954312398018  13.5678427467126 5.14833738468166  13.5606998737524 4.95503338177094  C 13.5535570007924 4.76168473590341  13.4827979155313 4.59788972743242  13.3485342253592 4.46358139192276  C 13.2743153110082 4.38929551182038  13.1923954867471 4.3371748597653  13.1028863599656 4.3071747928009  C 13.0133772331844 4.27715240435808  12.924091321183 4.26219701383261  12.8350286239616 4.26219701383261  C 12.7459659267404 4.26219701383261  12.656680014739 4.28072384090147  12.5671708879578 4.31788910243107  C 12.4776617611764 4.35505436396067  12.4031080246552 4.41074645255908  12.3435096783944 4.48501001118305  L 10.0664064216689 6.87354212844224  L 7.67785202528766 4.46282246165727  C 7.5288115166794 4.32900519867234  7.35765042337297 4.26215237087584  7.16430178093415 4.26215237087584  C 6.9709531384951 4.26215237087584  6.79979204518867 4.32900519867234  6.6507515365804 4.46282246165727  C 6.59122015475359 4.53715298471647  6.54289415488298 4.6190058459952  6.50572889401243 4.70858193879898  C 6.4686082760978 4.79809106716758  6.44624215514153 4.8873769807522  6.43858588818725 4.97643967955289  C 6.43099658566719 5.06545773539675  6.44595197592751 5.15472132750296  6.4836306307921 5.24429742030673  C 6.52124232122248 5.33380654867534  6.57693440883335 5.41572637438924  6.6507515365804 5.48998993301327  L 9.28502076278944 8.12425920593576  L 9.28502076278944 8.5706887738589  L 7.16432410241199 8.5706887738589  C 6.97097545997317 8.5706887738589  6.80360901792677 8.64140321741789  6.66220245479471 8.78285442601434  C 6.52075124870651 8.92426099165403  6.45003680640156 9.09167207962517  6.45003680640156 9.28497608253594  C 6.45003680640156 9.47832472840342  6.52072892722867 9.6456911734178  6.66220245479471 9.78714238201425  C 6.80360901792677 9.92854894765393  6.9709531384951 9.99924106973457  7.16432410241199 9.99924106973457  L 9.28502076278944 9.99924106973457  L 9.28502076278944 11.4278603300454  L 7.16432410241199 11.4278603300454  C 6.97097545997317 11.4278603300454  6.80360901792677 11.4985078091692  6.66220245479471 11.6399143748089  C 6.52075124870651 11.7814325478405  6.45003680640156 11.9488436358117  6.45003680640156 12.1421476387224  C 6.45003680640156 12.3354516416332  6.52072892722867 12.5028627296043  6.66220245479471 12.644269295244  C 6.80360901792677 12.7856758608836  6.9709531384951 12.8564349473994  7.16432410241199 12.8564349473994  L 9.28502076278944 12.8564349473994  L 9.28502076278944 14.9770870024264  C 9.28502076278944 15.1705026127291  9.35573520509439 15.3378020933083  9.49718641118236 15.4792086589479  C 9.63859297431466 15.6207268319795  9.80600405931697 15.6913743111034  9.99930805879987 15.6913743111034  C 10.1926790227168 15.6913743111034  10.3600677862412 15.6207268319795  10.5014743493733 15.4792086589479  C 10.6428809125054 15.3378020933083  10.7136399977665 15.1705026127291  10.7136399977665 14.9770870024264  L 10.7136399977665 12.8564349473994  L 12.8786001490183 12.8564349473994  C 13.0719041485012 12.8564349473994  13.2393152335038 12.7856758608836  13.3807217966358 12.644269295244  C 13.5221283597679 12.5028627296043  13.592887445029 12.3354516416332  13.592887445029 12.1421476387224  C 13.592887445029 11.9488436358117  13.5221283597679 11.7814325478405  13.3807217966358 11.6399143748089  C 13.2393152335038 11.4985078091692  13.0719041485012 11.4278603300454  12.8786001490183 11.4278603300454  L 10.7136399977665 11.4278603300454  L 10.7136399977665 9.99924106973457  L 12.8786001490183 9.99924106973457  Z " fill-rule="nonzero" fill="#1abc9c" stroke="none" transform="matrix(1 0 0 1 819 502 )" />
  </g>
</svg>