<?xml version="1.0" encoding="utf-8"?>
<svg version="1.1" xmlns:xlink="http://www.w3.org/1999/xlink" width="13px" height="19px" xmlns="http://www.w3.org/2000/svg">
  <g transform="matrix(1 0 0 1 -1018 -543 )">
    <path d="M 12.8395061790313 9.65573772925203  C 13.0534979403229 9.44808743980532  13.0534979403229 9.13661202996926  12.8395061790313 8.92896176485654  C 12.4115226313713 8.51366121029712  11.7695473224197 8.09836068007173  11.1275720134681 7.68306012551228  C 11.876543215604 6.85245904072747  12.304526738187 5.81420766649589  12.304526738187 4.67213117187498  C 12.3045267632642 2.0765027484631  10.1646090500407 0  7.48971194612732 0  C 4.8148148422139 0  2.6748971289906 2.0765027484631  2.6748971289906 4.67213114754098  C 2.6748971289906 5.81420764216186  3.10288067665065 6.85245901639344  3.74485598560225 7.68306010117826  C 1.49794237919452 8.92896176485654  0 11.3169398988217  0 14.016393442623  C 0 16.8196721311475  3.20987654475777 19  7.2757201597587 19  C 7.59670781423444 19  7.810699575526 18.7923497348873  7.810699575526 18.4808743250512  C 7.810699575526 18.1693989152152  7.59670781423444 17.9617486501024  7.2757201597587 17.9617486501024  C 3.85185185370938 17.9617486501024  1.06995883153447 16.1967213358094  1.06995883153447 14.0163934669569  C 1.06995883153447 11.7322404533811  2.46090534262198 9.44808746413934  4.70781892395241 8.51366123463115  C 5.45679012608832 9.0327868852459  6.41975308951567 9.34426229508197  7.48971194612732 9.34426229508197  C 8.55967080273897 9.34426229508197  9.52263376616631 9.0327868852459  10.271604943225 8.51366121029712  C 10.9135802521766 8.82513662013319  11.6625514543126 9.24043717469261  12.0905349768954 9.75956284964139  C 12.1975308700799 9.86338799436474  12.304526738187 9.86338799436474  12.4115226313713 9.86338799436474  C 12.5185185245556 9.86338799436474  12.6255143926627 9.86338799436474  12.8395061790313 9.65573772925203  Z M 7.48971194612732 8.30601094518441  C 5.45679015116551 8.30601094518441  3.74485596052507 6.64480875128073  3.74485596052507 4.67213114754098  C 3.74485596052507 2.69945356813523  5.45679012608832 1.03825137423155  7.48971194612732 1.03825137423155  C 9.52263376616631 1.03825137423155  11.2345679066524 2.69945356813523  11.2345679066524 4.67213114754098  C 11.2345679066524 6.64480872694671  9.52263374108925 8.30601094518441  7.48971194612732 8.30601094518441  Z " fill-rule="nonzero" fill="#1abc9c" stroke="none" transform="matrix(1 0 0 1 1018 543 )" />
  </g>
</svg>