<?xml version="1.0" encoding="utf-8"?>
<svg version="1.1" xmlns:xlink="http://www.w3.org/1999/xlink" width="10px" height="10px" xmlns="http://www.w3.org/2000/svg">
  <g transform="matrix(1 0 0 1 -1027 -554 )">
    <path d="M 4.89795919978003 1.95652176128307  C 5.51020409676303 1.95652176128307  6.02040814569447 1.63043477983961  6.42857141832174 1.3043478238717  C 6.63265304267747 1.41304348435284  6.83673469094912 1.52173911935846  7.04081631530485 1.63043477983961  C 6.93877549116897 2.28260869177546  7.04081631530485 2.93478260371131  7.34693876379635 3.47826085516598  C 7.65306121228785 4.02173910662069  8.16326528513509 4.45652172306977  8.67346938189812 4.67391301855654  C 8.67346938189812 4.78260867903768  8.67346938189812 4.8913043140433  8.67346938189812 4.99999997452445  C 8.67346938189812 5.10869563500559  8.67346938189812 5.21739127001121  8.67346938189812 5.32608693049236  C 8.16326530905088 5.54347822597912  7.65306121228785 5.97826084242821  7.34693876379635 6.52173909388291  C 7.04081631530485 7.06521734533759  6.93877549116897 7.71739125727344  7.04081631530485 8.36956516920929  C 6.83673469094912 8.47826082969043  6.63265304267747 8.58695646469605  6.42857141832174 8.69565212517723  C 6.02040814569447 8.26086950872814  5.40816324871147 8.04347821324138  4.79591835172847 8.04347821324138  C 4.18367345474535 8.04347821324138  3.57142855776235 8.26086950872814  3.16326528513509 8.69565212517723  C 2.95918366077935 8.58695646469605  2.75510201250782 8.47826082969043  2.55102038815209 8.36956516920929  C 2.65306121228785 7.71739125727344  2.55102038815209 7.06521734533759  2.24489793966059 6.52173909388291  C 2.04081631530485 5.86956520742262  1.63265306659338 5.54347825145468  1.02040816961027 5.32608695596791  C 1.02040816961027 5.21739129548677  1.02040816961027 5.10869566048114  1.02040816961027 5  C 1.02040816961027 4.89130433951886  1.02040816961027 4.78260870451323  1.02040816961027 4.67391304403209  C 1.53061224245762 4.45652174854532  2.04081633922065 4.02173913209624  2.34693878771215 3.47826088064153  C 2.65306123620365 2.93478262918686  2.75510206033941 2.28260871725101  2.65306123620365 1.63043480531516  C 2.85714286055938 1.52173914483402  3.06122450883091 1.4130435098284  3.26530613318665 1.30434784934725  C 3.67346940581403 1.7391304657963  4.28571430279703 1.95652176128307  4.89795919978003 1.95652176128307  Z M 6.12244896983024 0  C 5.9183673454745 0.543478251454675  5.40816324871147 0.869565207422615  4.79591835172847 0.869565207422615  C 4.18367345474535 0.869565207422615  3.77551018211809 0.543478251454675  3.46938773362659 0  C 2.65306121228785 0.217391295486766  1.93877549116909 0.65217391193585  1.32653059418597 1.3043478238717  C 1.63265304267747 1.73913044032078  1.63265304267747 2.3913043522566  1.32653059418597 2.93478260371131  C 1.02040814569447 3.47826085516601  0.612244896983001 3.6956521761283  0.102040824135765 3.6956521761283  L 0 3.6956521761283  C 0 4.02173913209621  0 4.45652174854529  0 5  C 0 5.54347825145468  0 5.86956520742262  0.204081624355735 6.3043478238717  L 0.3061224484915 6.3043478238717  C 0.816326521338736 6.3043478238717  1.32653061810188 6.63043477983961  1.53061224245762 7.06521739628869  C 1.83673469094912 7.6086956477434  1.73469386681335 8.26086955967922  1.53061224245762 8.6956521761283  C 2.14285713944062 9.34782608806415  2.85714286055938 9.78260870451323  3.67346938189812 10  C 3.87755100625385 9.4565217485453  4.387755103017 9.13043479257738  5 9.13043479257738  C 5.612244896983 9.13043479257738  6.02040816961027 9.4565217485453  6.32653061810177 10  C 7.14285713944062 9.78260870451323  7.85714286055938 9.34782608806415  8.46938775754238 8.6956521761283  C 8.16326530905088 8.26086955967922  8.16326530905088 7.6086956477434  8.46938775754238 7.06521739628869  C 8.77551020603388 6.52173914483399  9.18367347866126 6.3043478238717  9.6938775515085 6.3043478238717  L 9.79591837564426 6.3043478238717  C 9.89795919978003 5.86956520742262  10 5.43478261644908  10 5  C 10 4.56521738355092  10 4.13043479257739  9.79591837564426 3.6956521761283  L 9.6938775515085 3.6956521761283  C 9.18367347866126 3.6956521761283  8.67346938189812 3.36956522016039  8.46938775754238 2.93478260371131  C 8.16326530905088 2.3913043522566  8.26530613318665 1.73913044032078  8.46938775754238 1.3043478238717  C 7.65306121228785 0.65217391193585  6.93877549116897 0.217391295486766  6.12244896983024 0  Z " fill-rule="nonzero" fill="#1abc9c" stroke="none" transform="matrix(1 0 0 1 1027 554 )" />
  </g>
</svg>