<?xml version="1.0" encoding="utf-8"?>
<svg version="1.1" xmlns:xlink="http://www.w3.org/1999/xlink" width="15px" height="20px" xmlns="http://www.w3.org/2000/svg">
  <g transform="matrix(1 0 0 1 -854 -502 )">
    <path d="M 7.31856561358026 5.42362979518651  C 7.06805861969922 5.39431583115982  6.90183434696164 5.32347374546407  6.81521041053792 5.21598921069944  C 6.76136309932489 5.14758996130381  6.7168805577711 5.01079143865432  6.68644512497515 4.80803650290926  L 5.80147647293976 4.80803650290926  C 5.79445291856077 5.25263168362642  5.97940668488581 5.56775682673629  6.35165540995064 5.75096909593869  C 6.56470341665688 5.85356798196125  6.88544604578893 5.92196723135688  7.31622442116539 5.95860970428387  L 7.31622442116539 6.4374044977698  L 7.6346258578827 6.4374044977698  L 7.6346258578827 5.95372405554185  C 7.97409795773683 5.93418141285735  8.2667463236223 5.86822497590368  8.5149121479541 5.75585476853887  C 8.91993749822962 5.57264247547831  9.12362075814212 5.27950281135305  9.12362075814212 4.87643575230495  C 9.12362075814212 4.57108193053733  8.97612597899189 4.33168452186529  8.68113642069167 4.16557205904727  C 8.5032062087455 4.06541600932483  8.15436936209775 3.94816012935984  7.6346258578827 3.81624727931053  L 7.6346258578827 2.90018579014963  C 7.85001505700368 2.91239994779194  7.99985102856866 2.9734707121455  8.08179255729738 3.08828375581037  C 8.12861629126592 3.1542401927641  8.16139291647661 3.25928189122862  8.17778121764933 3.40096606262012  L 9.0416792065479 3.40096606262012  C 9.02763207492466 3.01744167011462  8.83799594663552 2.73895897607363  8.4704295835348 2.56551800435532  C 8.26908751603717 2.45803346959069  7.98814506649467 2.39451986893707  7.6346258578827 2.37253438995251  L 7.6346258578827 2.04763792550045  L 7.31622442116539 2.04763792550045  L 7.31622442116539 2.36764871735234  C 7.09381166766554 2.37986287499464  6.92290501009835 2.39940551767915  6.80818685615893 2.42871948170584  C 6.6185507050044 2.47269043967501  6.44530287788784 2.5508610104129  6.29078454435875 2.66323124163587  C 6.17138400558983 2.751173133716  6.07773653765263 2.85621485603862  6.00984209481637 2.97835638474568  C 5.9419476748455 3.10049791345268  5.9091710496348 3.23485359980211  5.90917107250019 3.38386625623574  C 5.90917107250019 3.61104950726542  5.99579498605853 3.80403312166823  6.16670162076021 3.96281709944411  C 6.33760827832741 4.12404391352011  6.63259781376224 4.24862827852723  7.05167029566112 4.33901303076558  L 7.31856561358026 4.39764095881902  L 7.31856561358026 5.42362979518651  Z M 7.63930821984693 4.47825436585702  L 7.63696702743206 4.47825436585702  C 7.81957960134235 4.52711097256821  7.94834488690499 4.57596757927941  8.02326288412024 4.62238137354864  C 8.15202816968288 4.70299478058664  8.21524020482414 4.81047933920938  8.21524020482414 4.94972067430082  C 8.21524020482414 5.13049013106126  8.14734578485338 5.2575173323685  8.01155694491175 5.33324506680626  C 7.93429777814715 5.37477318847532  7.810214877414 5.40408715250201  7.63930821984693 5.41874414644444  L 7.63930821984693 4.47825436585702  Z M 7.31856561358026 3.74784800605674  C 7.1570237028068 3.71120555698792  7.03996435645263 3.67212024776082  6.96270518968803 3.6281493136498  C 6.82457515733165 3.54997874291192  6.75668073736078 3.44249418428912  6.75668073736078 3.30813849793975  C 6.75668073736078 3.18599696923275  6.80350447132944 3.08828375581037  6.89481076971727 3.0149988338145  C 6.98611706810511 2.94415674811875  7.12658827001085 2.90751429904993  7.31856561358026 2.90262862644969  L 7.31856561358026 3.74784800605674  Z M 0.0140623141893414 4.85200743702027  C -0.0163731186066047 5.10606181577658  0.0117211217745913 9.63751258329559  0.0140623141893414 4.85200743702027  Z M 15 3.6892200780033  C 14.8946465928543 -0.886201623626662  0.0140623370548491 -1.75829215481844  0.0140623141893414 4.25107111482735  L 0.0140623141893414 4.85445027332039  C 0.0164035066042112 4.84223611567802  0.0164035066042112 4.83979327937791  0 4.8471217882782  L 0 15.6346617191572  L 0.0702508178171214 15.6346617191572  C 0.201357295794638 18.0921493110985  3.37132441701727 20  7.40753071955323 20  C 11.4390546372597 20  14.8127050412602 18.0970349598406  14.9484938812018 15.6346617191572  L 15 15.6346617191572  L 15 3.6892200780033  Z M 1.25723260539723 4.25107111482735  C 1.25723260539723 2.7536159461579  3.78337332167178 1.08760547837038  7.40753071955323 1.08760550222854  C 11.0316881174348 1.08760550222854  13.6584998788908 2.75605880631618  13.6584998788908 4.25107111482735  C 13.6584998788908 5.74852628349673  11.0316881174348 7.41453675128426  7.40753071955323 7.41453675128426  C 3.78337332167178 7.41453675128426  1.25723260539723 5.74608344719661  1.25723260539723 4.25107111482735  Z M 1.19167935497583 7.64660565105601  L 1.19167935497583 6.84291439311802  C 2.51679117491232 8.08387234673104  4.78306012764659 8.88756360466897  7.40518952713848 8.88756360466897  C 10.0296600961797 8.88756360466897  12.396600116961 8.08387234673104  13.7217119140321 6.84291439311802  L 13.7217119140321 7.64416281475589  C 13.3752162369337 9.24665968188979  10.5189681675987 10.5853308489252  7.40518952713848 10.5853308727833  C 4.29375207909298 10.5853308727833  1.54051622448909 9.24665970574795  1.19167935497583 7.64660565105601  Z M 1.19167935497583 10.370361779396  L 1.19167935497583 9.74499714191832  C 2.48401454970162 11.0030549019157  4.75730707968026 11.8262888025382  7.40518952713848 11.8262888025382  C 10.0530719745967 11.8262888025382  12.4293767193063 11.0030549019157  13.7217119140321 9.74255430561827  L 13.7217119140321 10.3679189430959  C 13.3752162369337 11.9704158102298  10.5189681675987 13.3090869772651  7.40518952713848 13.3090869772651  C 4.29375207909298 13.3090869772651  1.54051622448909 11.9704158102298  1.19167935497583 10.370361779396  Z M 1.19167935497583 13.0941178838778  L 1.19167935497583 12.4687532464001  C 2.48401454970162 13.7268110063975  4.75730707968026 14.55004490702  7.40518952713848 14.5500449308781  C 10.0530719745967 14.5500449308781  12.4293767193063 13.7268110302557  13.7217119140321 12.4663104339582  L 13.7217119140321 13.0916750475777  C 13.3752162369337 14.6941719147116  10.5189681675987 16.0328430817469  7.40518952713848 16.0328431056051  C 4.29375207909298 16.0328431056051  1.54051622448909 14.6941719385698  1.19167935497583 13.0941178838778  Z M 13.7427826000343 15.6322188828571  C 13.5765583272967 17.3128863445871  10.636027513953 18.7565992100869  7.40753071955323 18.7565992100869  C 4.17669273273882 18.7565992100869  1.33917413412594 17.3128863207289  1.1706086689735 15.6322188828571  L 1.19167935497571 15.6322188828571  L 1.19167935497571 15.1925093747401  C 2.48401454970162 16.4505671347375  4.75730707968026 17.27380103536  7.40518952713848 17.27380103536  C 10.0530719745967 17.27380103536  12.4293767193063 16.4505671347375  13.7217119140321 15.19006653844  L 13.7217119140321 15.6322188828571  L 13.7427826000343 15.6322188828571  Z " fill-rule="nonzero" fill="#1abc9c" stroke="none" transform="matrix(1 0 0 1 854 502 )" />
  </g>
</svg>