<?xml version="1.0" encoding="utf-8"?>
<svg version="1.1" xmlns:xlink="http://www.w3.org/1999/xlink" width="11px" height="11px" xmlns="http://www.w3.org/2000/svg">
  <g transform="matrix(1 0 0 1 -647 -587 )">
    <path d="M 10.9526499251854 4.12658505791292  C 10.82568550295 3.71537574792774  10.4691415774944 3.42734808146239  10.00070663153 3.35669978591428  L 7.76462546001419 3.01795026623483  C 7.69157743626232 3.00466597134547  7.53156747947251 2.88389965416919  7.49678270625732 2.81627051655049  L 6.49672047632088 0.707690618652936  C 6.28859158325006 0.26447823461603  5.91639450984759 0  5.50013672370593 0  C 5.08387893756428 0  4.7111021179417 0.26447823461603  4.50471246353156 0.705275292309393  L 3.50465023359512 2.81445902179286  C 3.46986546038005 2.88269199099742  3.3092757573699 3.00406213975956  3.23680747983825 3.01734643464898  L 1.00072630832256 3.35609595432837  C 0.532291362358051 3.42614041829062  0.176327183122789 3.71416808475604  0.0505222533278325 4.12296206839767  C -0.0799206462290625 4.53537904155462  0.0458842835657744 4.9870450677938  0.385615568634072 5.32760608223088  L 2.00368726936013 6.97123565899982  C 2.05470493674241 7.02618433331502  2.11615803608926 7.22303343031234  2.10572260412469 7.29790854696162  L 1.7219306063172 9.62024482626123  C 1.6593180145299 10.0085085359829  1.74164197780589 10.3659768348246  1.9532493481982 10.6256244167536  C 2.26979078445633 11.0193226107482  2.81823070881568 11.1177471592469  3.33362509862052 10.8381731349839  L 5.33548879715419 9.74282263819514  C 5.36099763084527 9.72893451171986  5.63289860814398 9.72712301696217  5.66420490403757 9.74342646978099  L 7.66722809501169 10.8387769665697  C 7.86492155611795 10.9456551572707  8.06551374832546 11  8.26030847833047 11  C 8.56815372128483 11  8.85512810031004 10.862930230005  9.0452848605531 10.6262282483395  C 9.25921121582645 10.3623538453094  9.34153517910232 10.0036778832959  9.27602385621376 9.61722566833177  L 8.89281160462649 7.29790854696162  C 8.88295591888227 7.22182576714057  8.94266977956832 7.02618433331502  8.99716592427208 6.9694241642422  L 10.6117591476767 5.32760608223088  C 10.9514904327448 4.98644123620795  11.07787510876 4.53598287314048  10.9526499251854 4.12658505791292  Z M 9.9989673928692 4.44299280891476  C 10.0036053626313 4.45325794587472  9.98911170712497 4.50639512543229  9.91664342959333 4.57945874732394  L 8.30262995240898 6.22006916616349  C 8.01449608094319 6.50930449580061  7.84115196108755 7.05939507053852  7.90898226885714 7.47181204369547  L 8.29161477422418 9.79414832299502  C 8.30784766839126 9.89015754515014  8.29335401288486 9.93846407202069  8.28117934225961 9.95355986166768  C 8.28117934225961 9.95355986166768  8.27132365651527 9.98978975682057  8.12986557877357 9.91310314541368  L 6.13263985000196 8.82016797496843  C 5.96219446124758 8.72476258439923  5.73667318156922 8.67222923642751  5.49897723126548 8.67222923642751  C 5.26302051962254 8.67222923642751  5.03865873238463 8.72415875281331  4.86937283607071 8.8183564802108  L 2.87040786863841 9.91310314541368  C 2.79678009866631 9.95235219849591  2.75387887836757 9.95597518801122  2.71677512027135 9.95174836691005  C 2.70575994208655 9.93846407202069  2.69126628658027 9.88894988197837  2.70691943452701 9.7923368282374  L 3.09013168611427 7.47181204369547  C 3.15796199388386 7.06120656529615  2.98635711268903 6.51232365373007  2.69996247988404 6.22248449250703  L 1.08015154049718 4.57764725256631  C 1.00942250162633 4.50639512543229  0.996668084780731 4.45386177746064  1.00014656210221 4.44299280891476  C 1.00130605454279 4.43816215622773  1.03725032019844 4.40072459790306  1.14276413228448 4.38442114508424  L 3.37826555758006 4.04506779381894  C 3.7742322260128 3.98528846681671  4.22179630804817 3.64714277872318  4.39919865144552 3.27397485864853  L 5.40042037382252 1.16177197123566  C 5.48796205308068 0.975188011198302  5.50651393212879 0.973376516440676  5.59637459626798 1.1641872975792  L 6.59701657242464 3.27457869023438  C 6.77383916960176 3.64774661030904  7.22256274407758 3.98649612998849  7.61794966629022 4.04627545699071  L 9.85461058402625 4.38442114508424  C 9.95664591879081 4.39951693473129  9.99548891554771 4.43574682988419  9.9989673928692 4.44299280891476  Z " fill-rule="nonzero" fill="#1abc9c" stroke="none" transform="matrix(1 0 0 1 647 587 )" />
  </g>
</svg>