<?xml version="1.0" encoding="utf-8"?>
<svg version="1.1" xmlns:xlink="http://www.w3.org/1999/xlink" width="19px" height="20px" xmlns="http://www.w3.org/2000/svg">
  <g transform="matrix(1 0 0 1 -674 -583 )">
    <path d="M 9.2775 1.9675  C 4.46125 1.9675  0.541874999999999 5.8725  0.541874999999999 10.67125  C 0.541875 15.470625  4.460625 19.375  9.2775 19.375  C 14.09375 19.375  18.013125 15.470625  18.013125 10.67125  C 18.013125 5.8725  14.09375 1.9675  9.2775 1.9675  Z M 9.2775 18.235625  C 5.09125 18.235625  1.685 14.8425  1.685 10.67125  C 1.685 6.5  5.09125 3.106875  9.2775 3.106875  C 13.46375 3.106875  16.87 6.500625  16.87 10.67125  C 16.869375 14.8425  13.46375 18.235625  9.2775 18.235625  Z M 1.326875 4.258125  C 1.6375 2.626875  3.09625 1.52875  4.573125 1.8075  C 4.883125 1.865  5.1825 1.663125  5.24125 1.35375  C 5.3 1.045  5.09625 0.746875  4.78625 0.688125  C 2.685 0.291875  0.631875 1.798125  0.204375 4.04625  C 0.145 4.355  0.34875 4.653125  0.659375 4.711875  C 0.695 4.71875  0.73125 4.721875  0.76625 4.721875  C 1.035625 4.721875  1.275 4.53125  1.326875 4.258125  Z M 18.30875 4.04625  C 17.880625 1.798125  15.82375 0.294375  13.72625 0.68875  C 13.41625 0.7475  13.211875 1.045625  13.27125 1.354375  C 13.33 1.663125  13.63 1.865625  13.94 1.808125  C 15.416875 1.529375  16.875625 2.6275  17.185625 4.259375  C 17.238125 4.531875  17.4775 4.7225  17.746875 4.7225  C 17.7825 4.7225  17.818125 4.719375  17.854375 4.7125  C 18.16375 4.653125  18.3675 4.355  18.30875 4.04625  Z M 13.6325 10.4775  L 9.64875 10.4775  L 9.64875 6.08375  C 9.64875 5.769375  9.393125 5.51375  9.0775 5.51375  C 8.761875 5.51375  8.505625 5.76875  8.505625 6.08375  L 8.505625 11.046875  C 8.505625 11.361875  8.76125 11.61625  9.0775 11.61625  L 13.6325 11.61625  C 13.948125 11.61625  14.204375 11.361875  14.204375 11.046875  C 14.204375 10.7325  13.94875 10.4775  13.6325 10.4775  Z " fill-rule="nonzero" fill="#1abc9c" stroke="none" transform="matrix(1 0 0 1 674 583 )" />
  </g>
</svg>