<?xml version="1.0" encoding="utf-8"?>
<svg version="1.1" xmlns:xlink="http://www.w3.org/1999/xlink" width="20px" height="20px" xmlns="http://www.w3.org/2000/svg">
  <g transform="matrix(1 0 0 1 -710 -583 )">
    <path d="M 19.9883957804084 10.4497489353165  C 20.0558591824408 8.99142995899642  19.8289263924731 7.58230865610351  19.3138075068151 6.26145040667879  C 18.8164023416612 4.98603884865986  18.0743506660354 3.85044382975164  17.1082535263872 2.88620589138683  C 16.1421793048665 1.92196793068356  15.0044217211743 1.18134958069052  13.7265813142968 0.68486698138827  C 12.4032305870621 0.170704330848738  10.9914716394356 -0.0557513909432214  9.53035257368319 0.0115838026985533  C 6.95897458843669 0.130220884097585  4.56017368280269 1.21995751409255  2.77583062137294 3.08006899808881  C 0.985804513418526 4.94615007360399  0 7.39706827781431  0 9.9813760276544  C 0 11.1330958060334  0.194942665198387 12.2621951407478  0.579442884725461 13.3373165762453  C 0.947627210466517 14.3667626193559  1.48094105254044 15.3242761948845  2.1652455154457 16.1842635453667  C 2.16758289585965 16.1871911547116  2.1696223853805 16.1903017605829  2.17136396162733 16.1936182152079  C 2.44651109764128 16.7245002969135  1.97064655501402 18.1226659114056  1.74029934455349 18.7994027697766  C 1.66635082868344 19.0166639436879  1.60248516978123 19.2043058609856  1.56201630028889 19.3504350877638  L 1.55509578679426 19.3754341958711  C 1.55436443135755 19.3780738161773  1.5538358412359 19.3807652649601  1.55351461505771 19.3834851271544  L 1.55042102596636 19.4092390065791  C 1.52044747259057 19.6584066256219  1.67017775308672 19.8804708998888  1.92298219926129 19.9618037641054  C 2.00504281457928 19.988198064357  2.09698004610031 20  2.19524198694883 20  C 2.56580952935838 19.9999771254342  3.0257248234747 19.8320966214765  3.37931191354912 19.6462387192645  C 3.91377152770262 19.3652790279192  4.37279312675873 18.9684497425592  4.70167727321436 18.5078990651993  C 4.7182948028408 18.4843865433837  4.75036182999712 18.4778170827805  4.77491539428075 18.4928950254218  C 6.3449062852537 19.455074498588  8.14357156482223 19.9619867159548  9.99964035234463 19.9619867382933  C 12.5888695668593 19.9619867382933  15.0444781315179 18.9780559879474  16.9140670698662 17.1914322632997  C 18.7777208846703 15.4105036577199  19.8695556888565 13.0162622610904  19.9883957804084 10.4497489353165  Z M 19.1891926962292 10.4128106441714  C 18.9619161567327 15.3197246700757  14.9253859629467 19.1634335689545  9.99957159796275 19.1634335912929  C 8.18055730420197 19.1634335912929  6.42187968059509 18.634541373427  4.91376079525815 17.6339597932739  C 4.79730939677645 17.5568647058542  4.65391028324969 17.5317626366523  4.51812364157379 17.5647033594899  C 4.38254654185046 17.5980125074432  4.26704492484301 17.6862771571726  4.19945983846872 17.808221586258  C 3.77799684245121 18.570614110335  3.0384429517496 18.9727725440485  2.56608450212414 19.1270670972773  C 2.52325531170958 19.1410647678521  2.48296976485484 19.0998722765767  2.49747530563111 19.0572846154953  L 2.4978190551598 19.0562324971611  C 2.83105713104208 18.077127744075  3.33462657863224 16.5974920626485  2.85030620940929 15.7693196590347  C 2.83796685038595 15.7482253856371  2.82408834616028 15.7280664108014  2.80878321796552 15.7090061752461  C 1.49464454838476 14.0676654077959  0.800028069619502 12.0870870781831  0.800028069619502 9.98135315308859  C 0.800028069619502 5.06492438005934  4.65107971049962 1.03604372658875  9.56731537255467 0.809222056420905  C 12.2352366181491 0.686056324778847  14.7125233140983 1.62426593360635  16.5425599961418 3.45082418244145  C 18.3725737600578 5.27735955671073  19.3124784120979 7.74984608625128  19.1891926962292 10.4128106441714  Z " fill-rule="nonzero" fill="#1abc9c" stroke="none" transform="matrix(1 0 0 1 710 583 )" />
  </g>
</svg>