<?xml version="1.0" encoding="utf-8"?>
<svg version="1.1" xmlns:xlink="http://www.w3.org/1999/xlink" width="14px" height="16px" xmlns="http://www.w3.org/2000/svg">
  <g transform="matrix(1 0 0 1 -952 -543 )">
    <path d="M 2.60934890625 0.33388982421875  L 2.60934890625 2.23706177734375  L 0.3722871484375 2.23706177734375  L 0.3722871484375 0.33388982421875  C 0.3722871484375 0.1446855859375  0.52810240234375 0  0.706176953125 0  L 2.2754591015625 0  C 2.46466333984375 0  2.60934892578125 0.15581525390625  2.60934890625 0.33388982421875  Z M 13.7056204882812 0.32276015625  L 13.7056204882812 2.23706177734375  L 11.4685587109375 2.23706177734375  L 11.4685587109375 0.33388982421875  C 11.4685587109375 0.1446855859375  11.6243739648438 0  11.802448515625 0  L 13.3828603320312 0  C 13.5609349023438 0  13.7056204882812 0.1446855859375  13.7056204882812 0.32276015625  Z M 3.63327767578125 11.0851418945312  L 3.63327767578125 8.84808013671875  L 5.870339453125 8.84808013671875  L 5.870339453125 11.0851418945312  L 3.63327767578125 11.0851418945312  Z M 8.062882578125 11.0851418945312  L 8.062882578125 8.84808013671875  L 10.2999443554687 8.84808013671875  L 10.2999443554687 11.0851418945312  L 8.062882578125 11.0851418945312  Z M 3.63327767578125 15.5370061132812  L 3.63327767578125 13.2999443554687  L 5.870339453125 13.2999443554687  L 5.870339453125 15.5370061132812  L 3.63327767578125 15.5370061132812  Z M 8.062882578125 15.5370061132812  L 8.062882578125 13.2999443554687  L 10.2999443554687 13.2999443554687  L 10.2999443554687 15.5370061132812  L 8.062882578125 15.5370061132812  Z " fill-rule="nonzero" fill="#1abc9c" stroke="none" transform="matrix(1 0 0 1 952 543 )" />
  </g>
</svg>