<?xml version="1.0" encoding="utf-8"?>
<svg version="1.1" xmlns:xlink="http://www.w3.org/1999/xlink" width="21px" height="15px" xmlns="http://www.w3.org/2000/svg">
  <g transform="matrix(1 0 0 1 -746 -586 )">
    <path d="M 20 0.815755046931408  C 20.0058517689531 0.424043303866787  19.6883066600321 0.106498194945848  19.2965949169675 0.106498194945848  L 0.70925685198556 0.106498194945848  C 0.317545108920939 0.106498194945848  0 0.424043303866787  0 0.815755046931408  L 0 14.1842449530686  C 0 14.5759566961332  0.317545108920939 14.8935018050542  0.70925685198556 14.8935018050542  L 19.2965949169675 14.8935018050542  C 19.6883066600321 14.8935018050542  20.0058517689531 14.5759566961332  20 14.1842449530686  L 20 0.815755046931408  Z M 18.3698860649819 2.09321880144404  L 18.3696189169675 10.7074170974729  L 16.4670474368231 10.7074170974729  L 14.1963569386282 7.19479249097473  C 14.0533892303012 6.97358103955817  13.8079781471318 6.83998508229767  13.54458818555 6.83998508229767  C 13.2976090712796 6.83998508229767  13.0653779226652 6.95754598132303  12.91916033213 7.15659145126354  L 10.3108048086643 10.7074170974729  L 5.7769037400722 3.91324401444043  C 5.63296569344122 3.69740220452356  5.39069165785357 3.56776281876025  5.13125795114579 3.56776281876025  C 4.88333518983123 3.56776281876025  4.65033443889068 3.68621876036067  4.50424850541516 3.88653000722022  L 1.62554724909747 7.83913429602888  L 1.62554724909747 2.09321880144404  C 1.62554717964164 1.80908967836161  1.85566273251323 1.57897412549002  2.13952465256583 1.57897412549002  L 17.8556414584838 1.57897419494585  C 18.1397705815662 1.57897412549002  18.3698861344378 1.80908967836161  18.3698861344378 2.09295159841421  Z " fill-rule="nonzero" fill="#1abc9c" stroke="none" transform="matrix(1 0 0 1 746 586 )" />
  </g>
</svg>