<?xml version="1.0" encoding="utf-8"?>
<svg version="1.1" xmlns:xlink="http://www.w3.org/1999/xlink" width="20px" height="20px" xmlns="http://www.w3.org/2000/svg">
  <g transform="matrix(1 0 0 1 -846 -584 )">
    <path d="M 8.88625 17.00625  C 8.8875 17.005  11.21625 17.21125  13.2675 15.7125  L 16.51875 18.96375  C 16.51875 18.96375  17.87875 19.885  18.82375 18.755  C 18.82375 18.755  19.885 17.81125  18.9625 16.56625  L 15.71125 13.22375  C 15.71125 13.22375  18.8225 9.235  15.4125 3.9325  L 13.10625 4.855  C 13.10625 4.855  14.79 6.58375  14.65 8.95875  C 14.65 8.95875  14.765 14.1675  8.86375 14.7225  C 8.86375 14.7225  3.23875 14.63  3.03 8.72875  C 3.03 8.72875  3.1225 3.3125  8.7925 3.0575  L 9.11625 0.706250000000001  C 9.11625 0.706250000000001  1.23125 0.337500000000001  0.702499999999998 8.91375  C 0.702499999999998 8.91375  0.587499999999998 16.36  8.88625 17.00625  Z " fill-rule="nonzero" fill="#1abc9c" stroke="none" transform="matrix(1 0 0 1 846 584 )" />
  </g>
</svg>