<?xml version="1.0" encoding="utf-8"?>
<svg version="1.1" xmlns:xlink="http://www.w3.org/1999/xlink" width="18px" height="18px" xmlns="http://www.w3.org/2000/svg">
  <g transform="matrix(1 0 0 1 -882 -585 )">
    <path d="M 8.99450373046875 17.7407337890625  C 4.164878203125 17.7407337890625  0.24967271484375 13.8255283007813  0.24967271484375 8.9959027734375  C 0.24967271484375 4.16629724609375  4.164878203125 0.251071777343751  8.9945037109375 0.251071777343751  C 13.8243091015625 0.251071777343751  17.7393347070313 4.166277265625  17.7393347070313 8.9959027734375  C 17.7393347070313 13.82552828125  13.8243091210938 17.7407337890625  8.99450373046875 17.7407337890625  Z M 8.99450373046875 16.9803093554688  C 13.4041939648437 16.9803093554688  16.9789102929687 13.4055930078125  16.9789102929687 8.9959027734375  C 16.9789102929687 4.5862325390625  13.4041939453125 1.01149619140625  8.9945037109375 1.01149619140625  C 4.5848134765625 1.01149619140625  1.0100971484375 4.5862325390625  1.0100971484375 8.9959027734375  C 1.0100971484375 13.4055730078125  4.58481349609375 16.9803093554688  8.99450373046875 16.9803093554688  Z " fill-rule="nonzero" fill="#1abc9c" stroke="none" transform="matrix(1 0 0 1 882 585 )" />
  </g>
</svg>