<?xml version="1.0" encoding="utf-8"?>
<svg version="1.1" xmlns:xlink="http://www.w3.org/1999/xlink" width="20px" height="20px" xmlns="http://www.w3.org/2000/svg">
  <g transform="matrix(1 0 0 1 -914 -583 )">
    <path d="M 17.38037615285 19.3305790994606  C 17.38037615285 18.9601662011622  17.0701318629764 18.6611581989213  16.6884644272325 18.6611581989213  L 0.689679752309124 18.6611581989213  C 0.308012316565243 18.6611581989213  0 18.9601662011622  0 19.3305790994606  C 0 19.7009919977591  0.308012316565243 20  0.689679752309124 20  L 16.6884644272325 20  C 17.0701318629764 20  17.38037615285 19.7009919977591  17.38037615285 19.3305790994606  Z M 2.13376648287209 3.73976632589919  C 2.04002360391748 4.09679080618687  2.26098896145339 4.46274089848177  2.62926455734657 4.55645982455727  C 2.68729586336601 4.57207964556983  2.74532716938556 4.57877385457518  2.80335847540512 4.57877385457518  C 3.10913881866185 4.57877385457518  3.39036745552583 4.38017898741523  3.47071849462975 4.07893958217245  C 3.69391582547405 3.25555187450914  4.0019281420393 3.05026279834372  4.39029149770846 2.79142005013514  C 4.88132562556605 2.4656352118727  5.49511828538803 2.06175126854721  5.68706798991416 0.765306124502684  C 5.74063534931682 0.399356032207906  5.47949447222894 0.060182775934648  5.10229098310196 0.00662910389148951  C 4.72508749397498 -0.0446931651499253  4.37466768454938 0.207455374053304  4.32110032514673 0.573405466348082  C 4.21396560634141 1.28745442692345  3.99969616873091 1.4302642190385  3.61133281306174 1.68687556424522  C 3.13592249836324 2.0015033874987  2.4864182656062 2.42993276384385  2.13376648287209 3.73976632589919  Z M 18.5276104333899 8.96348075310788  C 18.6459050187374 9.63513305664904  18.7485757909259 10.5567024963916  18.230757983367 11.2506688299507  C 17.9673851329706 11.6032305042347  17.541078231058 11.8375278194235  16.987548850564 11.9624863875242  C 17.2330659144928 11.2171977849237  17.3535924731486 10.4205869132819  17.3535924731486 9.5949678026167  L 17.3535924731486 8.96348075310788  L 18.5276104333899 8.96348075310788  Z M 15.9720009952221 8  L 15.9720009952221 9.59719920561845  L 15.9720009952221 10  L 1.47756633018965 10  L 1.47756633018965 8  L 15.9720009952221 8  Z M 19.3534405575142 12.0138086565656  C 20.5252265444469 10.4317439282908  19.7529637797255 8.1713326874697  19.7194841800988 8.07538235839234  L 19.5610140751994 7.63133316103462  L 17.3535924731486 7.63133316103462  L 17.3535924731486 6.84811070740353  C 17.3535924731486 6.47769780910515  17.0701318629764 6.29472276295776  16.6884644272325 6.29472276295776  L 0.689679752309124 6.29472276295776  C 0.308012316565243 6.29472276295776  0.0959748522631271 6.47769780910515  0.0959748522631271 6.84811070740353  L 0.0959748522631271 9.59943060862031  C 0.0959748522631271 13.8814929690703  3.59570899990254 17.3267792038462  8.01724812392929 17.3267792038462  L 9.35866408230384 17.3267792038462  C 12.3606681821604 17.3267792038462  14.9787728729648 15.7402516695679  16.353668430966 13.3705016816586  C 17.7218680690418 13.2946339795975  18.7329519777668 12.8505847822397  19.3534405575142 12.0138086565656  Z M 11.7892830151989 3.73976632589919  C 11.6933081629359 4.09679080618687  11.9142735204718 4.46274089848177  12.282549116365 4.55645982455727  C 12.3405804223844 4.57207964556983  12.4008437017125 4.57877385457518  12.4566430344235 4.57877385457518  C 12.7646553509888 4.57877385457518  13.0436520145442 4.38017898741523  13.1240030536481 4.07893958217245  C 13.3472003844924 3.25555187450914  13.6552127010577 3.05026279834372  14.0458080300354 2.79142005013514  C 14.5368421578929 2.4656352118727  15.1484028444064 2.06175126854721  15.3425845222411 0.765306124502684  C 15.3961518816437 0.399356032207906  15.1350110045557 0.060182775934648  14.7578075154289 0.00662910389148951  C 14.3783720529934 -0.0446931651499253  14.0324161901847 0.207455374053304  13.9766168574736 0.573405466348082  C 13.8694821386683 1.28745442692345  13.6552127010577 1.4302642190385  13.2668493453885 1.68687556424522  C 12.79143903069 2.0015033874987  12.141934797933 2.43216416684571  11.7892830151989 3.73976632589919  Z M 6.9548288291102 3.73976632589919  C 6.86108595015546 4.09679080618687  7.08205130769137 4.46274089848177  7.45032690358456 4.55645982455727  C 7.50835820960411 4.57207964556983  7.56862148893218 4.57877385457518  7.62442082164322 4.57877385457518  C 7.93020116489996 4.57877385457518  8.21142980176381 4.38017898741523  8.29178084086785 4.07893958217245  C 8.51497817171216 3.25555187450914  8.8229904882774 3.05026279834372  9.21135384394657 2.79142005013514  C 9.70238797180415 2.4656352118727  10.3161806316261 2.06175126854721  10.5081303361523 0.765306124502684  C 10.5639296688634 0.399356032207906  10.300556818467 0.060182775934648  9.92335332934006 0.00662910389148951  C 9.54614984021308 -0.0446931651499253  9.19573003078748 0.207455374053304  9.14216267138483 0.573405466348082  C 9.03502795257952 1.28745442692345  8.82075851496901 1.4302642190385  8.43239515929972 1.68687556424522  C 7.95698484460134 2.0015033874987  7.30748061184418 2.43216416684571  6.9548288291102 3.73976632589919  Z " fill-rule="nonzero" fill="#1abc9c" stroke="none" transform="matrix(1 0 0 1 914 583 )" />
  </g>
</svg>