<?xml version="1.0" encoding="utf-8"?>
<svg version="1.1" xmlns:xlink="http://www.w3.org/1999/xlink" width="20px" height="18px" xmlns="http://www.w3.org/2000/svg">
  <g transform="matrix(1 0 0 1 -1017 -585 )">
    <path d="M 20 16.8760486039167  C 19.9974838610516 17.4970807539719  19.6237467871262 18  19.1637521541398 18  L 0.833754596346159 18  C 0.372501893885478 18  0 17.4970807539719  0 16.8760486039167  L 0 1.12562674630564  C 0 0.502895296081434  0.372501871532605 0  0.833754596346159 0  C 1.29500732115983 0  1.66750919269244 0.502895319470084  2 1.12562674630564  L 2 15.7504218342225  L 19.1662454036537 15.7504218342225  C 19.6262400589931 15.7504218342225  20 16.2550164538615  20 16.8760486039167  Z M 18.9149753197411 4.7320553657226  C 18.8712403837314 4.79277521637379  18.8249892864203 4.84004431857587  18.7762449619479 4.8856140972203  L 14.3024939398853 10.9238522140424  C 13.9837457812875 11.3525051313495  13.466246094025 11.3525051313495  13.1474979354273 10.9238522140424  C 13.1087494984456 10.8715331112267  13.0874996316371 10.8023407096774  13.0587471044991 10.7415969324682  L 9.16498734535602 5.48469904475875  L 5.13750659452924 10.9238522140424  C 4.81875843593149 11.3525051313495  4.30125874866901 11.3525051313495  3.98251059007114 10.9238522140424  C 3.66502050094758 10.493523946513  3.66502050094758 9.79485079395693  3.98251059007114 9.36619787664988  L 8.51250859693562 3.25031878071542  C 8.53501653321828 3.2131975796339  8.5437543735877 3.1710024279921  8.56749751226322 3.13725587730193  C 8.89374830883765 2.69677970865197  9.42373717781082 2.69677970865197  9.74875279434525 3.13725587730193  C 9.75874870418888 3.15245377903605  9.76250002317715 3.17270170477245  9.77249593302078 3.18787570333722  L 13.7499971346296 8.5561611442378  L 17.6787311446846 3.25031878071542  C 17.7012390809672 3.2131975796339  17.7099769213366 3.1710024279921  17.7337200600122 3.13725587730193  C 18.0599708565865 2.69677970865197  18.5899597255597 2.69677970865197  18.9149753197411 3.13725587730193  C 19.2399909139228 3.57773204595182  19.2412261163157 4.29327847385306  18.9149753197411 4.7320553657226  Z " fill-rule="nonzero" fill="#1abc9c" stroke="none" transform="matrix(1 0 0 1 1017 585 )" />
  </g>
</svg>