<?xml version="1.0" encoding="utf-8"?>
<svg version="1.1" xmlns:xlink="http://www.w3.org/1999/xlink" width="16px" height="12px" xmlns="http://www.w3.org/2000/svg">
  <g transform="matrix(1 0 0 1 -616 -290 )">
    <path d="M 15.897958587204 6.92268147580135  C 15.9452054277108 7.26510245878877  15.9665743306788 7.61109135939921  16 7.95549451884386  C 15.974710197405 9.2365751631551  15.6690760714704 10.439062510937  15.0943702086241 11.5748496209329  C 14.9505712147992 11.8590937249004  14.7711900568581 12.116082902581  14.415172370715 11.9449219654987  C 14.0546456500005 11.7715806343135  14.1394351044372 11.4835703950772  14.2916640324604 11.1908029323435  C 16.4657048532121 7.00930258698255  14.0242586778903 1.86674398633102  9.16567590493497 0.972782404117842  C 5.16008484586122 0.235809197317727  1.27908037243961 3.21234447432525  0.891009331844648 7.33051428187754  C 0.887872612142939 7.36331930224479  0.885520072366598 7.39642164908061  0.885324027385256 7.4294248870936  C 0.883363577571718 7.74399629085684  0.794359156035938 8.00633734497194  0.426676793501961 7.99563359210287  C 0.014002107746739 7.98364142453662  -0.034322980157557 7.6733317001564  0.01645267001381 7.35757099051882  C 0.11300482333179 6.75707063279934  0.181424521825121 6.14279414870209  0.362766129579851 5.56697188787519  C 1.4766937136468 2.02898512935572  4.81171291399103 -0.250517796464995  8.44619082335702 0.022031466404874  C 12.4479590052943 0.322132982030326  15.3688331825231 3.09331477806827  15.897958587204 6.92268147580135  Z " fill-rule="nonzero" fill="#999999" stroke="none" transform="matrix(1 0 0 1 616 290 )" />
  </g>
</svg>