<?xml version="1.0" encoding="utf-8"?>
<svg version="1.1" xmlns:xlink="http://www.w3.org/1999/xlink" width="6px" height="9px" xmlns="http://www.w3.org/2000/svg">
  <g transform="matrix(1 0 0 1 -621 -293 )">
    <path d="M 2.4963748111216 4.56903196549463  C 2.46554170962926 4.33156281758755  2.49110223614523 4.08697637362048  2.49110223614523 3.75348021537993  C 1.85128672487935 3.75348021537993  1.30007339745585 3.75483589081991  0.748745448837228 3.75302832356658  C 0.383218457538951 3.7516726481266  0.00989722497122337 3.69846238710651  0.00107139294552002 3.24849111397908  C -0.0079836814705341 2.78643173484499  0.366713005438907 2.74305012076492  0.733500829883787 2.74384093143825  C 1.16665432631404 2.74485768801825  1.59992244393954 2.74406687734489  2.19858894615054 2.74406687734489  C 1.6681220550472 2.07007023775711  1.21857772771201 1.52441087315619  0.8027320317477 0.954801242448581  C 0.681118943705249 0.788166136281659  0.568904793664182 0.537931044647886  0.603061909815502 0.353107292994242  C 0.681348186095469 -0.069411552473124  1.21892159129747 -0.12612397504654  1.53802699856438 0.255611634267419  C 2.02138457846555 0.833694236475071  2.47757693511883 1.43380656458272  2.99704019148885 2.08984050459049  C 3.49220375448938 1.46510007265612  3.92593035689532 0.875833148068461  4.41112187591879 0.33119054004755  C 4.55921246003835 0.164894352740608  4.86192703640045 0.018142486360372  5.07088147513892 0.0437873467670658  C 5.45176770658588 0.0903322035404807  5.53223178557346 0.517934831907863  5.251524478678 0.889502875421821  C 4.81023287739283 1.47368601710946  4.35037264249511 2.0440864584904  3.80053476941332 2.7450836339249  C 4.4065370281132 2.7450836339249  4.87384764069491 2.74689120117826  5.34115825327675 2.74440579620491  C 5.67917615774166 2.74259822895157  5.98475626398217 2.83342848343172  5.99942777696006 3.21166193119235  C 6.01513088069407 3.61881645500636  5.70542441142842 3.74704075703993  5.34310681359401 3.75099481040661  C 4.75670477926293 3.75743426874661  4.1700735025415 3.7526894047066  3.55111904879077 3.7526894047066  C 3.55111904879077 4.2249163496407  3.55111904879077 4.63060222506139  3.55111904879077 5.12711835496223  C 4.12720517555945 5.12711835496223  4.69389236432675 5.13028159765554  5.2603503107037 5.12598862542889  C 5.6301182862221 5.12316430159555  6.00481497313154 5.17049996904229  5.99896929217948 5.6245382684897  C 5.99335285361765 6.0619695437971  5.63241071012496 6.13833926025056  5.25610932648358 6.13528899051055  C 4.70478137786496 6.13065709942388  4.15345342924634 6.13404628802391  3.51696193263945 6.13404628802391  C 3.51696193263945 6.90192345183185  3.51386716037069 7.62867846062637  3.51833738698103 8.35554644237427  C 3.520744432079 8.72044908164155  3.4144905841851 9.00457605927535  2.98603655675554 8.99994416818868  C 2.58726941886695 8.995651195962  2.48846594865704 8.72485502682155  2.49052913016954 8.38299887003433  C 2.49477011438967 7.65466223989311  2.49178996331615 6.92621263679856  2.49178996331615 6.13370736916389  C 1.8502551341231 6.13370736916389  1.28242173340444 6.13382034211723  0.714702953880887 6.13370736916389  C 0.338286949044402 6.13359439621056  -0.0110784537392923 6.05055927551042  0.000269044579487762 5.59968421875633  C 0.0108141945322356 5.17467996831561  0.358231036998665 5.12564970656887  0.706106364245535 5.12700538200889  C 1.10716592603685 5.12869997630888  1.50994480575533 5.10373295362218  1.90882656483916 5.13254105672222  C 2.34530407592839 5.16394753774896  2.55712404454527 5.03414161436873  2.4963748111216 4.56903196549463  Z " fill-rule="nonzero" fill="#999999" stroke="none" transform="matrix(1 0 0 1 621 293 )" />
  </g>
</svg>