<?xml version="1.0" encoding="utf-8"?>
<svg version="1.1" xmlns:xlink="http://www.w3.org/1999/xlink" width="20px" height="20px" xmlns="http://www.w3.org/2000/svg">
  <g transform="matrix(1 0 0 1 -683 -290 )">
    <path d="M 10.4512616837112 19.3524955248718  C 10.0338652861103 19.7699800765923  9.478887423809 20  8.8886966373097 20  C 8.29834464377116 20  7.74355103416174 19.769887870821  7.32650007378648 19.3521036109202  L 0.647397520719206 12.6728117446661  C 0.229770801627181 12.255304124607  -0.000184119574100804 11.7002640610642  0 11.1099994554836  C 0.000184340798341508 10.520242015437  0.23018533079903 9.9658704606322  0.647650842851814 9.54898528021704  C 0.723511796819931 9.47309576277175  8.27206735622276 1.92370245681028  9.16130318720542 1.03329157521003  C 10.0696078777201 0.126075273777531  11.0409688265868 0.00106042268976125  11.9553304276842 0.00106042268976125  C 12.6665210393937 0.00106042268976125  17.7909117797275 0  17.7909117797275 0  C 18.3807801521482 0  18.9354125547183 0.229697191944069  19.3527398603728 0.646766806429611  C 19.7706659703967 1.06436663226006  20.0005287765049 1.61959112987327  19.9999990865875 2.21006321533517  C 19.9999990865875 2.20976352968253  19.9984330399822 7.05696440790317  19.9984330399822 7.9026299890686  C 19.9976500279323 8.84426398135224  19.8744393054537 9.92910142123696  18.9667333968026 10.8389918252048  C 18.5093338200945 11.2945133414193  10.5317977093374 19.2719493569049  10.4512616837112 19.3524955248718  Z M 18.5868759589081 1.4147447337061  C 18.3741935741537 1.20224487554597  18.0915459164686 1.08520628549778  17.7910499636202 1.08520628549778  C 17.7911420787133 1.08520628549778  12.6666131544868 1.08626670818757  11.9553764964835 1.08626670818757  C 11.1243145538506 1.08626670818757  10.5261093041383 1.20319004665348  9.92758164034746 1.80099288517243  C 9.0385991314974 2.69110408112002  1.489813273109 10.2407970727342  1.41365292820898 10.3169401616826  C 1.20115477364072 10.5291172883792  1.08423126073046 10.8108213963823  1.08416216878413 11.1103221869471  C 1.08407005369099 11.4103531888568  1.20106263604202 11.692564462394  1.41358383626265 11.9050643205541  L 8.09307791786041 18.5847019866104  C 8.30564516437478 18.7976859644936  8.58810859187356 18.9147937145022  8.8886966373097 18.9147937145022  C 9.18946893543779 18.9147937145022  9.47230082330902 18.7975706903836  9.68512141446144 18.5847250324213  C 9.76568048574012 18.5041788644543  17.7439765628948 10.5259821119317  18.2009616104309 10.0709216471016  C 18.7917972475932 9.47860535610192  18.9136491767995 8.77538246297274  18.9143861200502 7.90216889262879  C 18.9143861200502 7.05689522541505  18.9159521666554 2.20941770735266  18.9159521666554 2.20941770735266  C 18.9162515575873 1.90917922556167  18.7993510903294 1.62708322613446  18.5868759589081 1.4147447337061  Z M 16.1267842955374 7.60243757637176  C 15.6671277302561 8.06157838875677  15.0573614174541 8.31407471358634  14.4091349490033 8.31407471358634  C 13.7608624117532 8.31407471358634  13.1510730532987 8.06160145709535  12.6921074299852 7.60317526759795  C 12.2333030137112 7.14391920363067  11.9810089558744 6.53387536750211  11.981262278007 5.88501076150385  C 11.9815616689388 5.23610006388373  12.2344775542917 4.62587179368478  12.693443177605 4.16677711797698  C 13.1515336737754 3.70821263108635  13.7611848258319 3.45557798633592  14.4100100986518 3.45557798633592  C 15.0586971875794 3.45557798633592  15.6685095691808 3.70814347112591  16.1270836864692 4.16670795801653  C 17.0731576581817 5.11267586935833  17.0730655205829 6.65395692822642  16.1267842955374 7.60243757637176  Z M 15.3609203715671 4.93450149627799  C 15.1070372214727 4.68059897148413  14.7693477686487 4.54078427183373  14.4100100761464 4.54078427183373  C 14.0508105675364 4.54078427183373  13.713351413698 4.68055283480695  13.4599058609335 4.93427097058577  C 13.205608181667 5.18861150095313  13.0655625200716 5.52637980423185  13.0654013130322 5.88544878960505  C 13.0652631291397 6.24428724928603  13.2047791008178 6.58166363861307  13.4582937680343 6.8354048202028  C 13.7121769181288 7.08898461353303  14.0499815091927 7.22886845061623  14.4091349490033 7.22886845061623  C 14.7682423425202 7.22886845061623  15.1060929798779 7.08898461353303  15.3603446128505 6.83498986044017  C 15.8835640582429 6.31051768841343  15.8841397944541 5.45763660577322  15.3609203715671 4.93450149627799  Z " fill-rule="nonzero" fill="#999999" stroke="none" transform="matrix(1 0 0 1 683 290 )" />
  </g>
</svg>