<?xml version="1.0" encoding="utf-8"?>
<svg version="1.1" xmlns:xlink="http://www.w3.org/1999/xlink" width="17px" height="20px" xmlns="http://www.w3.org/2000/svg">
  <g transform="matrix(1 0 0 1 -784 -290 )">
    <path d="M 0.748555586030648 5.2029446986196  C 0.680624488665103 5.23839577312727  0.612693391299558 5.27384686905616  0.510796734989412 5.27384686905616  C 0.340969001837379 5.27384686905616  0.137175709740859 5.16749362411198  0.0692446123753143 4.99023818730998  C -0.0666175823556614 4.74208060149265  0.0352790739543707 4.42304852149237  0.307003442892892 4.28121648294441  L 8.11907961940472 0.0625373741012537  C 8.35683844992229 -0.0792669667718825  8.66252839832885 0.0270862995935772  8.79839059306005 0.310694959918578  C 8.93425278779102 0.59430362024355  8.83235613148099 0.87791232341098  8.56063176254247 1.019744361959  L 0.748555586030648 5.2029446986196  Z M 8.79839059306005 19.7456445158112  C 8.69649395727345 19.922899931192  8.52666620359787 19.9938021016286  8.35683847044584 19.9938021230498  C 8.25494183465946 19.9938021230498  8.18701073729392 19.9583510485421  8.08511408098377 19.9228722549384  L 0.239072345527347 14.9242969475467  C 0.0013135150098833 14.7824926066736  -0.0666175823556614 14.4279817544909  0.0692446123753143 14.1798241686735  C 0.205106807106404 13.9316665828562  0.544762293934014 13.8607367147448  0.782521124451591 14.0025687318715  L 8.6285628599079 19.0011440392632  C 8.86632169042559 19.1429483801363  8.93425278779102 19.4974869299939  8.79839059306005 19.7456445158112  Z M 16.9291326102521 14.070368934092  C 17.0322498881235 14.2478182331969  17.0131708059495 14.4405004180548  16.9337497877077 14.6005842389687  C 16.886144951637 14.696579131883  16.8242108960279 14.7443273099769  16.7464085754109 14.8240645460101  L 8.82805737793365 19.922733766564  C 8.59632210568486 20.0816820256504  8.26308823266584 19.9828621198475  8.11557691536632 19.7407700035093  C 7.96806559806669 19.4986778657498  8.06651262441039 19.145967276749  8.29824789665918 18.9870466939162  L 16.2166786847208 13.8883774733624  C 16.4483343458617 13.7294569119509  16.7815682188807 13.8283044940074  16.9291326102521 14.070368934092  Z " fill-rule="nonzero" fill="#999999" stroke="none" transform="matrix(1 0 0 1 784 290 )" />
  </g>
</svg>