<?xml version="1.0" encoding="utf-8"?>
<svg version="1.1" xmlns:xlink="http://www.w3.org/1999/xlink" width="17px" height="16px" xmlns="http://www.w3.org/2000/svg">
  <g transform="matrix(1 0 0 1 -784 -294 )">
    <path d="M 9 15.4509335798972  C 9.0601269871878 15.7437556630609  8.82436161028534 16  8.55491545362474 16  C 8.28546929696404 16  8.04970392006169 15.7437556630609  8 15.4509049796338  L 8 5.31095009914839  C 8.04970389971027 5.01809941572125  8.2854692766125 4.76185507878216  8.55491545362474 4.76185505666285  C 8.82436161028534 4.76185505666285  9.0601269871878 5.01809939360197  9 5.31095009914839  L 9 15.4509335798972  Z M 1.01042308747753 10.1795927000648  C 1.01042308747753 10.4724433834919  0.774657710575184 10.728687720431  0.505211533562942 10.728687720431  C 0.235765376902236 10.728687720431  0 10.4724433834919  0 10.1795927000648  L 0 0.62533916431434  C 0 0.332488480887207  0.235765376902236 0.0762441439481449  0.505211533562942 0.0762441439481449  C 0.774657690223648 0.0762441439481449  1.01042306712588 0.332488480887207  1.01042308747753 0.62533916431434  L 1.01042308747753 10.1795927000648  Z M 17 10.1033485561166  C 17 10.3961992395438  16.7642346230978 10.6524435764828  16.4948147809772 10.6524435764828  C 16.2253686243165 10.6524435764828  15.9895769328741 10.3961992395438  15.9895769328741 10.1033485561166  L 15.9895769328741 0.549095042485504  C 15.9895769328741 0.256244359058371  16.2253686243165 0  16.4948147809772 0  C 16.7642346230978 0  17 0.256244336939062  17 0.549095042485504  L 17 10.1033485561166  Z M 7.07296159199097 7.61714922007741  C 6.97191929341909 7.80018088615969  6.80351543533038 7.87339355701647  6.63511157724167 7.87339355701647  C 6.53406927866979 7.87339355701647  6.46670773950461 7.83678723264774  6.36566542058108 7.80015228589625  L 2.59341924768319 5.42074049411048  C 2.35765387078095 5.27431515239692  2.2566115518573 4.94485814460106  2.42501538959448 4.65200746117392  C 2.55973846792483 4.3957631242348  2.86286538399224 4.28594410688999  3.13231156100449 4.46900437323578  L 6.90455773390238 6.84841618714083  C 7.14032311080473 6.99484152885441  7.24136542972826 7.32429853665028  7.07296159199097 7.61714922007741  Z " fill-rule="nonzero" fill="#999999" stroke="none" transform="matrix(1 0 0 1 784 294 )" />
  </g>
</svg>