<?xml version="1.0" encoding="utf-8"?>
<svg version="1.1" xmlns:xlink="http://www.w3.org/1999/xlink" width="18px" height="20px" xmlns="http://www.w3.org/2000/svg">
  <g transform="matrix(1 0 0 1 -884 -290 )">
    <path d="M 8.99992760742185 1.99983228455935  C 11.4850816544645 1.99983228455935  13.4999879311524 3.79050072152484  13.4999879311524 5.99961161930295  L 15.7499336931153 5.99961161930295  C 15.7499336931153 2.68626699138568  12.7279361179271 0  8.99992760742185 0  C 5.27191909691672 0  2.2500422307128 2.68626699138568  2.2500422307128 5.99961161930295  L 4.49993965576181 5.99961161930295  C 4.49993967626954 3.79050072152484  6.51487009065269 1.99983228455935  8.99992760742185 1.99983228455935  Z M 16.4999557475586 7.33330038843613  L 1.50002009423832 7.33330038843613  C 0.671579117945375 7.33330038843613  0 7.93036609138289  0 8.66629976303824  L 0 18.6662882561471  C 0 19.4029342910835  0.671579117945375 19.9999999940303  1.50002009423832 20  L 16.4999557475586 20  C 17.3283002961172 20.0000689393427  18 19.4029342910835  18 18.6662882561471  L 18 8.66629972397573  C 17.9999758417968 7.93036605232038  17.3283002961172 7.33330038843613  16.4999557475586 7.33330038843613  Z M 16.7454911927913 18.6973112053566  C 16.7454911927913 18.8489790178113  16.615195339318 18.973070873243  16.4559446899558 19  L 1.61516311470857 19  C 1.45591250636191 18.9730708927743  1.32561655034965 18.8489790568738  1.32561655034965 18.6973112248879  L 1.32561655034965 8.83786822001827  C 1.32561655034965 8.68620038803229  1.45591250636191 8.56210853260058  1.61516311470857 8.56210853260058  L 16.4559446899558 8.56210853260058  C 16.615195339318 8.56210853260058  16.7454911927913 8.68620038803229  16.7454911927913 8.83786822001827  L 16.7454911927913 18.6973112053566  Z M 8.99992760742185 10.6668213640036  C 7.75697659317804 10.6668213640036  6.74998190698234 11.5618224184239  6.74998190698234 12.6666765977817  C 6.74998190698234 13.4047473788114  7.20558342831849 14.0430161676834  7.87501509118651 14.3889796832051  L 7.87501509118651 16.2918823974808  C 7.87501509118651 16.8665885691843  8.37882611153038 17.3332888424825  9.00004827539057 17.3332888424825  C 9.6210532615166 17.3332888424825  10.1250814595947 16.866588549653  10.1250814595947 16.2918823974808  L 10.1250814595947 14.3889796832051  C 10.7944648675799 14.0430161676834  11.2499939758301 13.4047474178739  11.2499939758301 12.6666765977817  C 11.2499698381349 11.5619373402989  10.2429992896344 10.6669362858786  9.00004827539057 10.6669362858786  Z " fill-rule="nonzero" fill="#999999" stroke="none" transform="matrix(1 0 0 1 884 290 )" />
  </g>
</svg>