<?xml version="1.0" encoding="utf-8"?>
<svg version="1.1" xmlns:xlink="http://www.w3.org/1999/xlink" width="13px" height="9px" xmlns="http://www.w3.org/2000/svg">
  <g transform="matrix(1 0 0 1 -984 -298 )">
    <path d="M 11.6626184538502 0.229425042793339  L 4.76666481191073 7.10907206751073  L 1.33442236414488 3.54528734796339  C 1.02778655096984 3.23953663229001  0.536476348111937 3.24241684302704  0.2298405349369 3.54829558220051  C -0.0766348923194762 3.85420630453366  -0.0766348923194762 4.34710691080112  0.229968839118103 4.6530176331343  L 4.1958968429249 8.77095550271162  C 4.48950890510586 9.06371324147807  4.95425832094365 9.07558612633602  5.26249803884359 8.8079502509039  C 5.29682174112627 8.78330843026413  5.33018310512766 8.75642642552643  5.36123483448516 8.725448123093  L 12.7699269119829 1.33414709372713  C 13.076691029339 1.02823637139398  13.076691029339 0.535335765126492  12.7699269119829 0.229297019293285  C 12.4634514847264 -0.0764536736647872  11.9692221852875 -0.0764536736647872  11.6626184538502 0.229425042793339  Z " fill-rule="nonzero" fill="#999999" stroke="none" transform="matrix(1 0 0 1 984 298 )" />
  </g>
</svg>