<?xml version="1.0" encoding="utf-8"?>
<svg version="1.1" xmlns:xlink="http://www.w3.org/1999/xlink" width="20px" height="20px" xmlns="http://www.w3.org/2000/svg">
  <g transform="matrix(1 0 0 1 -681 -328 )">
    <path d="M 6.92578125 2.736328125  C 7.896484375 2.326171875  8.9296875 2.1171875  9.994140625 2.1171875  C 11.060546875 2.1171875  12.091796875 2.326171875  13.0625 2.736328125  C 14.001953125 3.1328125  14.845703125 3.703125  15.5703125 4.427734375  C 16.294921875 5.15234375  16.86328125 5.99609375  17.26171875 6.935546875  C 17.671875 7.90625  17.880859375 8.939453125  17.880859375 10.00390625  C 17.880859375 11.068359375  17.671875 12.1015625  17.26171875 13.072265625  C 16.865234375 14.01171875  16.294921875 14.85546875  15.5703125 15.580078125  C 14.845703125 16.3046875  14.001953125 16.873046875  13.0625 17.271484375  C 12.091796875 17.681640625  11.05859375 17.890625  9.994140625 17.890625  C 8.9296875 17.890625  7.896484375 17.681640625  6.92578125 17.271484375  C 5.986328125 16.875  5.142578125 16.3046875  4.41796875 15.580078125  C 3.693359375 14.85546875  3.125 14.01171875  2.7265625 13.072265625  C 2.31640625 12.1015625  2.107421875 11.068359375  2.107421875 10.00390625  C 2.107421875 8.939453125  2.31640625 7.90625  2.7265625 6.935546875  C 3.123046875 5.99609375  3.693359375 5.15234375  4.41796875 4.427734375  C 5.142578125 3.703125  5.986328125 3.134765625  6.92578125 2.736328125  Z M 19.990234375 10.00390625  C 19.990234375 4.482421875  15.515625 0.0078125  9.994140625 0.00781250000000039  C 4.474609375 0.0078125  0 4.484375  0 10.00390625  C 0 15.5234375  4.474609375 20  9.994140625 20  C 15.513671875 20  19.990234375 15.525390625  19.990234375 10.00390625  Z " fill-rule="nonzero" fill="#999999" stroke="none" transform="matrix(1 0 0 1 681 328 )" />
  </g>
</svg>