<?xml version="1.0" encoding="utf-8"?>
<svg version="1.1" xmlns:xlink="http://www.w3.org/1999/xlink" width="7px" height="8px" xmlns="http://www.w3.org/2000/svg">
  <g transform="matrix(1 0 0 1 -586 -2322 )">
    <path d="M 589.5 2323  C 590.9 2323  592 2324.32  592 2326  C 592 2327.68  590.9 2329  589.5 2329  C 588.1 2329  587 2327.68  587 2326  C 587 2324.32  588.1 2323  589.5 2323  Z " fill-rule="nonzero" fill="#ffffff" stroke="none" />
    <path d="M 589.5 2323  C 590.9 2323  592 2324.32  592 2326  C 592 2327.68  590.9 2329  589.5 2329  C 588.1 2329  587 2327.68  587 2326  C 587 2324.32  588.1 2323  589.5 2323  Z " stroke-width="2" stroke="#2db7f5" fill="none" />
  </g>
</svg>