<?xml version="1.0" encoding="utf-8"?>
<svg version="1.1" xmlns:xlink="http://www.w3.org/1999/xlink" width="8px" height="8px" xmlns="http://www.w3.org/2000/svg">
  <g transform="matrix(1 0 0 1 -494 -2725 )">
    <path d="M 498 2726  C 499.68 2726  501 2727.32  501 2729  C 501 2730.68  499.68 2732  498 2732  C 496.32 2732  495 2730.68  495 2729  C 495 2727.32  496.32 2726  498 2726  Z " fill-rule="nonzero" fill="#ffffff" stroke="none" />
    <path d="M 498 2726  C 499.68 2726  501 2727.32  501 2729  C 501 2730.68  499.68 2732  498 2732  C 496.32 2732  495 2730.68  495 2729  C 495 2727.32  496.32 2726  498 2726  Z " stroke-width="2" stroke="#2db7f5" fill="none" />
  </g>
</svg>