<?xml version="1.0" encoding="utf-8"?>
<svg version="1.1" xmlns:xlink="http://www.w3.org/1999/xlink" width="30px" height="16px" xmlns="http://www.w3.org/2000/svg">
  <g transform="matrix(1 0 0 1 -653 -499 )">
    <path d="M 8.86666673696482 0  L 6.1111111533487 0  L 0 16  L 2.57777781362461 16  L 4.06666669928143 11.8767507  L 10.8888889325956 11.8767507  L 12.3777778678358 16  L 14.9777778903135 16  L 8.86666673696482 0  Z M 10.1555555941937 9.85994400000004  L 4.80000003768328 9.85994400000004  L 7.44444447786725 2.62184875000003  L 7.533333362863 2.62184875000003  L 10.1555555941937 9.85994400000004  Z M 22.3111113734988 0  L 16 0  L 16 16  L 22.2666669062093 16  C 24.8222224118142 16  26.7555557720327 15.2829131999999  28.0888888982179 13.8487395  C 29.3555556457605 12.45938375  30 10.50980395  30 8  C 30 5.46778715000005  29.3777779041969 3.51820729999997  28.133333315924 2.17366945000003  C 26.800000189739 0.717086850000101  24.8666668295203 0  22.3111113734988 0  Z M 19 13.9159664  L 19 2.08403364999992  L 21.8666666510204 2.08403364999992  C 23.8666666873814 2.08403364999992  25.3333334137685 2.55462184999999  26.2666669293482 3.51820729999997  C 27.1555556801383 4.45938375000003  27.6222222643864 5.93837535  27.6222222643864 8  C 27.6222222643864 10.0168067000001  27.1555556801383 11.4957983500001  26.244444720495 12.45938375  C 25.3111112049155 13.4229692  23.822222220092 13.9159664  21.8222222333142 13.9159664  L 19 13.9159664  Z " fill-rule="nonzero" fill="#999999" stroke="none" transform="matrix(1 0 0 1 653 499 )" />
  </g>
</svg>