<?xml version="1.0" encoding="utf-8"?>
<svg version="1.1" xmlns:xlink="http://www.w3.org/1999/xlink" width="37px" height="50px" xmlns="http://www.w3.org/2000/svg">
  <g transform="matrix(1 0 0 1 -536 -483 )">
    <path d="M 36.9999884535954 21.1553372964591  C 37.006283109678 17.9051434479194  34.4380634279721 15.2752649263376  31.2844407305834 15.2752649263376  L 22.5852260244131 15.2752649263376  C 19.4316033270243 15.2752649263376  16.8696783014011 17.9116050659085  16.8696783014011 21.1424140604808  L 16.8696783014011 24.7673817523908  C 16.8696783014011 25.6397001809253  17.0585179838794 26.4990953734815  17.4236080366709 27.2874127681572  C 17.1718217933664 27.7397260273973  16.8130263966575 28.2114241406048  16.3157485661311 28.4569656241924  L 16.3094539100485 28.4634272421815  C 15.8184707356049 28.7154303437582  15.5478005240525 29.2582062548462  15.6296310531264 29.8203670199019  C 15.717756238283 30.3760661669683  16.1394981958181 30.808994572241  16.67454396284 30.8929956060998  C 16.9955714230533 30.9446885500129  17.3165988832665 30.9705350219696  17.6376263434797 30.9705350219696  C 18.6510659727804 30.9705350219696  19.5889697290897 30.7120703024038  20.4261589880771 30.2080640992505  C 21.1122765010818 30.498836908762  21.8424566066649 30.6409925045232  22.5852260244131 30.6474541225123  L 31.2844407305834 30.6474541225123  C 34.4380634279722 30.6474541225123  36.9999884535954 28.0111139829414  36.9999884535954 24.7803049883691  L 36.9999884535954 21.1553372964591  Z M 34.7779748564332 21.239338330318  L 34.7716802003506 24.6898423365211  C 34.7716802003506 26.7769449470148  33.1161856506236 28.4763504781598  31.0830117359398 28.4763504781598  L 22.7740657068914 28.4763504781598  C 22.163484066878 28.4763504781598  21.5906703633604 28.3277332644094  21.0556245963383 28.0369604548979  C 20.7534811043729 27.8754200051693  20.394685707664 27.9012664771258  20.1177208400291 28.1080382527785  C 19.7526307872375 28.3794262083227  19.3560674540329 28.573274747997  18.9343254964979 28.6831222538124  C 19.2490583006285 28.2695787025072  19.4819605756852 27.8366502972345  19.6519162899157 27.4683380718533  C 19.7715147554854 27.1969501163091  19.7526307872375 26.8803308348411  19.6078536973374 26.6283277332644  C 19.2679422688764 26.0467821142414  19.0916918985633 25.3812354613595  19.0916918985633 24.7027655724994  L 19.0916918985633 21.239338330318  C 19.0916918985633 19.1522357198243  20.7471864482903 17.4528301886793  22.7803603629741 17.4528301886793  L 31.0893063920224 17.4528301886793  C 33.1224803067062 17.4528301886793  34.7779748564332 19.1522357198243  34.7779748564332 21.239338330318  Z M 23.8378625848529 22.9128973895063  C 23.8378625848529 22.0728870509175  23.1769236961787 21.3944171620574  22.3586184054391 21.3944171620574  C 22.1131268182172 21.3944171620574  21.8676352309953 21.4590333419489  21.6536169241864 21.5818040837426  C 21.2381696227341 21.8144223313518  20.9423207868512 22.2408891186354  20.8856688821078 22.7384337037994  L 20.8856688821078 23.1002843111915  C 20.9423207868512 23.6042905143448  21.2381696227341 24.0307573016283  21.6536169241864 24.2569139312485  C 21.8613405749127 24.373223055053  22.1068321621346 24.4443008529336  22.3586184054391 24.4443008529336  C 23.1769236961787 24.4443008529336  23.8378625848529 23.7593693460843  23.8378625848529 22.9128973895063  Z M 28.3951935886643 23.0227448953218  C 28.4014882447469 22.182734556733  27.7405493560726 21.5042646678729  26.9159494092504 21.5042646678729  C 26.0976441185108 21.5042646678729  25.4367052298365 22.182734556733  25.4367052298365 23.0227448953218  C 25.4367052298365 23.8627552339106  26.0976441185108 24.5412251227707  26.9159494092504 24.5412251227707  C 27.73425469999 24.5412251227707  28.3951935886643 23.8562936159215  28.3951935886643 23.0227448953218  Z M 32.9588192485582 23.1132075471698  C 32.9588192485582 22.2731972085811  32.297880359884 21.5947273197209  31.4795750691443 21.5947273197209  C 31.3788605718225 21.5947273197209  31.2781460745007 21.6076505556992  31.1837262332616 21.6270354096666  C 31.0893063920224 21.6464202636341  30.9948865507832 21.6787283535798  30.9067613656266 21.7174980615147  C 30.3717155986045 21.9501163091238  30.0003308897305 22.492892220212  30.0003308897305 23.119669165159  C 30.0003308897305 23.7335228741277  30.3591262864394 24.282760403205  30.9067613656266 24.5218402688034  C 30.9948865507832 24.5606099767382  31.0893063920224 24.592918066684  31.1837262332616 24.6123029206513  C 31.2781460745007 24.6316877746188  31.3788605718225 24.6446110105971  31.4795750691443 24.6446110105971  C 32.297880359884 24.6446110105971  32.9651139046408 23.9596795037477  32.9588192485582 23.1132075471698  Z M 29.5030530592041 34.6471956577928  C 29.4967584031215 33.8782631170846  28.8924714191907 33.2514861721376  28.1371126892772 33.2514861721376  C 27.3880486154463 33.2514861721376  26.7774669754329 33.8782631170846  26.7774669754329 34.6471956577928  L 26.7774669754329 36  L 3 36  L 3 13  L 28.1434073453598 13  C 28.8924714191907 12.2059963814939  29.5030530592041 11.5792194365469  29.5030530592041 10.8102868958387  L 29.5030530592041 6.4745412251228  C 29.5030530592041 2.90772809511503  26.6767524781111 0  23.1958076644265 0  L 6.3072453947776 0  C 2.83259523717556 0  0 2.9012664771259  0 6.4745412251228  L 0 43.5254587748773  C 0 47.0922719048851  2.82630058109297 50  6.3072453947776 50  L 23.1958076644265 50  C 26.6704578220285 50  29.5030530592041 47.0987335228742  29.5030530592041 43.5254587748773  L 29.5030530592041 34.6471956577928  Z M 2.71929142768856 10  L 2.71929142768856 6.4745412251228  C 2.71929142768856 4.44559317653144  4.33072338483733 2.79141897131044  6.3072453947776 3  L 23.1958076644265 3  C 25.1723296743667 2.79141897131044  26.7837616315155 4.44559317653144  26.7837616315155 6.4745412251228  L 26.7837616315155 10  L 2.71929142768856 10  Z M 26.7774669754329 43.5254587748773  C 26.7774669754329 45.5544068234687  25.1723296743667 47.2085810286897  23.1958076644265 47  L 6.3072453947776 47  C 4.33072338483733 47.2085810286897  2.71929142768856 45.5544068234687  2.71929142768856 43.5254587748773  L 2.71929142768856 39  L 26.7774669754329 39  L 26.7774669754329 43.5254587748773  Z M 17.0459286717142 43.4608425949858  C 17.0522233277968 42.1620573791678  16.0198997302484 41.1023520289481  14.7483792015607 41.1023520289481  C 13.476858672873 41.1023520289481  12.4508297314072 42.1555957611787  12.4508297314072 43.4608425949858  C 12.4508297314072 44.766089428793  13.476858672873 45.8193331610236  14.7483792015607 45.8193331610236  C 16.0136050741658 45.8193331610236  17.0459286717142 44.766089428793  17.0459286717142 43.4608425949858  Z " fill-rule="nonzero" fill="#999999" stroke="none" transform="matrix(1 0 0 1 536 483 )" />
  </g>
</svg>