<?xml version="1.0" encoding="utf-8"?>
<svg version="1.1" xmlns:xlink="http://www.w3.org/1999/xlink" width="50px" height="39px" xmlns="http://www.w3.org/2000/svg">
  <g transform="matrix(1 0 0 1 -643 -487 )">
    <path d="M 3.125 6.52772316015626  L 4 6.52772316015626  L 4 32.4722768398437  C 3.125 34.2826763398438  4.52442407226567 35.75  6.2314383789062 35  L 43.7685615722656 35  C 45.4759825195313 35.75  46.875 34.2853478398438  46 32.4722768398437  L 46 6.52772316015626  C 46.875 4.71732376171883  45.4755759277344 3.25  43.7685615722656 4  L 6.2314383789062 4  C 4.52401738281253 3.25  3.125 4.71465205859374  3.125 6.52772316015626  Z M 0 6.52772316015626  C 0 2.92256117968748  2.79535546875002 0  6.2314383789062 0  L 43.7685615722656 0  C 47.2100899902343 0  50 2.93133866796882  50 6.52772316015626  L 50 32.4722768398437  C 50 36.0774388203125  47.2046443847656 39  43.7685615722656 39  L 6.2314383789062 39  C 2.78991000976566 39  0 36.0686611796874  0 32.4722768398437  L 0 6.52772316015626  Z " fill-rule="nonzero" fill="#999999" stroke="none" transform="matrix(1 0 0 1 643 487 )" />
  </g>
</svg>