<?xml version="1.0" encoding="utf-8"?>
<svg version="1.1" xmlns:xlink="http://www.w3.org/1999/xlink" width="49px" height="50px" xmlns="http://www.w3.org/2000/svg">
  <g transform="matrix(1 0 0 1 -876 -482 )">
    <path d="M 24.5568635670671 3.58037218323366  C 11.536203657774 3.58037218323366  0.94023190963272 13.9936220252255  0.94023190963272 26.7901860916168  C 0.94023190963272 39.5884168113119  11.534513979613 50  24.5568635670671 50  C 37.5775234763602 50  48.1734952245016 39.5884168113119  48.1734952245016 26.7901860916168  C 48.1734952245016 13.9936220252255  37.5775234763602 3.58037218323366  24.5568635670671 3.58037218323366  Z M 24.5568635670671 46.9616910272165  C 13.239399244144 46.9616910272165  4.03065326625056 37.913430241017  4.03065326625056 26.7901860916168  C 4.03065326625056 15.6669419422166  13.239399244144 6.61868115601715  24.5568635670671 6.61868115601715  C 35.8743278899902 6.61868115601715  45.0830738678837 15.6686085955204  45.0830738678837 26.7901860916168  C 45.0813841897226 37.9134302410173  35.8743278899902 46.9616910272165  24.5568635670671 46.9616910272165  Z M 3.06246767995088 9.68865654157237  C 3.90223772600837 5.33869141871722  7.84594655397227 2.41038156398296  11.8386560486075 3.15370893746702  C 12.6767364165039 3.30704104141448  13.4860922556619 2.76871202429486  13.6449220028035 1.94371863892582  C 13.8037517499452 1.12039190686052  13.2529166694327 0.325398280959468  12.4148363015363 0.16873287040451  C 6.73413832398067 -0.88792532418947  1.1835455648284 3.12870913791052  0.0278057026487382 9.12366107159227  C -0.132713722653993 9.94698780365757  0.418121357858463 10.7419814295588  1.25789140391595 10.8986468401136  C 1.35420305909759 10.9169800264553  1.45220439244029 10.9253132929741  1.54682636946087 10.9253132929741  C 2.27507765688697 10.9253132929741  2.92222439258107 10.4169840353224  3.06246767995088 9.68865654157237  Z M 48.972712994693 9.12366107159227  C 47.8152834543523 3.12870913791052  42.2545526262335 -0.881258710974233  36.5839927176444 0.170399523708261  C 35.745912349748 0.32706493426322  35.1933875910744 1.12205856016427  35.3539070163771 1.94538529222957  C 35.5127367635188 2.76871202429486  36.3237822808378 3.30870769471823  37.1618626487343 3.15537559077077  C 41.1545721433695 2.41204821728694  45.0982809713334 5.34035807202097  45.9363613392298 9.69198984817988  C 46.0782943047606 10.4186506886262  46.7254410404548 10.9269799462778  47.4536923278809 10.9269799462778  C 47.5500039830625 10.9269799462778  47.6463156382442 10.9186466797591  47.7443169715869 10.9003134934176  C 48.5807076613221 10.7419814295588  49.1315427418347 9.94698780365757  48.972712994693 9.12366107159227  Z M 36.3305409934822 26.2735235674462  L 36.3305409934822 26  L 25 26  L 25 14.5569508419017  C 25.5605323947494 13.7186242301026  24.8694540268672 13.036963028858  24.0161665555211 13.036963028858  C 23.1628790841749 13.036963028858  22.4701110381316 13.7169575767986  23 14.5569508419017  L 23 27.7918447271861  C 22.4701110381316 28.6318379922891  23.1611894060139 29.3101658869259  24.0161665555211 29  L 36.3305409934822 29  C 37.1838284648282 29.3101658869259  37.8765965108717 28.6318379922891  37.8765965108717 27.7918447271861  C 37.8765965108717 26.9535181153868  37.1855181429893 26.2735235674462  36.3305409934822 26.2735235674462  Z " fill-rule="nonzero" fill="#8a8a8a" stroke="none" transform="matrix(1 0 0 1 876 482 )" />
  </g>
</svg>