<?xml version="1.0" encoding="utf-8"?>
<svg version="1.1" xmlns:xlink="http://www.w3.org/1999/xlink" width="28px" height="27px" xmlns="http://www.w3.org/2000/svg">
  <g transform="matrix(1 0 0 1 -772 -494 )">
    <path d="M 27.8794725368354 10.1288905966954  C 27.5562903711453 9.1195586540045  26.6487240154401 8.4125816544986  25.4563441529852 8.23917220178955  L 19.764501170945 7.407696108031  C 19.5785607468494 7.3750892023934  19.1712626750208 7.07866278750612  19.0827196159275 6.91266399516932  L 16.5371066669985 1.73705879123897  C 16.0073240300909 0.649173848602961  15.0599132977939 0  14.0003480239788 0  C 12.9407827501637 0  11.9918963002151 0.649173848602961  11.4665408162622 1.73113026294115  L 8.9209278673331 6.90821759894604  C 8.83238480823998 7.07569852335727  8.42361101875981 7.37360707031898  8.2391463123156 7.40621397595657  L 2.5473033302754 8.23769006971513  C 1.3549234678206 8.40961739034963  0.44883282976702 9.11659438985565  0.12860209937998 10.1199978042488  C -0.203434372219518 11.1322940110886  0.116796358167523 12.2409288027666  0.981566901977686 13.0768512927486  L 5.10029486746223 17.1112147993633  C 5.2301580207989 17.2460888181369  5.38658409186356 17.7292638744031  5.36002117413556 17.9130482516331  L 4.38309608880748 23.6133282099139  C 4.22371858243973 24.5663391337761  4.43327048896027 25.4437613218422  4.9719074317771 26.0810781138498  C 5.7776492695251 27.047428226382  7.17367816789427 27.289015754515  8.48559116012494 26.6027886040512  L 13.5812442109377 23.9142010210243  C 13.646175787606 23.8801119833123  14.3382873661844 23.875665587089  14.4179761193683 23.9156831530987  L 19.5165806054841 26.6042707361256  C 20.0198003246637 26.8666081133008  20.5303986321011 27  21.026239763023 27  C 21.8098458359976 27  22.5403260735164 26.6635560191031  23.0243614632258 26.0825602459242  C 23.5689012766489 25.4348685293957  23.7784531831695 24.5544820771807  23.6116970885439 23.6059175495416  L 22.6362477208673 17.9130482516331  C 22.6111605207909 17.7262996102542  22.7631594389009 17.2460888181369  22.9018768981468 17.10676840314  L 27.0117505577221 13.0768512927486  C 27.8765211015323 12.2394466706922  28.1982275495709 11.133776143163  27.8794725368354 10.1288905966954  Z M 25.4519170000306 10.9055278036999  C 25.4637227412431 10.9307240489652  25.4268297999541 11.0611516715157  25.2423650935101 11.2404896525224  L 21.1339671515863 15.2674424987649  C 20.4005354787645 15.9773837624197  19.95929590095 17.3276060822309  20.1319548661818 18.3399022890706  L 21.1059285162068 24.0401822473514  C 21.1472486104503 24.2758412471868  21.1103556691615 24.3944118131416  21.0793655984789 24.4314651150025  C 21.0793655984789 24.4314651150025  21.0542783984024 24.5203930394687  20.6942032914235 24.3321622660153  L 15.6103559818232 21.6495032112862  C 15.1764949922666 21.4153263435253  14.6024408258124 21.2863808530494  13.9973965886757 21.2863808530494  C 13.3967795044936 21.2863808530494  12.8256767733426 21.4138442114508  12.3947672190891 21.6450568150629  L 7.30649275653402 24.3321622660153  C 7.11907661478685 24.4285008508536  7.00987350857189 24.4373936433003  6.91542757887248 24.4270187187792  C 6.88738894349306 24.3944118131416  6.85049600220415 24.2728769830378  6.89034037879614 24.0357358511281  L 7.86578974647269 18.3399022890706  C 8.03844871170443 17.3320524784542  7.60163628684473 15.9847944227919  6.87263176697752 15.2733710270627  L 2.74947664853823 11.236043256299  C 2.56943909504877 11.0611516715156  2.5369733067146 10.9322061810397  2.54582761262386 10.9055278036999  C 2.54877904792694 10.8936707471043  2.64027354232327 10.8017785584893  2.90885415490598 10.7617609924795  L 8.59922141929452 9.92880276664656  C 9.60713657530535 9.78207169127741  10.7463906023043 8.95207772959327  11.1979602036795 8.03612010759177  L 13.7465245879116 2.85162211121475  C 13.9693579532961 2.39364330021406  14.0165809181459 2.38919690399078  14.2453171541366 2.85755063951257  L 16.7924058207172 8.03760223966619  C 17.2424997044409 8.9535598616677  18.3847051667429 9.78503595542626  19.3911446051021 9.93176703079541  L 25.0844633047938 10.7617609924795  C 25.3441896114672 10.7988142943404  25.4430626941212 10.8877422188066  25.4519170000306 10.9055278036999  Z " fill-rule="nonzero" fill="#8a8a8a" stroke="none" transform="matrix(1 0 0 1 772 494 )" />
  </g>
</svg>