<?xml version="1.0" encoding="utf-8"?>
<svg version="1.1" xmlns:xlink="http://www.w3.org/1999/xlink" width="39px" height="50px" xmlns="http://www.w3.org/2000/svg">
  <g transform="matrix(1 0 0 1 -584 -98 )">
    <path d="M 19.0282705953084 13.5590744879663  C 18.3769524112179 13.4857895778995  17.9447693021001 13.3086843636601  17.7195470673984 13.0399730267486  C 17.5795440582448 12.8689749032594  17.4638894502049 12.5269785966358  17.3847573249353 12.0200912572732  L 15.0838388296433 12.0200912572732  C 15.065577588258 13.1315792090661  15.5464573807031 13.9193920668406  16.5143040658716 14.3774227398467  C 17.0682288833077 14.6339199549031  17.9021597190512 14.8049180783922  19.0221834950301 14.8965242607097  L 19.0221834950301 16.0935112444245  L 19.850027230495 16.0935112444245  L 19.850027230495 14.8843101388546  C 20.7326546901157 14.8354535321434  21.493540441418 14.6705624397591  22.1387715846805 14.3896369213471  C 23.1918374953968 13.9316061886957  23.7214139711693 13.1987570283826  23.7214139711693 12.1910893807623  C 23.7214139711693 11.4277048263433  23.3379275453789 10.8292113046633  22.5709546937982 10.4139301476182  C 22.1083361427383 10.1635400233121  21.201360341454 9.87040032339955  19.850027230495 9.54061819827636  L 19.850027230495 7.25046447537403  C 20.4100391482096 7.28099986947985  20.7996126742784 7.43367678036364  21.012660648973 7.72070938952593  C 21.1344023572912 7.88560048191017  21.2196215828393 8.14820472807147  21.2622311658882 8.50241515655024  L 23.5083659370246 8.50241515655024  C 23.471843394804 7.54360417528652  22.9787894612522 6.84739744018405  22.0231169171903 6.41379501088829  C 21.4996275416964 6.14508367397678  20.7691771728862 5.98629967234275  19.850027230495 5.93133597488128  L 19.850027230495 5.11909481375113  L 19.0221834950301 5.11909481375113  L 19.0221834950301 5.91912179338081  C 18.4439103359303 5.94965718748665  17.9995530262557 5.9985137941978  17.7012858260133 6.07179870426459  C 17.2082318330114 6.18172609918747  16.7577874825084 6.3771525260322  16.3560398153327 6.65807810408958  C 16.0455984145334 6.87793283428989  15.8021149978968 7.14053714009655  15.6255894465224 7.44589096186416  C 15.4490639545982 7.75124478363176  15.3638447290504 8.08713399950515  15.3638447885004 8.45966564058929  C 15.3638447885004 9.02762376816356  15.589066963752 9.51008280417052  16.0334242139764 9.90704274861023  C 16.4777815236511 10.3101097838002  17.2447543157817 10.621570696318  18.3343427687187 10.847532576914  L 19.0282705953084 10.9941023970476  L 19.0282705953084 13.5590744879663  Z M 19.8622013716018 11.1956359146425  L 19.8561142713234 11.1956359146425  C 20.33090696349 11.3177774314205  20.6656967059531 11.4399189481984  20.8604834987126 11.5559534338715  C 21.1952732411755 11.7574869514665  21.3596245325428 12.0261983480234  21.3596245325428 12.3743016857519  C 21.3596245325428 12.8262253276531  21.1830990406186 13.1437933309212  20.8300480567705 13.3331126670157  C 20.6291742231825 13.4369329711883  20.3065586812765 13.5102178812551  19.8622013716018 13.5468603661111  L 19.8622013716018 11.1956359146425  Z M 19.0282705953084 9.3696200151418  C 18.6082616272975 9.2780138924697  18.3039073267766 9.18030061940193  18.1030334931888 9.07037328412445  C 17.7438954090621 8.87494685727974  17.567369917138 8.60623546072287  17.567369917138 8.27034624484942  C 17.567369917138 7.96499242308181  17.6891116254563 7.72070938952593  17.9265080012647 7.53749708453627  C 18.163904377073 7.36039187029691  18.5291295020281 7.26878574762476  19.0282705953084 7.25657156612429  L 19.0282705953084 9.3696200151418  Z M 0.0365620168923373 12.1300185925506  C -0.0425701083771232 12.7651545394414  0.0304749166138673 24.0937814582389  0.0365620168923373 12.1300185925506  Z M 39 9.22305019500828  C 38.7260811414211 -2.2155040590667  0.0365620763424767 -4.39573038704616  0.0365620168923373 10.6276777870683  L 0.0365620168923373 12.1361256833009  C 0.0426491171708073 12.1055902891951  0.0426491171708073 12.0994831984448  0 12.1178044706955  L 0 39.086654297893  L 0.182652126324573 39.086654297893  C 0.52352896906604 45.2303732777463  8.76544348424473 50  19.2595798708385 50  C 29.7415420568751 50  38.5130331072764 45.2425873996013  38.8660840911247 39.086654297893  L 39 39.086654297893  L 39 9.22305019500828  Z M 3.26880477403274 10.6276777870683  C 3.26880477403274 6.88403986539474  9.83677063634648 2.71901369592597  19.2595798708385 2.71901375557132  C 28.6823891053303 2.71901375557132  35.5120996851162 6.89014701579042  35.5120996851162 10.6276777870683  C 35.5120996851162 14.3713157087418  28.6823891053303 18.5363418782106  19.2595798708385 18.5363418782106  C 9.83677063634648 18.5363418782106  3.26880477403274 14.3652086179916  3.26880477403274 10.6276777870683  Z M 3.098366322937 19.1165141276399  L 3.098366322937 17.107285982795  C 6.5436570547719 20.2096808668275  12.4359563318811 22.2189090116725  19.25349277056 22.2189090116725  C 26.0771162500671 22.2189090116725  32.2311603040985 20.2096808668275  35.6764509764833 17.107285982795  L 35.6764509764833 19.1104070368897  C 34.7755622160274 23.1166492047245  27.3493172357567 26.4633271223129  19.25349277056 26.4633271819583  C 11.1637554056418 26.4633271819583  4.00534218367137 23.1166492643699  3.098366322937 19.1165141276399  Z M 3.098366322937 25.9259044484898  L 3.098366322937 24.3624928547958  C 6.45843782922397 27.5076372547893  12.3689984071684 29.5657220063454  19.25349277056 29.5657220063454  C 26.1379871339515 29.5657220063454  32.3163794701962 27.5076372547893  35.6764509764833 24.3563857640456  L 35.6764509764833 25.9197973577397  C 34.7755622160274 29.9260395255744  27.3493172357567 33.2727174431628  19.25349277056 33.2727174431628  C 11.1637554056418 33.2727174431628  4.00534218367137 29.9260395255744  3.098366322937 25.9259044484898  Z M 3.098366322937 32.7352947096944  L 3.098366322937 31.1718831160003  C 6.45843782922397 34.3170275159938  12.3689984071684 36.3751122675499  19.25349277056 36.3751123271953  C 26.1379871339515 36.3751123271953  32.3163794701962 34.3170275756392  35.6764509764833 31.1657760848955  L 35.6764509764833 32.7291876189442  C 34.7755622160274 36.735429786779  27.3493172357567 40.0821077043674  19.25349277056 40.0821077640127  C 11.1637554056418 40.0821077640127  4.00534218367137 36.7354298464243  3.098366322937 32.7352947096944  Z M 35.7312347600891 39.0805472071427  C 35.2990516509713 43.2822158614676  27.6536715362776 46.8914980252173  19.2595798708385 46.8914980252173  C 10.8594011051207 46.8914980252173  3.48185274872724 43.2822158018222  3.04358253933116 39.0805472071427  L 3.098366322937 39.0805472071427  L 3.098366322937 37.9812734368503  C 6.45843782922397 41.1264178368437  12.3689984071684 43.1845025883998  19.25349277056 43.1845025883998  C 26.1379871339515 43.1845025883998  32.3163794701962 41.1264178368437  35.6764509764833 37.9751663461  L 35.6764509764833 39.0805472071427  L 35.7312347600891 39.0805472071427  Z " fill-rule="nonzero" fill="#1abc9c" stroke="none" transform="matrix(1 0 0 1 584 98 )" />
  </g>
</svg>