<?xml version="1.0" encoding="utf-8"?>
<svg version="1.1" xmlns:xlink="http://www.w3.org/1999/xlink" width="50px" height="50px" xmlns="http://www.w3.org/2000/svg">
  <g transform="matrix(1 0 0 1 -996 -480 )">
    <path d="M 49.9709894510211 26.1243723382912  C 50.1396479561022 22.4785748974911  49.5723159811827 18.9557716402588  48.2845187670375 15.653626016697  C 47.0410058541529 12.4650971216497  45.1858766650885 9.62610957437912  42.7706338159681 7.2155147284672  C 40.3554482621662 4.80491982670901  37.5110543029357 2.95337395172641  34.316453285742 1.7121674534707  C 31.0080764676553 0.426760827121961  27.478679098589 -0.139378477357936  23.825881434208 0.0289595067463539  C 17.3974364710916 0.325552210244078  11.4004342070067 3.04989378523167  6.93957655343236 7.70017249522209  C 2.46451128354632 12.36537518401  0 18.4926706945359  0 24.9534400691362  C 0 27.8327395150834  0.487356662995968 30.6554878518695  1.44860721181377 33.3432914406133  C 2.36906802616641 35.9169065483899  3.70235263135087 38.3106904872111  5.41311378861408 40.4606588634165  C 5.41895723964901 40.467977886779  5.42405596345115 40.4757544014575  5.42840990406821 40.4840455380199  C 6.1162777441032 41.8112507422837  4.92661638753494 45.306664778514  4.3507483613838 46.9985069244415  C 4.16587707170854 47.5416598592196  4.00621292445302 48.0107646524643  3.90504075072222 48.3760877194096  L 3.88773946698572 48.4385854896778  C 3.88591107839377 48.4451845404433  3.8845896030898 48.4519131624004  3.8837865376441 48.458712817886  L 3.87605256491585 48.5230975164478  C 3.80111868147637 49.1460165640546  4.17544438271679 49.701177249722  4.80745549815317 49.9045094102634  C 5.01260703644816 49.9704951608926  5.24245011525065 50  5.4881049673719 50  C 6.41452382339601 49.9999428135856  7.56431205868665 49.580241553691  8.44827978387286 49.1155967981613  C 9.78442881925663 48.4131975697981  10.9319828168967 47.421124356398  11.754193183036 46.2697476629983  C 11.7957370071021 46.2109663584594  11.8759045749928 46.1945427069513  11.9372884857019 46.2322375635545  C 15.8622657131343 48.63768624647  20.3589289120557 49.9049667898871  24.9991008808616 49.9049668457331  C 31.4721739171481 49.9049668457331  37.6111953287949 47.4451399698684  42.2851676746656 42.9785806582492  C 46.9443022116757 38.5262591442996  49.6738892221414 32.5406556527262  49.9709894510211 26.1243723382912  Z M 47.9729817405731 26.0320266104286  C 47.4047903918319 38.2993116751893  37.3134649073666 47.9085839223862  24.9989289949067 47.9085839782322  C 20.4513932605048 47.9085839782322  16.0546992014878 46.5863534335675  12.2844019881453 44.0848994831849  C 11.9932734919412 43.8921617646358  11.6347757081241 43.8294065916308  11.2953091039343 43.9117583987247  C 10.9563663546261 43.995031268608  10.6676123121075 44.2156928929315  10.4986495961719 44.520553965645  C 9.44499210612811 46.4265352758373  7.59610737937388 47.4319313601214  6.41521125531048 47.8176677431933  C 6.30813827927402 47.8526619196304  6.20742441213687 47.7496806914418  6.24368826407771 47.6432115387385  L 6.24454763789944 47.6405812429026  C 7.07764282760515 45.1928193601876  8.33656644658044 41.4937301566213  7.12576552352312 39.4232991475866  C 7.09491712596465 39.3705634640929  7.0602208654007 39.3201660270034  7.02195804491369 39.2725154381154  C 3.73661137096185 35.1691635194899  2.0000701740487 30.217717695458  2.0000701740487 24.9533828827215  C 2.0000701740487 12.6623109501484  11.627699276249 2.59010931647206  23.9182884313865 2.02305514105237  C 30.5880915453729 1.71514081194726  36.7813082852457 4.06066483401605  41.3563999903543 8.62706045610376  C 45.9314344001446 13.193398891777  48.2811960302447 19.3746152156282  47.9729817405731 26.0320266104286  Z " fill-rule="nonzero" fill="#8a8a8a" stroke="none" transform="matrix(1 0 0 1 996 480 )" />
  </g>
</svg>