<?xml version="1.0" encoding="utf-8"?>
<svg version="1.1" xmlns:xlink="http://www.w3.org/1999/xlink" width="48px" height="48px" xmlns="http://www.w3.org/2000/svg">
  <g transform="matrix(1 0 0 1 -762 -484 )">
    <path d="M 48 24  C 48 10.7659130434783  37.2340869565217 0  24 0  C 10.7659130434783 0  0 10.7659130434783  0 24  C 0 37.2340869565217  10.7659130434783 48  24 48  C 37.2340869565217 48  48 37.2340869565217  48 24  Z M 45.2577391304347 24  C 45.2577391304347 35.7217391304348  35.7217391304348 45.2577391304347  24 45.2577391304347  C 12.2782608695652 45.2577391304347  2.74226086956528 35.7217391304348  2.74226086956528 24  C 2.74226086956528 12.2782608695652  12.2782608695652 2.74226086956528  24 2.74226086956528  C 35.7217391304348 2.74226086956528  45.2577391304347 12.2782608695652  45.2577391304347 24  Z " fill-rule="nonzero" fill="#8a8a8a" stroke="none" transform="matrix(1 0 0 1 762 484 )" />
  </g>
</svg>