<?xml version="1.0" encoding="utf-8"?>
<svg version="1.1" xmlns:xlink="http://www.w3.org/1999/xlink" width="35px" height="11px" xmlns="http://www.w3.org/2000/svg">
  <g transform="matrix(1 0 0 1 -1004 -500 )">
    <path d="M 8.97670501892911 3.84790017900541  C 8.97670501892911 0.882822106701998  7.23576067470723 0.00131076977975449  5.63992357057142 0.00131076977975449  C 4.13472857298125 0.00131076977975449  3.17355726049893 0.762610346102666  2.43013224759895 1.84445373808233  L 2.39378422875937 1.84445373808233  L 2.39378422875937 1.4638039806558  C 2.39378422875937 0.582292582263447  2.03115871310848 0.00131076977975449  1.19692060347119 0.00131076977975449  C 0.362739472016815 0.00131076977975449  0 0.582292582263447  0 1.4638039806558  L 0 9.537443843949  C 0 10.3187577114901  0.290157390703687 10.999937054825  1.32385375067327 10.999937054825  C 2.35755011064298 10.999937054825  2.64770750134666 10.3187577114901  2.64770755698939 9.537443843949  L 2.64770755698939 4.70927139582966  C 2.64770755698939 3.24677818495361  3.73575503849078 2.40542132081768  4.66063525467369 2.40542125934782  C 5.80314775843018 2.40542125934782  6.32899751758245 3.24684106865871  6.32899751758245 4.42881910778426  L 6.32899751758245 9.5375067276541  C 6.32899751758245 10.3188205951952  6.61921188646916 10.9999999385301  7.65290824643874 11  C 8.68660460640845 11.0000000614699  8.97670501892911 10.3188206566651  8.97670501892911 9.5375067276541  L 8.97670501892911 3.84790017900541  Z M 20.4741274694625 4.78932868364294  C 20.4740704912795 2.38528107777971  18.7331261470576 0.00131076977975449  15.6865590119438 0.00131076977975449  C 12.5492358139184 0.00131076977975449  10.6813583224944 2.28514655357353  10.6813583224944 5.69091731842819  C 10.6813583224944 8.23519103757905  12.0777371762979 10.9998741096503  15.7771441959491 10.9998741096503  C 17.3730383339107 10.9998741096503  19.9300467505288 10.1784686530278  19.9300467505288 8.41544585624332  C 19.9300467505288 7.87449268766588  19.4766651719664 7.27349652249388  18.8419992690273 7.27349652249388  C 17.7720688465841 7.27349652249388  17.7720688465841 8.71597544215173  15.7772011741321 8.71597538068161  C 14.2889837832254 8.71597538068161  13.3923615185359 7.6701954554119  13.3322562682331 6.20971630572174  C 13.3321606373811 6.20740998567174  13.3321128031653 6.20510154964829  13.3321128031653 6.20279281120711  C 13.3321128031653 6.11934047431458  13.3932764676795 6.05164541458338  13.4688176711517 6.05148983946156  L 19.3134979066479 6.05148983946156  C 20.2020870821742 6.05148983946156  20.4741274694625 5.79105190410448  20.4741274694625 4.78932868364294  Z M 13.5035704677952 4.36865022083979  C 13.4280872869538 4.3685022385333  13.366967023961 4.30086127728741  13.366967023961 4.21747305310476  C 13.366967023961 4.2041890315421  13.3685519227888 4.1909629522229  13.3716807750988 4.17813650660217  C 13.6927738693263 2.86625419493702  14.477218611288 2.0447228479648  15.7409671116586 2.04472290943465  C 16.867299647651 2.04472290943465  17.7452921052779 2.94108770940598  17.9477128872703 4.19191996314843  C 17.9626395019363 4.28399842702139  17.8976916625052 4.36871316601474  17.81303154182 4.36871316601474  L 13.5035704677952 4.36871316601474  Z M 34.9999999960515 1.36360651127467  C 35.0000569742345 0.602306934951758  34.3834511521706 0.00131076977975449  33.712494208575 0.00131076977975449  C 32.7332058926773 0.00131076977975449  32.5699817048186 0.582292582263447  32.4067574613171 1.42371239157434  L 31.1010776922421 7.83458987263917  L 31.0647867072283 7.83458987263917  L 29.9222741478292 2.00469420405828  C 29.6865817793805 0.842730517620789  29.4326015286102 -0.0387179355966115  28.1813298036073 0.00131076977975449  C 26.9481751376626 -0.0387808193017109  26.730542850089 0.862807815483797  26.5129675963413 2.00469420405828  L 25.3886290741833 7.83458987263917  L 25.3523380335268 7.83458987263917  L 23.9559591240805 1.42371239157434  C 23.7746178771636 0.582292582263447  23.6295106927203 0.00131076977975449  22.6502794106483 0.00131076977975449  C 21.9793225226955 0.00131076977975449  21.3627167006316 0.602306934951758  21.3627166449889 1.36360651127467  C 21.3627166449889 1.80436221047072  21.4533588071771 2.12490608759758  21.5440578919058 2.44544990325433  L 23.4844605421027 9.41723202187956  C 23.8652600949946 10.7995420545929  24.1554174300556 10.999937054825  25.2072308490834 10.999937054825  C 26.3134523121832 10.999937054825  26.5854926994715 10.639301588617  26.8574760529339 9.47733790217948  L 28.1632128001919 3.72768835693622  L 28.1995038408485 3.72768835693622  L 29.5051836099233 9.47733790217948  C 29.7772239415689 10.6393645337919  30.0492073506741 10.999937054825  31.1554288137739 10.999937054825  C 32.2072422328018 10.999937054825  32.4973996235053 10.7995420545929  32.8781991207547 9.41723202187956  L 34.8186017709516 2.44544990325433  C 34.9093008556801 2.12490602612773  34.9999999960515 1.80436214900086  34.9999999960515 1.36360651127467  Z " fill-rule="nonzero" fill="#8a8a8a" stroke="none" transform="matrix(1 0 0 1 1004 500 )" />
  </g>
</svg>