<?xml version="1.0" encoding="utf-8"?>
<svg version="1.1" xmlns:xlink="http://www.w3.org/1999/xlink" width="10px" height="6px" xmlns="http://www.w3.org/2000/svg">
  <g transform="matrix(1 0 0 1 -1014 -21 )">
    <path d="M 9.814453125 0.197916666666657  C 9.93815104166663 0.329861111111114  10 0.486111111111114  10 0.666666666666657  C 10 0.847222222222229  9.93815104166663 1.00347222222223  9.814453125 1.13541666666666  L 5.439453125 5.80208333333334  C 5.31575520833326 5.93402777777777  5.16927083333326 6  5 6  C 4.83072916666674 6  4.68424479166674 5.93402777777777  4.560546875 5.80208333333334  L 0.185546875 1.13541666666666  C 0.0618489583333712 1.00347222222223  0 0.847222222222229  0 0.666666666666657  C 0 0.486111111111114  0.0618489583333712 0.329861111111114  0.185546875 0.197916666666657  C 0.309244791666629 0.0659722222222285  0.455729166666629 0  0.625 0  L 9.375 0  C 9.54427083333337 0  9.69075520833337 0.0659722222222285  9.814453125 0.197916666666657  Z " fill-rule="nonzero" fill="#cccccc" stroke="none" transform="matrix(1 0 0 1 1014 21 )" />
  </g>
</svg>